<?xml version="1.0" standalone="no"?>
<!DOCTYPE svg PUBLIC "-//W3C//DTD SVG 1.1//EN" "http://www.w3.org/Graphics/SVG/1.1/DTD/svg11.dtd" >
<svg>
<metadata>
Created by FontForge 20120731 at Wed Mar 19 14:22:52 2025
 By www
Copyright (c) 2016 by Katharina Seidl. All rights reserved.
</metadata>
<defs>
<font id="29LTRiwaya-Italic" horiz-adv-x="900" >
  <font-face 
    font-family="29LT Riwaya"
    font-weight="400"
    font-style="italic"
    font-stretch="normal"
    units-per-em="1000"
    panose-1="0 0 5 0 0 0 0 0 0 0"
    ascent="800"
    descent="-200"
    x-height="464"
    cap-height="665"
    bbox="-590.167 -565 1221 1028"
    underline-thickness="50"
    underline-position="-50"
    slope="-9"
    unicode-range="U+0020-FEFC"
  />
<missing-glyph horiz-adv-x="645" 
d="M564 662v-662h-450v662h450zM504 60v542h-330v-542h330z" />
    <glyph glyph-name="uniFC02" unicode="&#xfe8b;&#xfee2;" horiz-adv-x="611" arabic-form="isolated" 
d="M326 533q0 27 67 67q-63 12 -63 69q0 34 21.5 53t54.5 19q24 0 37 -9q23 -21 27 -45q-30 11 -55 11q-33 0 -58 -20q10 -36 79 -36q35 0 78 13l4 1q-4 -31 -12 -43q-57 -16 -90.5 -35t-78.5 -61q-11 5 -11 16zM426 342q-128 0 -175 -70q31 7 57 7q119 0 151 -100
q0 -71 -37.5 -132t-109.5 -61q-54 0 -87 41.5t-40 123.5q-60 -48 -76 -115q25 -150 39 -318q-10 -49 -34 -98l-13 -5q-6 111 -23.5 216.5t-17.5 140.5q0 93 36.5 166.5t99.5 110.5q23 62 66 102t84.5 53t85.5 13q32 0 57 -8q40 -28 77 -89l-10 -10q-60 32 -130 32zM419 118
q-16 41 -48.5 59t-68.5 18t-72 -17q11 -108 96 -108q70 0 93 48z" />
    <glyph glyph-name="uniFC03" unicode="&#xfe8b;&#xfef0;" horiz-adv-x="710" arabic-form="isolated" 
d="M669 642l4 1q-4 -31 -12 -43q-57 -16 -90.5 -35t-78.5 -61q-11 6 -11 16q0 27 67 67q-63 12 -63 69q0 34 21.5 53t54.5 19q24 0 37 -9q23 -21 27 -45q-30 11 -55 11q-33 0 -58 -20q10 -36 79 -36q35 0 78 13zM551 297q10 33 58 81q36 -89 36 -210q-29 -89 -114 -132
q37 -37 37 -87q0 -81 -83 -143.5t-203 -62.5q-101 0 -166.5 46.5t-65.5 152.5q0 110 61 194l8 -23q-20 -45 -20 -120q0 -166 204 -166q188 0 236 115q-15 31 -68.5 58t-121.5 37q9 37 31 79q35 -22 90 -22q76 0 125 38q1 30 -11 78t-33 87z" />
    <glyph glyph-name="uniFC04" unicode="&#xfe8b;&#xfef2;" horiz-adv-x="710" arabic-form="isolated" 
d="M669 642l4 1q-4 -31 -12 -43q-57 -16 -90.5 -35t-78.5 -61q-11 6 -11 16q0 27 67 67q-63 12 -63 69q0 34 21.5 53t54.5 19q24 0 37 -9q23 -21 27 -45q-30 11 -55 11q-33 0 -58 -20q10 -36 79 -36q35 0 78 13zM551 297q10 33 58 81q36 -89 36 -210q-29 -89 -114 -132
q37 -37 37 -87q0 -81 -83 -143.5t-203 -62.5q-101 0 -166.5 46.5t-65.5 152.5q0 110 61 194l8 -23q-20 -45 -20 -120q0 -166 204 -166q188 0 236 115q-15 31 -68.5 58t-121.5 37q9 37 31 79q35 -22 90 -22q76 0 125 38q1 30 -11 78t-33 87zM342 -343q37 -29 61 -69
q-41 -28 -72 -56q-8 10 -27 31t-27 30q-21 -21 -63 -67q-23 18 -63 62q24 40 68 67q31 -25 51 -50q46 38 72 52z" />
    <glyph glyph-name="uniFC08" unicode="&#xfe91;&#xfee2;" horiz-adv-x="611" arabic-form="isolated" 
d="M489 409q40 -28 77 -89l-10 -10q-60 32 -130 32q-128 0 -175 -70q31 7 57 7q119 0 151 -100q0 -71 -37.5 -132t-109.5 -61q-54 0 -87 41.5t-40 123.5q-60 -48 -76 -115q25 -150 39 -318q-10 -49 -34 -98l-13 -5q-6 111 -23.5 216.5t-17.5 140.5q0 93 36.5 166.5
t99.5 110.5q23 62 66 102t84.5 53t85.5 13q32 0 57 -8zM419 118q-16 41 -48.5 59t-68.5 18t-72 -17q11 -108 96 -108q70 0 93 48zM415 -65q37 -29 60 -63q-37 -29 -66 -64q-37 30 -61 64q24 44 67 63z" />
    <glyph glyph-name="uniFC09" unicode="&#xfe91;&#xfef0;" horiz-adv-x="710" arabic-form="isolated" 
d="M609 378q36 -89 36 -210q-29 -89 -114 -132q37 -37 37 -87q0 -81 -83 -143.5t-203 -62.5q-101 0 -166.5 46.5t-65.5 152.5q0 110 61 194l8 -23q-20 -45 -20 -120q0 -166 204 -166q188 0 236 115q-15 31 -68.5 58t-121.5 37q9 37 31 79q35 -22 90 -22q76 0 125 38
q1 30 -11 78t-33 87q10 33 58 81zM521 -292q37 -29 60 -63q-37 -29 -66 -64q-37 30 -61 64q24 44 67 63z" />
    <glyph glyph-name="uniFC0A" unicode="&#xfe91;&#xfef2;" horiz-adv-x="710" arabic-form="isolated" 
d="M609 378q36 -89 36 -210q-29 -89 -114 -132q37 -37 37 -87q0 -81 -83 -143.5t-203 -62.5q-101 0 -166.5 46.5t-65.5 152.5q0 110 61 194l8 -23q-20 -45 -20 -120q0 -166 204 -166q188 0 236 115q-15 31 -68.5 58t-121.5 37q9 37 31 79q35 -22 90 -22q76 0 125 38
q1 30 -11 78t-33 87q10 33 58 81zM521 -292q37 -29 60 -63q-37 -29 -66 -64q-37 30 -61 64q24 44 67 63zM342 -343q37 -29 61 -69q-41 -28 -72 -56q-8 10 -27 31t-27 30q-21 -21 -63 -67q-23 18 -63 62q24 40 68 67q31 -25 51 -50q46 38 72 52z" />
    <glyph glyph-name="uniFC0E" unicode="&#xfe97;&#xfee2;" horiz-adv-x="611" arabic-form="isolated" 
d="M360 507q-23 18 -63 62q24 40 68 67q31 -25 51 -50q46 38 72 52q37 -29 61 -69q-41 -28 -72 -56q-8 10 -27 31t-27 30q-21 -21 -63 -67zM426 342q-128 0 -175 -70q31 7 57 7q119 0 151 -100q0 -71 -37.5 -132t-109.5 -61q-54 0 -87 41.5t-40 123.5q-60 -48 -76 -115
q25 -150 39 -318q-10 -49 -34 -98l-13 -5q-6 111 -23.5 216.5t-17.5 140.5q0 93 36.5 166.5t99.5 110.5q23 62 66 102t84.5 53t85.5 13q32 0 57 -8q40 -28 77 -89l-10 -10q-60 32 -130 32zM419 118q-16 41 -48.5 59t-68.5 18t-72 -17q11 -108 96 -108q70 0 93 48z" />
    <glyph glyph-name="uniFC0F" unicode="&#xfe97;&#xfef0;" horiz-adv-x="710" arabic-form="isolated" 
d="M515 490q-23 18 -63 62q24 40 68 67q31 -25 51 -50q46 38 72 52q37 -29 61 -69q-41 -28 -72 -56q-8 10 -27 31t-27 30q-21 -21 -63 -67zM551 297q10 33 58 81q36 -89 36 -210q-29 -89 -114 -132q37 -37 37 -87q0 -81 -83 -143.5t-203 -62.5q-101 0 -166.5 46.5
t-65.5 152.5q0 110 61 194l8 -23q-20 -45 -20 -120q0 -166 204 -166q188 0 236 115q-15 31 -68.5 58t-121.5 37q9 37 31 79q35 -22 90 -22q76 0 125 38q1 30 -11 78t-33 87z" />
    <glyph glyph-name="uniFC10" unicode="&#xfe97;&#xfef2;" horiz-adv-x="710" arabic-form="isolated" 
d="M515 490q-23 18 -63 62q24 40 68 67q31 -25 51 -50q46 38 72 52q37 -29 61 -69q-41 -28 -72 -56q-8 10 -27 31t-27 30q-21 -21 -63 -67zM551 297q10 33 58 81q36 -89 36 -210q-29 -89 -114 -132q37 -37 37 -87q0 -81 -83 -143.5t-203 -62.5q-101 0 -166.5 46.5
t-65.5 152.5q0 110 61 194l8 -23q-20 -45 -20 -120q0 -166 204 -166q188 0 236 115q-15 31 -68.5 58t-121.5 37q9 37 31 79q35 -22 90 -22q76 0 125 38q1 30 -11 78t-33 87zM342 -343q37 -29 61 -69q-41 -28 -72 -56q-8 10 -27 31t-27 30q-21 -21 -63 -67q-23 18 -63 62
q24 40 68 67q31 -25 51 -50q46 38 72 52z" />
    <glyph glyph-name="uniFC12" unicode="&#xfe9b;&#xfee2;" horiz-adv-x="611" arabic-form="isolated" 
d="M420 641q-37 30 -61 64q24 44 67 63q37 -29 60 -63q-37 -29 -66 -64zM365 507q-23 18 -63 62q24 40 68 67q31 -25 51 -50q46 38 72 52q37 -29 61 -69q-41 -28 -72 -56q-8 10 -27 31t-27 30q-21 -21 -63 -67zM426 342q-128 0 -175 -70q31 7 57 7q119 0 151 -100
q0 -71 -37.5 -132t-109.5 -61q-54 0 -87 41.5t-40 123.5q-60 -48 -76 -115q25 -150 39 -318q-10 -49 -34 -98l-13 -5q-6 111 -23.5 216.5t-17.5 140.5q0 93 36.5 166.5t99.5 110.5q23 62 66 102t84.5 53t85.5 13q32 0 57 -8q40 -28 77 -89l-10 -10q-60 32 -130 32zM419 118
q-16 41 -48.5 59t-68.5 18t-72 -17q11 -108 96 -108q70 0 93 48z" />
    <glyph glyph-name="uniFC13" unicode="&#xfe9b;&#xfef0;" horiz-adv-x="710" arabic-form="isolated" 
d="M575 624q-37 30 -61 64q24 44 67 63q37 -29 60 -63q-37 -29 -66 -64zM520 490q-23 18 -63 62q24 40 68 67q31 -25 51 -50q46 38 72 52q37 -29 61 -69q-41 -28 -72 -56q-8 10 -27 31t-27 30q-21 -21 -63 -67zM551 297q10 33 58 81q36 -89 36 -210q-29 -89 -114 -132
q37 -37 37 -87q0 -81 -83 -143.5t-203 -62.5q-101 0 -166.5 46.5t-65.5 152.5q0 110 61 194l8 -23q-20 -45 -20 -120q0 -166 204 -166q188 0 236 115q-15 31 -68.5 58t-121.5 37q9 37 31 79q35 -22 90 -22q76 0 125 38q1 30 -11 78t-33 87z" />
    <glyph glyph-name="uniFC14" unicode="&#xfe9b;&#xfef2;" horiz-adv-x="710" arabic-form="isolated" 
d="M575 624q-37 30 -61 64q24 44 67 63q37 -29 60 -63q-37 -29 -66 -64zM520 490q-23 18 -63 62q24 40 68 67q31 -25 51 -50q46 38 72 52q37 -29 61 -69q-41 -28 -72 -56q-8 10 -27 31t-27 30q-21 -21 -63 -67zM551 297q10 33 58 81q36 -89 36 -210q-29 -89 -114 -132
q37 -37 37 -87q0 -81 -83 -143.5t-203 -62.5q-101 0 -166.5 46.5t-65.5 152.5q0 110 61 194l8 -23q-20 -45 -20 -120q0 -166 204 -166q188 0 236 115q-15 31 -68.5 58t-121.5 37q9 37 31 79q35 -22 90 -22q76 0 125 38q1 30 -11 78t-33 87zM342 -343q37 -29 61 -69
q-41 -28 -72 -56q-8 10 -27 31t-27 30q-21 -21 -63 -67q-23 18 -63 62q24 40 68 67q31 -25 51 -50q46 38 72 52z" />
    <glyph glyph-name="uniFC31" unicode="&#xfed3;&#xfef0;" horiz-adv-x="613" arabic-form="isolated" 
d="M441 594q-37 30 -61 64q24 44 67 63q37 -29 60 -63q-37 -29 -66 -64zM487 78q52 -22 89 -62q0 -127 -83 -200t-211 -73q-101 0 -166.5 46.5t-65.5 152.5q0 110 61 194l8 -23q-20 -45 -20 -120q0 -166 204 -166q188 0 236 115q-15 31 -68.5 58t-121.5 37q9 37 31 79
q43 -1 68 6t50 30q12 47 15 85q-15 -26 -27 -37q-26 -10 -55 -10q-80 0 -102 94q-2 90 27.5 150t82.5 60q55 0 92 -61t37 -143q0 -129 -81 -212zM463 278q23 0 50 3q-4 57 -27 91t-54 34q-28 0 -47 -29t-21 -70q26 -29 99 -29z" />
    <glyph glyph-name="uniFC32" unicode="&#xfed3;&#xfef2;" horiz-adv-x="613" arabic-form="isolated" 
d="M441 594q-37 30 -61 64q24 44 67 63q37 -29 60 -63q-37 -29 -66 -64zM487 78q52 -22 89 -62q0 -127 -83 -200t-211 -73q-101 0 -166.5 46.5t-65.5 152.5q0 110 61 194l8 -23q-20 -45 -20 -120q0 -166 204 -166q188 0 236 115q-15 31 -68.5 58t-121.5 37q9 37 31 79
q43 -1 68 6t50 30q12 47 15 85q-15 -26 -27 -37q-26 -10 -55 -10q-80 0 -102 94q-2 90 27.5 150t82.5 60q55 0 92 -61t37 -143q0 -129 -81 -212zM463 278q23 0 50 3q-4 57 -27 91t-54 34q-28 0 -47 -29t-21 -70q26 -29 99 -29zM372 -343q37 -29 61 -69q-41 -28 -72 -56
q-8 10 -27 31t-27 30q-21 -21 -63 -67q-23 18 -63 62q24 40 68 67q31 -25 51 -50q46 38 72 52z" />
    <glyph glyph-name="uniFC35" unicode="&#xfed7;&#xfef0;" horiz-adv-x="613" arabic-form="isolated" 
d="M378 584q-23 18 -63 62q24 40 68 67q31 -25 51 -50q46 38 72 52q37 -29 61 -69q-41 -28 -72 -56q-8 10 -27 31t-27 30q-21 -21 -63 -67zM487 78q52 -22 89 -62q0 -127 -83 -200t-211 -73q-101 0 -166.5 46.5t-65.5 152.5q0 110 61 194l8 -23q-20 -45 -20 -120
q0 -166 204 -166q188 0 236 115q-15 31 -68.5 58t-121.5 37q9 37 31 79q43 -1 68 6t50 30q12 47 15 85q-15 -26 -27 -37q-26 -10 -55 -10q-80 0 -102 94q-2 90 27.5 150t82.5 60q55 0 92 -61t37 -143q0 -129 -81 -212zM463 278q23 0 50 3q-4 57 -27 91t-54 34q-28 0 -47 -29
t-21 -70q26 -29 99 -29z" />
    <glyph glyph-name="uniFC36" unicode="&#xfed7;&#xfef2;" horiz-adv-x="613" arabic-form="isolated" 
d="M378 584q-23 18 -63 62q24 40 68 67q31 -25 51 -50q46 38 72 52q37 -29 61 -69q-41 -28 -72 -56q-8 10 -27 31t-27 30q-21 -21 -63 -67zM487 78q52 -22 89 -62q0 -127 -83 -200t-211 -73q-101 0 -166.5 46.5t-65.5 152.5q0 110 61 194l8 -23q-20 -45 -20 -120
q0 -166 204 -166q188 0 236 115q-15 31 -68.5 58t-121.5 37q9 37 31 79q43 -1 68 6t50 30q12 47 15 85q-15 -26 -27 -37q-26 -10 -55 -10q-80 0 -102 94q-2 90 27.5 150t82.5 60q55 0 92 -61t37 -143q0 -129 -81 -212zM463 278q23 0 50 3q-4 57 -27 91t-54 34q-28 0 -47 -29
t-21 -70q26 -29 99 -29zM372 -343q37 -29 61 -69q-41 -28 -72 -56q-8 10 -27 31t-27 30q-21 -21 -63 -67q-23 18 -63 62q24 40 68 67q31 -25 51 -50q46 38 72 52z" />
    <glyph glyph-name="uniFC3D" unicode="&#xfedb;&#xfef0;" horiz-adv-x="778" arabic-form="isolated" 
d="M708 644q-96 -41 -184.5 -97.5t-129.5 -114.5q233 -173 233 -283q0 -39 -28 -73q-22 -10 -70 -21q27 -16 47 -39q0 -127 -83 -200t-211 -73q-101 0 -166.5 46.5t-65.5 152.5q0 110 61 194l8 -23q-20 -45 -20 -120q0 -166 204 -166q188 0 236 115q-15 31 -68.5 58
t-121.5 37q9 37 31 79q10 -1 31 -1q95 0 166 22q0 24 -50.5 81t-119.5 115l-6 -42q-29 36 -44 71t-17.5 53t-2.5 44q35 65 159.5 144.5t271.5 142.5l5 -10q-27 -45 -65 -92z" />
    <glyph glyph-name="uniFC3E" unicode="&#xfedb;&#xfef2;" horiz-adv-x="778" arabic-form="isolated" 
d="M708 644q-96 -41 -184.5 -97.5t-129.5 -114.5q233 -173 233 -283q0 -39 -28 -73q-22 -10 -70 -21q27 -16 47 -39q0 -127 -83 -200t-211 -73q-101 0 -166.5 46.5t-65.5 152.5q0 110 61 194l8 -23q-20 -45 -20 -120q0 -166 204 -166q188 0 236 115q-15 31 -68.5 58
t-121.5 37q9 37 31 79q10 -1 31 -1q95 0 166 22q0 24 -50.5 81t-119.5 115l-6 -42q-29 36 -44 71t-17.5 53t-2.5 44q35 65 159.5 144.5t271.5 142.5l5 -10q-27 -45 -65 -92zM322 -343q37 -29 61 -69q-41 -28 -72 -56q-8 10 -27 31t-27 30q-21 -21 -63 -67q-23 18 -63 62
q24 40 68 67q31 -25 51 -50q46 38 72 52z" />
    <glyph glyph-name="uniFC42" unicode="&#xfedf;&#xfee2;" horiz-adv-x="504" arabic-form="isolated" 
d="M319 272q47 0 86 -24.5t54 -68.5q0 -71 -37.5 -132t-109.5 -61q-55 0 -89 41t-41 121q-57 -47 -73 -112q25 -150 39 -318q-10 -49 -34 -98l-13 -5q-6 111 -23.5 216.5t-17.5 140.5q0 75 33 139.5t86 106.5q-7 267 -22 451q24 38 74 57q10 -110 45 -145q-24 -17 -44 -24
q0 -35 1 -132t1 -173q43 20 85 20zM326 70q68 0 91 48q-16 41 -48 59t-68 18q-32 0 -66 -14q8 -111 91 -111z" />
    <glyph glyph-name="uniFC43" unicode="&#xfedf;&#xfef0;" horiz-adv-x="622" arabic-form="isolated" 
d="M470 80q69 -23 115 -64q0 -126 -89.5 -199.5t-218.5 -73.5q-101 0 -166.5 46.5t-65.5 152.5q0 110 61 194l8 -23q-20 -45 -20 -120q0 -166 204 -166q200 0 250 115q-19 31 -83 58t-147 37q5 26 31 73q108 -4 133 40q-2 55 -16.5 232.5t-17.5 286.5q24 38 74 57
q10 -110 45 -145q-24 -17 -44 -24q1 -116 11 -336q-16 -99 -64 -141z" />
    <glyph glyph-name="uniFC44" unicode="&#xfedf;&#xfef2;" horiz-adv-x="622" arabic-form="isolated" 
d="M470 80q69 -23 115 -64q0 -126 -89.5 -199.5t-218.5 -73.5q-101 0 -166.5 46.5t-65.5 152.5q0 110 61 194l8 -23q-20 -45 -20 -120q0 -166 204 -166q200 0 250 115q-19 31 -83 58t-147 37q5 26 31 73q108 -4 133 40q-2 55 -16.5 232.5t-17.5 286.5q24 38 74 57
q10 -110 45 -145q-24 -17 -44 -24q1 -116 11 -336q-16 -99 -64 -141zM381 -343q37 -29 61 -69q-41 -28 -72 -56q-8 10 -27 31t-27 30q-21 -21 -63 -67q-23 18 -63 62q24 40 68 67q31 -25 51 -50q46 38 72 52z" />
    <glyph glyph-name="uniFC4E" unicode="&#xfee7;&#xfee2;" horiz-adv-x="611" arabic-form="isolated" 
d="M423 517q-37 30 -61 64q24 44 67 63q37 -29 60 -63q-37 -29 -66 -64zM426 342q-128 0 -175 -70q31 7 57 7q119 0 151 -100q0 -71 -37.5 -132t-109.5 -61q-54 0 -87 41.5t-40 123.5q-60 -48 -76 -115q25 -150 39 -318q-10 -49 -34 -98l-13 -5q-6 111 -23.5 216.5
t-17.5 140.5q0 93 36.5 166.5t99.5 110.5q23 62 66 102t84.5 53t85.5 13q32 0 57 -8q40 -28 77 -89l-10 -10q-60 32 -130 32zM419 118q-16 41 -48.5 59t-68.5 18t-72 -17q11 -108 96 -108q70 0 93 48z" />
    <glyph glyph-name="uniFC4F" unicode="&#xfee7;&#xfef0;" horiz-adv-x="710" arabic-form="isolated" 
d="M578 500q-37 30 -61 64q24 44 67 63q37 -29 60 -63q-37 -29 -66 -64zM645 168q-29 -89 -114 -132q37 -37 37 -87q0 -81 -83 -143.5t-203 -62.5q-101 0 -166.5 46.5t-65.5 152.5q0 110 61 194l8 -23q-20 -45 -20 -120q0 -166 204 -166q188 0 236 115q-15 31 -68.5 58
t-121.5 37q9 37 31 79q35 -22 90 -22q76 0 125 38q1 30 -11 78t-33 87q10 33 58 81q36 -89 36 -210z" />
    <glyph glyph-name="uniFC50" unicode="&#xfee7;&#xfef2;" horiz-adv-x="710" arabic-form="isolated" 
d="M578 500q-37 30 -61 64q24 44 67 63q37 -29 60 -63q-37 -29 -66 -64zM645 168q-29 -89 -114 -132q37 -37 37 -87q0 -81 -83 -143.5t-203 -62.5q-101 0 -166.5 46.5t-65.5 152.5q0 110 61 194l8 -23q-20 -45 -20 -120q0 -166 204 -166q188 0 236 115q-15 31 -68.5 58
t-121.5 37q9 37 31 79q35 -22 90 -22q76 0 125 38q1 30 -11 78t-33 87q10 33 58 81q36 -89 36 -210zM342 -343q37 -29 61 -69q-41 -28 -72 -56q-8 10 -27 31t-27 30q-21 -21 -63 -67q-23 18 -63 62q24 40 68 67q31 -25 51 -50q46 38 72 52z" />
    <glyph glyph-name="uniFC53" unicode="&#xfbac;&#xfbfd;" horiz-adv-x="910" arabic-form="isolated" 
d="M620 424q103 -30 174 -113.5t71 -189.5q0 -15 -2 -27q-38 -40 -96.5 -59.5t-113.5 -19.5q-57 0 -94 21q-26 -11 -63 -18q22 -30 22 -69q0 -79 -79 -142.5t-185 -63.5q-40 0 -74.5 10t-64.5 31.5t-47.5 62t-17.5 95.5q0 110 61 194l8 -23q-20 -45 -20 -120
q0 -53 14.5 -88.5t41.5 -51t51 -21t56 -5.5q179 0 227 115q-15 31 -68.5 58t-121.5 37q9 37 31 79q77 -23 134 -23q14 0 42 2q-16 33 -16 82q0 76 35 133.5t82 71.5q5 22 13 42zM609 303q-20 0 -47 -22t-37 -70q34 -63 67 -86q45 27 85 76q0 42 -22.5 72t-45.5 30zM695 99
q66 0 130 24q-18 88 -100 150q-17 -105 -76 -171q23 -3 46 -3z" />
    <glyph glyph-name="uniFC54" unicode="&#xfbac;&#xfef2;" horiz-adv-x="910" arabic-form="isolated" 
d="M620 424q103 -30 174 -113.5t71 -189.5q0 -15 -2 -27q-38 -40 -96.5 -59.5t-113.5 -19.5q-57 0 -94 21q-26 -11 -63 -18q22 -30 22 -69q0 -79 -79 -142.5t-185 -63.5q-40 0 -74.5 10t-64.5 31.5t-47.5 62t-17.5 95.5q0 110 61 194l8 -23q-20 -45 -20 -120
q0 -53 14.5 -88.5t41.5 -51t51 -21t56 -5.5q179 0 227 115q-15 31 -68.5 58t-121.5 37q9 37 31 79q77 -23 134 -23q14 0 42 2q-16 33 -16 82q0 76 35 133.5t82 71.5q5 22 13 42zM609 303q-20 0 -47 -22t-37 -70q34 -63 67 -86q45 27 85 76q0 42 -22.5 72t-45.5 30zM695 99
q66 0 130 24q-18 88 -100 150q-17 -105 -76 -171q23 -3 46 -3zM322 -343q37 -29 61 -69q-41 -28 -72 -56q-8 10 -27 31t-27 30q-21 -21 -63 -67q-23 18 -63 62q24 40 68 67q31 -25 51 -50q46 38 72 52z" />
    <glyph glyph-name="uniFC58" unicode="&#xfbfe;&#xfee2;" horiz-adv-x="611" arabic-form="isolated" 
d="M489 409q40 -28 77 -89l-10 -10q-60 32 -130 32q-128 0 -175 -70q31 7 57 7q119 0 151 -100q0 -71 -37.5 -132t-109.5 -61q-54 0 -87 41.5t-40 123.5q-60 -48 -76 -115q25 -150 39 -318q-10 -49 -34 -98l-13 -5q-6 111 -23.5 216.5t-17.5 140.5q0 93 36.5 166.5
t99.5 110.5q23 62 66 102t84.5 53t85.5 13q32 0 57 -8zM419 118q-16 41 -48.5 59t-68.5 18t-72 -17q11 -108 96 -108q70 0 93 48zM484 -59q37 -29 61 -69q-41 -28 -72 -56q-8 10 -27 31t-27 30q-21 -21 -63 -67q-23 18 -63 62q24 40 68 67q31 -25 51 -50q46 38 72 52z" />
    <glyph glyph-name="uniFC59" unicode="&#xfbfe;&#xfbfd;" horiz-adv-x="710" arabic-form="isolated" 
d="M568 -51q0 -81 -83 -143.5t-203 -62.5q-101 0 -166.5 46.5t-65.5 152.5q0 110 61 194l8 -23q-20 -45 -20 -120q0 -166 204 -166q188 0 236 115q-15 31 -68.5 58t-121.5 37q9 37 31 79q35 -22 90 -22q76 0 125 38q1 30 -11 78t-33 87q10 33 58 81q36 -89 36 -210
q-29 -89 -114 -132q37 -37 37 -87zM651 -355q-41 -28 -72 -56q-8 10 -27 31t-27 30q-21 -21 -63 -67q-23 18 -63 62q24 40 68 67q31 -25 51 -50q46 38 72 52q37 -29 61 -69z" />
    <glyph glyph-name="uniFC5A" unicode="&#xfef3;&#xfef2;" horiz-adv-x="710" arabic-form="isolated" 
d="M568 -51q0 -81 -83 -143.5t-203 -62.5q-101 0 -166.5 46.5t-65.5 152.5q0 110 61 194l8 -23q-20 -45 -20 -120q0 -166 204 -166q188 0 236 115q-15 31 -68.5 58t-121.5 37q9 37 31 79q35 -22 90 -22q76 0 125 38q1 30 -11 78t-33 87q10 33 58 81q36 -89 36 -210
q-29 -89 -114 -132q37 -37 37 -87zM661 -325q-41 -28 -72 -56q-8 10 -27 31t-27 30q-21 -21 -63 -67q-23 18 -63 62q24 40 68 67q31 -25 51 -50q46 38 72 52q37 -29 61 -69zM342 -343q37 -29 61 -69q-41 -28 -72 -56q-8 10 -27 31t-27 30q-21 -21 -63 -67q-23 18 -63 62
q24 40 68 67q31 -25 51 -50q46 38 72 52z" />
    <glyph glyph-name="uniFC64" unicode="&#xfe8c;&#xfeae;" horiz-adv-x="651" arabic-form="final" 
d="M419 430q0 27 67 67q-63 12 -63 69q0 34 21.5 53t54.5 19q24 0 37 -9q23 -21 27 -45q-30 11 -55 11q-33 0 -58 -20q10 -36 79 -36q35 0 78 13l4 1q-4 -31 -12 -43q-57 -16 -90.5 -35t-78.5 -61q-11 6 -11 16zM538 178q0 -56 28 -75t85 -19q0 -46 -5 -65t-22 -19
q-20 0 -38 3t-45 13.5t-43.5 37t-16.5 66.5q0 30 12 72q-73 -25 -186 -34q32 -51 32 -139q0 -114 -51 -192.5t-151 -102.5q-89 18 -129 48l-3 14q127 -4 214 65t82 171q-24 57 -93 123q14 44 48 79q181 9 294 43q-12 -54 -12 -89z" />
    <glyph glyph-name="uniFC65" unicode="&#xfe8c;&#xfeb0;" horiz-adv-x="651" arabic-form="final" 
d="M419 430q0 27 67 67q-63 12 -63 69q0 34 21.5 53t54.5 19q24 0 37 -9q23 -21 27 -45q-30 11 -55 11q-33 0 -58 -20q10 -36 79 -36q35 0 78 13l4 1q-4 -31 -12 -43q-57 -16 -90.5 -35t-78.5 -61q-11 6 -11 16zM177 309q-37 30 -61 64q24 44 67 63q37 -29 60 -63
q-37 -29 -66 -64zM538 178q0 -56 28 -75t85 -19q0 -46 -5 -65t-22 -19q-20 0 -38 3t-45 13.5t-43.5 37t-16.5 66.5q0 30 12 72q-73 -25 -186 -34q32 -51 32 -139q0 -114 -51 -192.5t-151 -102.5q-89 18 -129 48l-3 14q127 -4 214 65t82 171q-24 57 -93 123q14 44 48 79
q181 9 294 43q-12 -54 -12 -89z" />
    <glyph glyph-name="uniFC67" unicode="&#xfe8c;&#xfee6;" horiz-adv-x="839" arabic-form="final" 
d="M607 430q0 27 67 67q-63 12 -63 69q0 34 21.5 53t54.5 19q24 0 37 -9q23 -21 27 -45q-30 11 -55 11q-33 0 -58 -20q10 -36 79 -36q35 0 78 13l4 1q-4 -31 -12 -43q-57 -16 -90.5 -35t-78.5 -61q-11 6 -11 16zM294 255q-37 30 -61 64q24 44 67 63q37 -29 60 -63
q-37 -29 -66 -64zM738 267q-11 -47 -12 -80.5t6 -53t23.5 -31t35.5 -15t48 -3.5q0 -46 -5 -65t-22 -19q-12 0 -23 1t-29.5 5t-32.5 11t-28.5 21.5t-22 34t-7 50t10.5 68.5q-72 -29 -176 -34q26 -75 31 -129q1 -71 -22 -127.5t-62.5 -90t-87 -50.5t-98.5 -17q-35 0 -67.5 10
t-63.5 31t-49.5 61t-18.5 94q0 50 16.5 109.5t42.5 98.5l8 -23q-17 -73 -17 -131q0 -166 163 -166q77 0 134.5 28.5t77.5 82.5q-7 80 -65 207q12 42 48 79q160 8 264 43z" />
    <glyph glyph-name="uniFC68" unicode="&#xfe8c;&#xfef0;" horiz-adv-x="752" arabic-form="final" 
d="M498 430q0 27 67 67q-63 12 -63 69q0 34 21.5 53t54.5 19q24 0 37 -9q23 -21 27 -45q-30 11 -55 11q-33 0 -58 -20q10 -36 79 -36q35 0 78 13l4 1q-4 -31 -12 -43q-57 -16 -90.5 -35t-78.5 -61q-11 6 -11 16zM620 191q0 -63 34.5 -85t96.5 -22q0 -46 -5 -65t-22 -19
q-21 0 -41 3t-51 14t-50 39.5t-19 70.5q0 33 11 69q-61 3 -118.5 -29.5t-82.5 -91.5q18 -19 56.5 -35t70 -31t38.5 -36q-22 -103 -100.5 -166.5t-183.5 -63.5q-40 0 -74.5 10t-64.5 31.5t-47.5 62t-17.5 95.5q0 110 61 194l8 -23q-20 -45 -20 -120q0 -53 14.5 -88.5
t41.5 -51t51 -21t56 -5.5q175 0 227 95q-12 20 -77 43.5t-87 52.5q0 106 74 181.5t172 75.5q27 0 59 -8q-10 -43 -10 -76z" />
    <glyph glyph-name="uniFC69" unicode="&#xfe8c;&#xfef2;" horiz-adv-x="752" arabic-form="final" 
d="M498 430q0 27 67 67q-63 12 -63 69q0 34 21.5 53t54.5 19q24 0 37 -9q23 -21 27 -45q-30 11 -55 11q-33 0 -58 -20q10 -36 79 -36q35 0 78 13l4 1q-4 -31 -12 -43q-57 -16 -90.5 -35t-78.5 -61q-11 6 -11 16zM620 191q0 -63 34.5 -85t96.5 -22q0 -46 -5 -65t-22 -19
q-21 0 -41 3t-51 14t-50 39.5t-19 70.5q0 33 11 69q-61 3 -118.5 -29.5t-82.5 -91.5q18 -19 56.5 -35t70 -31t38.5 -36q-22 -103 -100.5 -166.5t-183.5 -63.5q-40 0 -74.5 10t-64.5 31.5t-47.5 62t-17.5 95.5q0 110 61 194l8 -23q-20 -45 -20 -120q0 -53 14.5 -88.5
t41.5 -51t51 -21t56 -5.5q175 0 227 95q-12 20 -77 43.5t-87 52.5q0 106 74 181.5t172 75.5q27 0 59 -8q-10 -43 -10 -76zM322 -343q37 -29 61 -69q-41 -28 -72 -56q-8 10 -27 31t-27 30q-21 -21 -63 -67q-23 18 -63 62q24 40 68 67q31 -25 51 -50q46 38 72 52z" />
    <glyph glyph-name="uniFC6A" unicode="&#xfe92;&#xfeae;" horiz-adv-x="651" arabic-form="final" 
d="M538 178q0 -56 28 -75t85 -19q0 -46 -5 -65t-22 -19q-20 0 -38 3t-45 13.5t-43.5 37t-16.5 66.5q0 30 12 72q-73 -25 -186 -34q32 -51 32 -139q0 -114 -51 -192.5t-151 -102.5q-89 18 -129 48l-3 14q127 -4 214 65t82 171q-24 57 -93 123q14 44 48 79q181 9 294 43
q-12 -54 -12 -89zM511 -91q37 -29 60 -63q-37 -29 -66 -64q-37 30 -61 64q24 44 67 63z" />
    <glyph glyph-name="uniFC6B" unicode="&#xfe92;&#xfeb0;" horiz-adv-x="651" arabic-form="final" 
d="M177 309q-37 30 -61 64q24 44 67 63q37 -29 60 -63q-37 -29 -66 -64zM538 178q0 -56 28 -75t85 -19q0 -46 -5 -65t-22 -19q-20 0 -38 3t-45 13.5t-43.5 37t-16.5 66.5q0 30 12 72q-73 -25 -186 -34q32 -51 32 -139q0 -114 -51 -192.5t-151 -102.5q-89 18 -129 48l-3 14
q127 -4 214 65t82 171q-24 57 -93 123q14 44 48 79q181 9 294 43q-12 -54 -12 -89zM511 -91q37 -29 60 -63q-37 -29 -66 -64q-37 30 -61 64q24 44 67 63z" />
    <glyph glyph-name="uniFC6D" unicode="&#xfe92;&#xfee6;" horiz-adv-x="839" arabic-form="final" 
d="M294 255q-37 30 -61 64q24 44 67 63q37 -29 60 -63q-37 -29 -66 -64zM738 267q-11 -47 -12 -80.5t6 -53t23.5 -31t35.5 -15t48 -3.5q0 -46 -5 -65t-22 -19q-12 0 -23 1t-29.5 5t-32.5 11t-28.5 21.5t-22 34t-7 50t10.5 68.5q-72 -29 -176 -34q26 -75 31 -129
q1 -71 -22 -127.5t-62.5 -90t-87 -50.5t-98.5 -17q-35 0 -67.5 10t-63.5 31t-49.5 61t-18.5 94q0 50 16.5 109.5t42.5 98.5l8 -23q-17 -73 -17 -131q0 -166 163 -166q77 0 134.5 28.5t77.5 82.5q-7 80 -65 207q12 42 48 79q160 8 264 43zM700 -91q37 -29 60 -63
q-37 -29 -66 -64q-37 30 -61 64q24 44 67 63z" />
    <glyph glyph-name="uniFC6E" unicode="&#xfe92;&#xfef0;" horiz-adv-x="752" arabic-form="final" 
d="M620 191q0 -63 34.5 -85t96.5 -22q0 -46 -5 -65t-22 -19q-21 0 -41 3t-51 14t-50 39.5t-19 70.5q0 33 11 69q-61 3 -118.5 -29.5t-82.5 -91.5q18 -19 56.5 -35t70 -31t38.5 -36q-22 -103 -100.5 -166.5t-183.5 -63.5q-40 0 -74.5 10t-64.5 31.5t-47.5 62t-17.5 95.5
q0 110 61 194l8 -23q-20 -45 -20 -120q0 -53 14.5 -88.5t41.5 -51t51 -21t56 -5.5q175 0 227 95q-12 20 -77 43.5t-87 52.5q0 106 74 181.5t172 75.5q27 0 59 -8q-10 -43 -10 -76zM617 -171q37 -29 60 -63q-37 -29 -66 -64q-37 30 -61 64q24 44 67 63z" />
    <glyph glyph-name="uniFC6F" unicode="&#xfe92;&#xfef2;" horiz-adv-x="752" arabic-form="final" 
d="M620 191q0 -63 34.5 -85t96.5 -22q0 -46 -5 -65t-22 -19q-21 0 -41 3t-51 14t-50 39.5t-19 70.5q0 33 11 69q-61 3 -118.5 -29.5t-82.5 -91.5q18 -19 56.5 -35t70 -31t38.5 -36q-22 -103 -100.5 -166.5t-183.5 -63.5q-40 0 -74.5 10t-64.5 31.5t-47.5 62t-17.5 95.5
q0 110 61 194l8 -23q-20 -45 -20 -120q0 -53 14.5 -88.5t41.5 -51t51 -21t56 -5.5q175 0 227 95q-12 20 -77 43.5t-87 52.5q0 106 74 181.5t172 75.5q27 0 59 -8q-10 -43 -10 -76zM617 -171q37 -29 60 -63q-37 -29 -66 -64q-37 30 -61 64q24 44 67 63zM322 -343
q37 -29 61 -69q-41 -28 -72 -56q-8 10 -27 31t-27 30q-21 -21 -63 -67q-23 18 -63 62q24 40 68 67q31 -25 51 -50q46 38 72 52z" />
    <glyph glyph-name="uniFC70" unicode="&#xfe98;&#xfeae;" horiz-adv-x="651" arabic-form="final" 
d="M453 400q-23 18 -63 62q24 40 68 67q31 -25 51 -50q46 38 72 52q37 -29 61 -69q-41 -28 -72 -56q-8 10 -27 31t-27 30q-21 -21 -63 -67zM538 178q0 -56 28 -75t85 -19q0 -46 -5 -65t-22 -19q-20 0 -38 3t-45 13.5t-43.5 37t-16.5 66.5q0 30 12 72q-73 -25 -186 -34
q32 -51 32 -139q0 -114 -51 -192.5t-151 -102.5q-89 18 -129 48l-3 14q127 -4 214 65t82 171q-24 57 -93 123q14 44 48 79q181 9 294 43q-12 -54 -12 -89z" />
    <glyph glyph-name="uniFC71" unicode="&#xfe98;&#xfeb0;" horiz-adv-x="651" arabic-form="final" 
d="M453 400q-23 18 -63 62q24 40 68 67q31 -25 51 -50q46 38 72 52q37 -29 61 -69q-41 -28 -72 -56q-8 10 -27 31t-27 30q-21 -21 -63 -67zM177 309q-37 30 -61 64q24 44 67 63q37 -29 60 -63q-37 -29 -66 -64zM538 178q0 -56 28 -75t85 -19q0 -46 -5 -65t-22 -19
q-20 0 -38 3t-45 13.5t-43.5 37t-16.5 66.5q0 30 12 72q-73 -25 -186 -34q32 -51 32 -139q0 -114 -51 -192.5t-151 -102.5q-89 18 -129 48l-3 14q127 -4 214 65t82 171q-24 57 -93 123q14 44 48 79q181 9 294 43q-12 -54 -12 -89z" />
    <glyph glyph-name="uniFC73" unicode="&#xfe98;&#xfee6;" horiz-adv-x="839" arabic-form="final" 
d="M641 400q-23 18 -63 62q24 40 68 67q31 -25 51 -50q46 38 72 52q37 -29 61 -69q-41 -28 -72 -56q-8 10 -27 31t-27 30q-21 -21 -63 -67zM294 255q-37 30 -61 64q24 44 67 63q37 -29 60 -63q-37 -29 -66 -64zM738 267q-11 -47 -12 -80.5t6 -53t23.5 -31t35.5 -15t48 -3.5
q0 -46 -5 -65t-22 -19q-12 0 -23 1t-29.5 5t-32.5 11t-28.5 21.5t-22 34t-7 50t10.5 68.5q-72 -29 -176 -34q26 -75 31 -129q1 -71 -22 -127.5t-62.5 -90t-87 -50.5t-98.5 -17q-35 0 -67.5 10t-63.5 31t-49.5 61t-18.5 94q0 50 16.5 109.5t42.5 98.5l8 -23q-17 -73 -17 -131
q0 -166 163 -166q77 0 134.5 28.5t77.5 82.5q-7 80 -65 207q12 42 48 79q160 8 264 43z" />
    <glyph glyph-name="uniFC74" unicode="&#xfe98;&#xfef0;" horiz-adv-x="752" arabic-form="final" 
d="M532 400q-23 18 -63 62q24 40 68 67q31 -25 51 -50q46 38 72 52q37 -29 61 -69q-41 -28 -72 -56q-8 10 -27 31t-27 30q-21 -21 -63 -67zM620 191q0 -63 34.5 -85t96.5 -22q0 -46 -5 -65t-22 -19q-21 0 -41 3t-51 14t-50 39.5t-19 70.5q0 33 11 69q-61 3 -118.5 -29.5
t-82.5 -91.5q18 -19 56.5 -35t70 -31t38.5 -36q-22 -103 -100.5 -166.5t-183.5 -63.5q-40 0 -74.5 10t-64.5 31.5t-47.5 62t-17.5 95.5q0 110 61 194l8 -23q-20 -45 -20 -120q0 -53 14.5 -88.5t41.5 -51t51 -21t56 -5.5q175 0 227 95q-12 20 -77 43.5t-87 52.5
q0 106 74 181.5t172 75.5q27 0 59 -8q-10 -43 -10 -76z" />
    <glyph glyph-name="uniFC75" unicode="&#xfe98;&#xfef2;" horiz-adv-x="752" arabic-form="final" 
d="M532 400q-23 18 -63 62q24 40 68 67q31 -25 51 -50q46 38 72 52q37 -29 61 -69q-41 -28 -72 -56q-8 10 -27 31t-27 30q-21 -21 -63 -67zM620 191q0 -63 34.5 -85t96.5 -22q0 -46 -5 -65t-22 -19q-21 0 -41 3t-51 14t-50 39.5t-19 70.5q0 33 11 69q-61 3 -118.5 -29.5
t-82.5 -91.5q18 -19 56.5 -35t70 -31t38.5 -36q-22 -103 -100.5 -166.5t-183.5 -63.5q-40 0 -74.5 10t-64.5 31.5t-47.5 62t-17.5 95.5q0 110 61 194l8 -23q-20 -45 -20 -120q0 -53 14.5 -88.5t41.5 -51t51 -21t56 -5.5q175 0 227 95q-12 20 -77 43.5t-87 52.5
q0 106 74 181.5t172 75.5q27 0 59 -8q-10 -43 -10 -76zM322 -343q37 -29 61 -69q-41 -28 -72 -56q-8 10 -27 31t-27 30q-21 -21 -63 -67q-23 18 -63 62q24 40 68 67q31 -25 51 -50q46 38 72 52z" />
    <glyph glyph-name="uniFC76" unicode="&#xfe9c;&#xfeae;" horiz-adv-x="651" arabic-form="final" 
d="M513 534q-37 30 -61 64q24 44 67 63q37 -29 60 -63q-37 -29 -66 -64zM458 400q-23 18 -63 62q24 40 68 67q31 -25 51 -50q46 38 72 52q37 -29 61 -69q-41 -28 -72 -56q-8 10 -27 31t-27 30q-21 -21 -63 -67zM538 178q0 -56 28 -75t85 -19q0 -46 -5 -65t-22 -19
q-20 0 -38 3t-45 13.5t-43.5 37t-16.5 66.5q0 30 12 72q-73 -25 -186 -34q32 -51 32 -139q0 -114 -51 -192.5t-151 -102.5q-89 18 -129 48l-3 14q127 -4 214 65t82 171q-24 57 -93 123q14 44 48 79q181 9 294 43q-12 -54 -12 -89z" />
    <glyph glyph-name="uniFC77" unicode="&#xfe9c;&#xfeb0;" horiz-adv-x="651" arabic-form="final" 
d="M513 534q-37 30 -61 64q24 44 67 63q37 -29 60 -63q-37 -29 -66 -64zM458 400q-23 18 -63 62q24 40 68 67q31 -25 51 -50q46 38 72 52q37 -29 61 -69q-41 -28 -72 -56q-8 10 -27 31t-27 30q-21 -21 -63 -67zM177 309q-37 30 -61 64q24 44 67 63q37 -29 60 -63
q-37 -29 -66 -64zM538 178q0 -56 28 -75t85 -19q0 -46 -5 -65t-22 -19q-20 0 -38 3t-45 13.5t-43.5 37t-16.5 66.5q0 30 12 72q-73 -25 -186 -34q32 -51 32 -139q0 -114 -51 -192.5t-151 -102.5q-89 18 -129 48l-3 14q127 -4 214 65t82 171q-24 57 -93 123q14 44 48 79
q181 9 294 43q-12 -54 -12 -89z" />
    <glyph glyph-name="uniFC79" unicode="&#xfe9c;&#xfee6;" horiz-adv-x="839" arabic-form="final" 
d="M701 534q-37 30 -61 64q24 44 67 63q37 -29 60 -63q-37 -29 -66 -64zM646 400q-23 18 -63 62q24 40 68 67q31 -25 51 -50q46 38 72 52q37 -29 61 -69q-41 -28 -72 -56q-8 10 -27 31t-27 30q-21 -21 -63 -67zM294 255q-37 30 -61 64q24 44 67 63q37 -29 60 -63
q-37 -29 -66 -64zM738 267q-11 -47 -12 -80.5t6 -53t23.5 -31t35.5 -15t48 -3.5q0 -46 -5 -65t-22 -19q-12 0 -23 1t-29.5 5t-32.5 11t-28.5 21.5t-22 34t-7 50t10.5 68.5q-72 -29 -176 -34q26 -75 31 -129q1 -71 -22 -127.5t-62.5 -90t-87 -50.5t-98.5 -17q-35 0 -67.5 10
t-63.5 31t-49.5 61t-18.5 94q0 50 16.5 109.5t42.5 98.5l8 -23q-17 -73 -17 -131q0 -166 163 -166q77 0 134.5 28.5t77.5 82.5q-7 80 -65 207q12 42 48 79q160 8 264 43z" />
    <glyph glyph-name="uniFC7A" unicode="&#xfe9c;&#xfef0;" horiz-adv-x="752" arabic-form="final" 
d="M592 534q-37 30 -61 64q24 44 67 63q37 -29 60 -63q-37 -29 -66 -64zM537 400q-23 18 -63 62q24 40 68 67q31 -25 51 -50q46 38 72 52q37 -29 61 -69q-41 -28 -72 -56q-8 10 -27 31t-27 30q-21 -21 -63 -67zM620 191q0 -63 34.5 -85t96.5 -22q0 -46 -5 -65t-22 -19
q-21 0 -41 3t-51 14t-50 39.5t-19 70.5q0 33 11 69q-61 3 -118.5 -29.5t-82.5 -91.5q18 -19 56.5 -35t70 -31t38.5 -36q-22 -103 -100.5 -166.5t-183.5 -63.5q-40 0 -74.5 10t-64.5 31.5t-47.5 62t-17.5 95.5q0 110 61 194l8 -23q-20 -45 -20 -120q0 -53 14.5 -88.5
t41.5 -51t51 -21t56 -5.5q175 0 227 95q-12 20 -77 43.5t-87 52.5q0 106 74 181.5t172 75.5q27 0 59 -8q-10 -43 -10 -76z" />
    <glyph glyph-name="uniFC7B" unicode="&#xfe9c;&#xfef2;" horiz-adv-x="752" arabic-form="final" 
d="M592 534q-37 30 -61 64q24 44 67 63q37 -29 60 -63q-37 -29 -66 -64zM537 400q-23 18 -63 62q24 40 68 67q31 -25 51 -50q46 38 72 52q37 -29 61 -69q-41 -28 -72 -56q-8 10 -27 31t-27 30q-21 -21 -63 -67zM620 191q0 -63 34.5 -85t96.5 -22q0 -46 -5 -65t-22 -19
q-21 0 -41 3t-51 14t-50 39.5t-19 70.5q0 33 11 69q-61 3 -118.5 -29.5t-82.5 -91.5q18 -19 56.5 -35t70 -31t38.5 -36q-22 -103 -100.5 -166.5t-183.5 -63.5q-40 0 -74.5 10t-64.5 31.5t-47.5 62t-17.5 95.5q0 110 61 194l8 -23q-20 -45 -20 -120q0 -53 14.5 -88.5
t41.5 -51t51 -21t56 -5.5q175 0 227 95q-12 20 -77 43.5t-87 52.5q0 106 74 181.5t172 75.5q27 0 59 -8q-10 -43 -10 -76zM322 -343q37 -29 61 -69q-41 -28 -72 -56q-8 10 -27 31t-27 30q-21 -21 -63 -67q-23 18 -63 62q24 40 68 67q31 -25 51 -50q46 38 72 52z" />
    <glyph glyph-name="uniFC83" unicode="&#xfedc;&#xfef0;" horiz-adv-x="861" arabic-form="final" 
d="M614 225q59 -78 109.5 -109.5t137.5 -31.5q0 -46 -5 -65t-22 -19q-44 0 -80.5 12.5t-67.5 40t-51 51t-49 63.5q-10 -62 -80 -98q41 -21 70 -53q0 -127 -83 -200t-211 -73q-101 0 -166.5 46.5t-65.5 152.5q0 110 61 194l8 -23q-20 -45 -20 -120q0 -166 204 -166
q188 0 236 115q-15 31 -68.5 58t-121.5 37q10 40 31 79q37 0 71.5 3t69 16t34.5 35q0 71 -189 198q-8 35 -8 65q0 35 10 65q50 51 181 122.5t280 125.5l5 -10q-27 -45 -65 -92q-117 -42 -222 -98t-150 -111q61 -36 110 -85.5t107 -124.5z" />
    <glyph glyph-name="uniFC84" unicode="&#xfedc;&#xfef2;" horiz-adv-x="861" arabic-form="final" 
d="M614 225q59 -78 109.5 -109.5t137.5 -31.5q0 -46 -5 -65t-22 -19q-44 0 -80.5 12.5t-67.5 40t-51 51t-49 63.5q-10 -62 -80 -98q41 -21 70 -53q0 -127 -83 -200t-211 -73q-101 0 -166.5 46.5t-65.5 152.5q0 110 61 194l8 -23q-20 -45 -20 -120q0 -166 204 -166
q188 0 236 115q-15 31 -68.5 58t-121.5 37q10 40 31 79q37 0 71.5 3t69 16t34.5 35q0 71 -189 198q-8 35 -8 65q0 35 10 65q50 51 181 122.5t280 125.5l5 -10q-27 -45 -65 -92q-117 -42 -222 -98t-150 -111q61 -36 110 -85.5t107 -124.5zM322 -343q37 -29 61 -69
q-41 -28 -72 -56q-8 10 -27 31t-27 30q-21 -21 -63 -67q-23 18 -63 62q24 40 68 67q31 -25 51 -50q46 38 72 52z" />
    <glyph glyph-name="uniFC86" unicode="&#xfee0;&#xfef0;" horiz-adv-x="753" arabic-form="final" 
d="M654 215q1 -44 9.5 -72t23.5 -40t29 -15.5t37 -3.5q0 -49 -4.5 -66.5t-22.5 -17.5q-55 0 -83.5 21.5t-39.5 70.5q-20 -30 -58 -47q18 -15 31 -29q0 -127 -83 -200t-211 -73q-101 0 -166.5 46.5t-65.5 152.5q0 110 61 194l8 -23q-20 -45 -20 -120q0 -166 204 -166
q188 0 236 115q-15 31 -68.5 58t-121.5 37q9 37 31 79q53 -16 100 -16q85 0 115 43q-4 35 -4 88q-1 109 -9.5 242.5t-15.5 191.5q27 44 79 61q0 -257 9 -511z" />
    <glyph glyph-name="uniFC87" unicode="&#xfee0;&#xfef2;" horiz-adv-x="753" arabic-form="final" 
d="M654 215q1 -44 9.5 -72t23.5 -40t29 -15.5t37 -3.5q0 -49 -4.5 -66.5t-22.5 -17.5q-55 0 -83.5 21.5t-39.5 70.5q-20 -30 -58 -47q18 -15 31 -29q0 -127 -83 -200t-211 -73q-101 0 -166.5 46.5t-65.5 152.5q0 110 61 194l8 -23q-20 -45 -20 -120q0 -166 204 -166
q188 0 236 115q-15 31 -68.5 58t-121.5 37q9 37 31 79q53 -16 100 -16q85 0 115 43q-4 35 -4 88q-1 109 -9.5 242.5t-15.5 191.5q27 44 79 61q0 -257 9 -511zM372 -343q37 -29 61 -69q-41 -28 -72 -56q-8 10 -27 31t-27 30q-21 -21 -63 -67q-23 18 -63 62q24 40 68 67
q31 -25 51 -50q46 38 72 52z" />
    <glyph glyph-name="uniFC8A" unicode="&#xfee8;&#xfeae;" horiz-adv-x="651" arabic-form="final" 
d="M516 410q-37 30 -61 64q24 44 67 63q37 -29 60 -63q-37 -29 -66 -64zM538 178q0 -56 28 -75t85 -19q0 -46 -5 -65t-22 -19q-20 0 -38 3t-45 13.5t-43.5 37t-16.5 66.5q0 30 12 72q-73 -25 -186 -34q32 -51 32 -139q0 -114 -51 -192.5t-151 -102.5q-89 18 -129 48l-3 14
q127 -4 214 65t82 171q-24 57 -93 123q14 44 48 79q181 9 294 43q-12 -54 -12 -89z" />
    <glyph glyph-name="uniFC8B" unicode="&#xfee8;&#xfeb0;" horiz-adv-x="651" arabic-form="final" 
d="M516 410q-37 30 -61 64q24 44 67 63q37 -29 60 -63q-37 -29 -66 -64zM177 309q-37 30 -61 64q24 44 67 63q37 -29 60 -63q-37 -29 -66 -64zM538 178q0 -56 28 -75t85 -19q0 -46 -5 -65t-22 -19q-20 0 -38 3t-45 13.5t-43.5 37t-16.5 66.5q0 30 12 72q-73 -25 -186 -34
q32 -51 32 -139q0 -114 -51 -192.5t-151 -102.5q-89 18 -129 48l-3 14q127 -4 214 65t82 171q-24 57 -93 123q14 44 48 79q181 9 294 43q-12 -54 -12 -89z" />
    <glyph glyph-name="uniFC8D" unicode="&#xfee8;&#xfee6;" horiz-adv-x="839" arabic-form="final" 
d="M704 410q-37 30 -61 64q24 44 67 63q37 -29 60 -63q-37 -29 -66 -64zM294 255q-37 30 -61 64q24 44 67 63q37 -29 60 -63q-37 -29 -66 -64zM738 267q-11 -47 -12 -80.5t6 -53t23.5 -31t35.5 -15t48 -3.5q0 -46 -5 -65t-22 -19q-12 0 -23 1t-29.5 5t-32.5 11t-28.5 21.5
t-22 34t-7 50t10.5 68.5q-72 -29 -176 -34q26 -75 31 -129q1 -71 -22 -127.5t-62.5 -90t-87 -50.5t-98.5 -17q-35 0 -67.5 10t-63.5 31t-49.5 61t-18.5 94q0 50 16.5 109.5t42.5 98.5l8 -23q-17 -73 -17 -131q0 -166 163 -166q77 0 134.5 28.5t77.5 82.5q-7 80 -65 207
q12 42 48 79q160 8 264 43z" />
    <glyph glyph-name="uniFC8E" unicode="&#xfee8;&#xfef0;" horiz-adv-x="752" arabic-form="final" 
d="M595 410q-37 30 -61 64q24 44 67 63q37 -29 60 -63q-37 -29 -66 -64zM620 191q0 -63 34.5 -85t96.5 -22q0 -46 -5 -65t-22 -19q-21 0 -41 3t-51 14t-50 39.5t-19 70.5q0 33 11 69q-61 3 -118.5 -29.5t-82.5 -91.5q18 -19 56.5 -35t70 -31t38.5 -36
q-22 -103 -100.5 -166.5t-183.5 -63.5q-40 0 -74.5 10t-64.5 31.5t-47.5 62t-17.5 95.5q0 110 61 194l8 -23q-20 -45 -20 -120q0 -53 14.5 -88.5t41.5 -51t51 -21t56 -5.5q175 0 227 95q-12 20 -77 43.5t-87 52.5q0 106 74 181.5t172 75.5q27 0 59 -8q-10 -43 -10 -76z" />
    <glyph glyph-name="uniFC8F" unicode="&#xfee8;&#xfef2;" horiz-adv-x="752" arabic-form="final" 
d="M595 410q-37 30 -61 64q24 44 67 63q37 -29 60 -63q-37 -29 -66 -64zM620 191q0 -63 34.5 -85t96.5 -22q0 -46 -5 -65t-22 -19q-21 0 -41 3t-51 14t-50 39.5t-19 70.5q0 33 11 69q-61 3 -118.5 -29.5t-82.5 -91.5q18 -19 56.5 -35t70 -31t38.5 -36
q-22 -103 -100.5 -166.5t-183.5 -63.5q-40 0 -74.5 10t-64.5 31.5t-47.5 62t-17.5 95.5q0 110 61 194l8 -23q-20 -45 -20 -120q0 -53 14.5 -88.5t41.5 -51t51 -21t56 -5.5q175 0 227 95q-12 20 -77 43.5t-87 52.5q0 106 74 181.5t172 75.5q27 0 59 -8q-10 -43 -10 -76z
M322 -343q37 -29 61 -69q-41 -28 -72 -56q-8 10 -27 31t-27 30q-21 -21 -63 -67q-23 18 -63 62q24 40 68 67q31 -25 51 -50q46 38 72 52z" />
    <glyph glyph-name="uniFC91" unicode="&#xfbff;&#xfeae;" horiz-adv-x="651" arabic-form="final" 
d="M493 192q-73 -25 -186 -34q32 -51 32 -139q0 -114 -51 -192.5t-151 -102.5q-89 18 -129 48l-3 14q127 -4 214 65t82 171q-24 57 -93 123q14 44 48 79q181 9 294 43q-12 -54 -12 -89q0 -56 28 -75t85 -19q0 -46 -5 -65t-22 -19q-20 0 -38 3t-45 13.5t-43.5 37t-16.5 66.5
q0 30 12 72zM580 -85q37 -29 61 -69q-41 -28 -72 -56q-8 10 -27 31t-27 30q-21 -21 -63 -67q-23 18 -63 62q24 40 68 67q31 -25 51 -50q46 38 72 52z" />
    <glyph glyph-name="uniFC92" unicode="&#xfbff;&#xfeb0;" horiz-adv-x="651" arabic-form="final" 
d="M177 309q-37 30 -61 64q24 44 67 63q37 -29 60 -63q-37 -29 -66 -64zM493 192q-73 -25 -186 -34q32 -51 32 -139q0 -114 -51 -192.5t-151 -102.5q-89 18 -129 48l-3 14q127 -4 214 65t82 171q-24 57 -93 123q14 44 48 79q181 9 294 43q-12 -54 -12 -89q0 -56 28 -75
t85 -19q0 -46 -5 -65t-22 -19q-20 0 -38 3t-45 13.5t-43.5 37t-16.5 66.5q0 30 12 72zM580 -85q37 -29 61 -69q-41 -28 -72 -56q-8 10 -27 31t-27 30q-21 -21 -63 -67q-23 18 -63 62q24 40 68 67q31 -25 51 -50q46 38 72 52z" />
    <glyph glyph-name="uniFC94" unicode="&#xfef4;&#xfee6;" horiz-adv-x="839" arabic-form="final" 
d="M294 255q-37 30 -61 64q24 44 67 63q37 -29 60 -63q-37 -29 -66 -64zM504 157q26 -75 31 -129q1 -71 -22 -127.5t-62.5 -90t-87 -50.5t-98.5 -17q-35 0 -67.5 10t-63.5 31t-49.5 61t-18.5 94q0 50 16.5 109.5t42.5 98.5l8 -23q-17 -73 -17 -131q0 -166 163 -166
q77 0 134.5 28.5t77.5 82.5q-7 80 -65 207q12 42 48 79q160 8 264 43q-11 -47 -12 -80.5t6 -53t23.5 -31t35.5 -15t48 -3.5q0 -46 -5 -65t-22 -19q-12 0 -23 1t-29.5 5t-32.5 11t-28.5 21.5t-22 34t-7 50t10.5 68.5q-72 -29 -176 -34zM769 -85q37 -29 61 -69
q-41 -28 -72 -56q-8 10 -27 31t-27 30q-21 -21 -63 -67q-23 18 -63 62q24 40 68 67q31 -25 51 -50q46 38 72 52z" />
    <glyph glyph-name="uniFC95" unicode="&#xfbff;&#xfbfd;" horiz-adv-x="752" arabic-form="final" 
d="M373 75q18 -19 56.5 -35t70 -31t38.5 -36q-22 -103 -100.5 -166.5t-183.5 -63.5q-40 0 -74.5 10t-64.5 31.5t-47.5 62t-17.5 95.5q0 110 61 194l8 -23q-20 -45 -20 -120q0 -53 14.5 -88.5t41.5 -51t51 -21t56 -5.5q175 0 227 95q-12 20 -77 43.5t-87 52.5q0 106 74 181.5
t172 75.5q27 0 59 -8q-10 -43 -10 -76q0 -63 34.5 -85t96.5 -22q0 -46 -5 -65t-22 -19q-21 0 -41 3t-51 14t-50 39.5t-19 70.5q0 33 11 69q-61 3 -118.5 -29.5t-82.5 -91.5zM686 -165q37 -29 61 -69q-41 -28 -72 -56q-8 10 -27 31t-27 30q-21 -21 -63 -67q-23 18 -63 62
q24 40 68 67q31 -25 51 -50q46 38 72 52z" />
    <glyph glyph-name="uniFC96" unicode="&#xfef4;&#xfef2;" horiz-adv-x="752" arabic-form="final" 
d="M373 75q18 -19 56.5 -35t70 -31t38.5 -36q-22 -103 -100.5 -166.5t-183.5 -63.5q-40 0 -74.5 10t-64.5 31.5t-47.5 62t-17.5 95.5q0 110 61 194l8 -23q-20 -45 -20 -120q0 -53 14.5 -88.5t41.5 -51t51 -21t56 -5.5q175 0 227 95q-12 20 -77 43.5t-87 52.5q0 106 74 181.5
t172 75.5q27 0 59 -8q-10 -43 -10 -76q0 -63 34.5 -85t96.5 -22q0 -46 -5 -65t-22 -19q-21 0 -41 3t-51 14t-50 39.5t-19 70.5q0 33 11 69q-61 3 -118.5 -29.5t-82.5 -91.5zM686 -165q37 -29 61 -69q-41 -28 -72 -56q-8 10 -27 31t-27 30q-21 -21 -63 -67q-23 18 -63 62
q24 40 68 67q31 -25 51 -50q46 38 72 52zM322 -343q37 -29 61 -69q-41 -28 -72 -56q-8 10 -27 31t-27 30q-21 -21 -63 -67q-23 18 -63 62q24 40 68 67q31 -25 51 -50q46 38 72 52z" />
    <glyph glyph-name="uniFC97" unicode="&#xfe8b;&#xfea0;" horiz-adv-x="621" arabic-form="initial" 
d="M295 592q0 27 67 67q-63 12 -63 69q0 34 21.5 53t54.5 19q24 0 37 -9q23 -21 27 -45q-30 11 -55 11q-33 0 -58 -20q10 -36 79 -36q35 0 78 13l4 1q-4 -31 -12 -43q-57 -16 -90.5 -35t-78.5 -61q-11 6 -11 16zM586 237l6 -9q-16 -37 -38 -65q-79 3 -245 -71
q-206 -92 -336 -92q-18 0 -18 27q0 31 8.5 44t36.5 13q51 0 109 12t94.5 24.5t97.5 35.5t80 30q-20 3 -60.5 11.5t-73 13t-64.5 4.5q-68 0 -97 -19l-14 4q37 95 138.5 174t184.5 79q27 0 45 -11q23 -31 43 -94l-10 -10q-36 41 -97 41q-38 0 -87.5 -21t-92.5 -71
q58 0 170.5 -26.5t174.5 -26.5q23 0 45 3zM259 -93q37 -29 60 -63q-37 -29 -66 -64q-37 30 -61 64q24 44 67 63z" />
    <glyph glyph-name="uniFC98" unicode="&#xfe8b;&#xfea4;" horiz-adv-x="621" arabic-form="initial" 
d="M295 592q0 27 67 67q-63 12 -63 69q0 34 21.5 53t54.5 19q24 0 37 -9q23 -21 27 -45q-30 11 -55 11q-33 0 -58 -20q10 -36 79 -36q35 0 78 13l4 1q-4 -31 -12 -43q-57 -16 -90.5 -35t-78.5 -61q-11 6 -11 16zM586 237l6 -9q-16 -37 -38 -65q-79 3 -245 -71
q-206 -92 -336 -92q-18 0 -18 27q0 31 8.5 44t36.5 13q51 0 109 12t94.5 24.5t97.5 35.5t80 30q-20 3 -60.5 11.5t-73 13t-64.5 4.5q-68 0 -97 -19l-14 4q37 95 138.5 174t184.5 79q27 0 45 -11q23 -31 43 -94l-10 -10q-36 41 -97 41q-38 0 -87.5 -21t-92.5 -71
q58 0 170.5 -26.5t174.5 -26.5q23 0 45 3z" />
    <glyph glyph-name="uniFC99" unicode="&#xfe8b;&#xfea8;" horiz-adv-x="621" arabic-form="initial" 
d="M295 592q0 27 67 67q-63 12 -63 69q0 34 21.5 53t54.5 19q24 0 37 -9q23 -21 27 -45q-30 11 -55 11q-33 0 -58 -20q10 -36 79 -36q35 0 78 13l4 1q-4 -31 -12 -43q-57 -16 -90.5 -35t-78.5 -61q-11 6 -11 16zM200 504q-37 30 -61 64q24 44 67 63q37 -29 60 -63
q-37 -29 -66 -64zM586 237l6 -9q-16 -37 -38 -65q-79 3 -245 -71q-206 -92 -336 -92q-18 0 -18 27q0 31 8.5 44t36.5 13q51 0 109 12t94.5 24.5t97.5 35.5t80 30q-20 3 -60.5 11.5t-73 13t-64.5 4.5q-68 0 -97 -19l-14 4q37 95 138.5 174t184.5 79q27 0 45 -11
q23 -31 43 -94l-10 -10q-36 41 -97 41q-38 0 -87.5 -21t-92.5 -71q58 0 170.5 -26.5t174.5 -26.5q23 0 45 3z" />
    <glyph glyph-name="uniFC9A" unicode="&#xfe8b;&#xfee4;" horiz-adv-x="566" arabic-form="initial" 
d="M281 416q0 27 67 67q-63 12 -63 69q0 34 21.5 53t54.5 19q24 0 37 -9q23 -21 27 -45q-30 11 -55 11q-33 0 -58 -20q10 -36 79 -36q35 0 78 13l4 1q-4 -31 -12 -43q-57 -16 -90.5 -35t-78.5 -61q-11 6 -11 16zM381 226q-20 0 -41.5 -3t-51 -11t-54 -26.5t-37.5 -45.5
q39 16 81 16q92 0 124 -87q0 -45 -14.5 -89.5t-49.5 -79t-83 -34.5q-104 0 -116 170q-86 -36 -166 -36q-18 0 -18 27q0 31 8.5 44t36.5 13q79 0 145 31q16 52 45 90.5t63.5 58t67.5 28.5t66 9q32 0 57 -8q40 -28 77 -89l-10 -10q-60 32 -130 32zM359 5q-13 66 -90 66
q-35 0 -82 -15q10 -106 79 -106q33 0 59 16t34 39z" />
    <glyph glyph-name="uniFC9C" unicode="&#xfe91;&#xfea0;" horiz-adv-x="621" arabic-form="initial" 
d="M586 237l6 -9q-16 -37 -38 -65q-79 3 -245 -71q-206 -92 -336 -92q-18 0 -18 27q0 31 8.5 44t36.5 13q51 0 109 12t94.5 24.5t97.5 35.5t80 30q-20 3 -60.5 11.5t-73 13t-64.5 4.5q-68 0 -97 -19l-14 4q37 95 138.5 174t184.5 79q27 0 45 -11q23 -31 43 -94l-10 -10
q-36 41 -97 41q-38 0 -87.5 -21t-92.5 -71q58 0 170.5 -26.5t174.5 -26.5q23 0 45 3zM448 21q37 -29 60 -63q-37 -29 -66 -64q-37 30 -61 64q24 44 67 63zM231 -79q37 -29 60 -63q-37 -29 -66 -64q-37 30 -61 64q24 44 67 63z" />
    <glyph glyph-name="uniFC9D" unicode="&#xfe91;&#xfea4;" horiz-adv-x="621" arabic-form="initial" 
d="M586 237l6 -9q-16 -37 -38 -65q-79 3 -245 -71q-206 -92 -336 -92q-18 0 -18 27q0 31 8.5 44t36.5 13q51 0 109 12t94.5 24.5t97.5 35.5t80 30q-20 3 -60.5 11.5t-73 13t-64.5 4.5q-68 0 -97 -19l-14 4q37 95 138.5 174t184.5 79q27 0 45 -11q23 -31 43 -94l-10 -10
q-36 41 -97 41q-38 0 -87.5 -21t-92.5 -71q58 0 170.5 -26.5t174.5 -26.5q23 0 45 3zM457 21q37 -29 60 -63q-37 -29 -66 -64q-37 30 -61 64q24 44 67 63z" />
    <glyph glyph-name="uniFC9E" unicode="&#xfe91;&#xfea8;" horiz-adv-x="621" arabic-form="initial" 
d="M200 504q-37 30 -61 64q24 44 67 63q37 -29 60 -63q-37 -29 -66 -64zM586 237l6 -9q-16 -37 -38 -65q-79 3 -245 -71q-206 -92 -336 -92q-18 0 -18 27q0 31 8.5 44t36.5 13q51 0 109 12t94.5 24.5t97.5 35.5t80 30q-20 3 -60.5 11.5t-73 13t-64.5 4.5q-68 0 -97 -19
l-14 4q37 95 138.5 174t184.5 79q27 0 45 -11q23 -31 43 -94l-10 -10q-36 41 -97 41q-38 0 -87.5 -21t-92.5 -71q58 0 170.5 -26.5t174.5 -26.5q23 0 45 3zM417 -33q37 -29 60 -63q-37 -29 -66 -64q-37 30 -61 64q24 44 67 63z" />
    <glyph glyph-name="uniFC9F" unicode="&#xfe91;&#xfee4;" horiz-adv-x="566" arabic-form="initial" 
d="M444 293q40 -28 77 -89l-10 -10q-60 32 -130 32q-20 0 -41.5 -3t-51 -11t-54 -26.5t-37.5 -45.5q39 16 81 16q92 0 124 -87q0 -45 -14.5 -89.5t-49.5 -79t-83 -34.5q-104 0 -116 170q-86 -36 -166 -36q-18 0 -18 27q0 31 8.5 44t36.5 13q79 0 145 31q16 52 45 90.5
t63.5 58t67.5 28.5t66 9q32 0 57 -8zM359 5q-13 66 -90 66q-35 0 -82 -15q10 -106 79 -106q33 0 59 16t34 39zM370 -182q37 -29 60 -63q-37 -29 -66 -64q-37 30 -61 64q24 44 67 63z" />
    <glyph glyph-name="uniFCA1" unicode="&#xfe97;&#xfea0;" horiz-adv-x="621" arabic-form="initial" 
d="M329 562q-23 18 -63 62q24 40 68 67q31 -25 51 -50q46 38 72 52q37 -29 61 -69q-41 -28 -72 -56q-8 10 -27 31t-27 30q-21 -21 -63 -67zM586 237l6 -9q-16 -37 -38 -65q-79 3 -245 -71q-206 -92 -336 -92q-18 0 -18 27q0 31 8.5 44t36.5 13q51 0 109 12t94.5 24.5
t97.5 35.5t80 30q-20 3 -60.5 11.5t-73 13t-64.5 4.5q-68 0 -97 -19l-14 4q37 95 138.5 174t184.5 79q27 0 45 -11q23 -31 43 -94l-10 -10q-36 41 -97 41q-38 0 -87.5 -21t-92.5 -71q58 0 170.5 -26.5t174.5 -26.5q23 0 45 3zM200 -133q37 -29 60 -63q-37 -29 -66 -64
q-37 30 -61 64q24 44 67 63z" />
    <glyph glyph-name="uniFCA2" unicode="&#xfe97;&#xfea4;" horiz-adv-x="621" arabic-form="initial" 
d="M329 562q-23 18 -63 62q24 40 68 67q31 -25 51 -50q46 38 72 52q37 -29 61 -69q-41 -28 -72 -56q-8 10 -27 31t-27 30q-21 -21 -63 -67zM586 237l6 -9q-16 -37 -38 -65q-79 3 -245 -71q-206 -92 -336 -92q-18 0 -18 27q0 31 8.5 44t36.5 13q51 0 109 12t94.5 24.5
t97.5 35.5t80 30q-20 3 -60.5 11.5t-73 13t-64.5 4.5q-68 0 -97 -19l-14 4q37 95 138.5 174t184.5 79q27 0 45 -11q23 -31 43 -94l-10 -10q-36 41 -97 41q-38 0 -87.5 -21t-92.5 -71q58 0 170.5 -26.5t174.5 -26.5q23 0 45 3z" />
    <glyph glyph-name="uniFCA3" unicode="&#xfe97;&#xfea8;" horiz-adv-x="621" arabic-form="initial" 
d="M329 612q-23 18 -63 62q24 40 68 67q31 -25 51 -50q46 38 72 52q37 -29 61 -69q-41 -28 -72 -56q-8 10 -27 31t-27 30q-21 -21 -63 -67zM200 504q-37 30 -61 64q24 44 67 63q37 -29 60 -63q-37 -29 -66 -64zM586 237l6 -9q-16 -37 -38 -65q-79 3 -245 -71
q-206 -92 -336 -92q-18 0 -18 27q0 31 8.5 44t36.5 13q51 0 109 12t94.5 24.5t97.5 35.5t80 30q-20 3 -60.5 11.5t-73 13t-64.5 4.5q-68 0 -97 -19l-14 4q37 95 138.5 174t184.5 79q27 0 45 -11q23 -31 43 -94l-10 -10q-36 41 -97 41q-38 0 -87.5 -21t-92.5 -71
q58 0 170.5 -26.5t174.5 -26.5q23 0 45 3z" />
    <glyph glyph-name="uniFCA4" unicode="&#xfe97;&#xfee4;" horiz-adv-x="566" arabic-form="initial" 
d="M315 390q-23 18 -63 62q24 40 68 67q31 -25 51 -50q46 38 72 52q37 -29 61 -69q-41 -28 -72 -56q-8 10 -27 31t-27 30q-21 -21 -63 -67zM381 226q-20 0 -41.5 -3t-51 -11t-54 -26.5t-37.5 -45.5q39 16 81 16q92 0 124 -87q0 -45 -14.5 -89.5t-49.5 -79t-83 -34.5
q-104 0 -116 170q-86 -36 -166 -36q-18 0 -18 27q0 31 8.5 44t36.5 13q79 0 145 31q16 52 45 90.5t63.5 58t67.5 28.5t66 9q32 0 57 -8q40 -28 77 -89l-10 -10q-60 32 -130 32zM359 5q-13 66 -90 66q-35 0 -82 -15q10 -106 79 -106q33 0 59 16t34 39z" />
    <glyph glyph-name="uniFCA6" unicode="&#xfe9b;&#xfee4;" horiz-adv-x="566" arabic-form="initial" 
d="M375 524q-37 30 -61 64q24 44 67 63q37 -29 60 -63q-37 -29 -66 -64zM320 390q-23 18 -63 62q24 40 68 67q31 -25 51 -50q46 38 72 52q37 -29 61 -69q-41 -28 -72 -56q-8 10 -27 31t-27 30q-21 -21 -63 -67zM381 226q-20 0 -41.5 -3t-51 -11t-54 -26.5t-37.5 -45.5
q39 16 81 16q92 0 124 -87q0 -45 -14.5 -89.5t-49.5 -79t-83 -34.5q-104 0 -116 170q-86 -36 -166 -36q-18 0 -18 27q0 31 8.5 44t36.5 13q79 0 145 31q16 52 45 90.5t63.5 58t67.5 28.5t66 9q32 0 57 -8q40 -28 77 -89l-10 -10q-60 32 -130 32zM359 5q-13 66 -90 66
q-35 0 -82 -15q10 -106 79 -106q33 0 59 16t34 39z" />
    <glyph glyph-name="uniFCCC" unicode="&#xfedf;&#xfee4;" horiz-adv-x="447" arabic-form="initial" 
d="M285 156q86 0 117 -87q0 -45 -14.5 -89.5t-49.5 -79t-83 -34.5q-108 0 -121 168q-79 -34 -161 -34q-18 0 -18 27q0 31 8.5 44t36.5 13q71 0 132 24q-7 330 -22 561q24 38 74 57q10 -110 45 -145q-24 -17 -44 -24q0 -48 1 -182t1 -243q54 24 98 24zM266 -50
q31 0 56.5 16.5t34.5 39.5q-13 65 -90 65q-37 0 -78 -15q10 -106 77 -106z" />
    <glyph glyph-name="uniFCD2" unicode="&#xfee7;&#xfea0;" horiz-adv-x="621" arabic-form="initial" 
d="M392 572q-37 30 -61 64q24 44 67 63q37 -29 60 -63q-37 -29 -66 -64zM586 237l6 -9q-16 -37 -38 -65q-79 3 -245 -71q-206 -92 -336 -92q-18 0 -18 27q0 31 8.5 44t36.5 13q51 0 109 12t94.5 24.5t97.5 35.5t80 30q-20 3 -60.5 11.5t-73 13t-64.5 4.5q-68 0 -97 -19
l-14 4q37 95 138.5 174t184.5 79q27 0 45 -11q23 -31 43 -94l-10 -10q-36 41 -97 41q-38 0 -87.5 -21t-92.5 -71q58 0 170.5 -26.5t174.5 -26.5q23 0 45 3zM200 -133q37 -29 60 -63q-37 -29 -66 -64q-37 30 -61 64q24 44 67 63z" />
    <glyph glyph-name="uniFCD3" unicode="&#xfee7;&#xfea4;" horiz-adv-x="621" arabic-form="initial" 
d="M392 572q-37 30 -61 64q24 44 67 63q37 -29 60 -63q-37 -29 -66 -64zM586 237l6 -9q-16 -37 -38 -65q-79 3 -245 -71q-206 -92 -336 -92q-18 0 -18 27q0 31 8.5 44t36.5 13q51 0 109 12t94.5 24.5t97.5 35.5t80 30q-20 3 -60.5 11.5t-73 13t-64.5 4.5q-68 0 -97 -19
l-14 4q37 95 138.5 174t184.5 79q27 0 45 -11q23 -31 43 -94l-10 -10q-36 41 -97 41q-38 0 -87.5 -21t-92.5 -71q58 0 170.5 -26.5t174.5 -26.5q23 0 45 3z" />
    <glyph glyph-name="uniFCD4" unicode="&#xfee7;&#xfea8;" horiz-adv-x="621" arabic-form="initial" 
d="M392 572q-37 30 -61 64q24 44 67 63q37 -29 60 -63q-37 -29 -66 -64zM200 504q-37 30 -61 64q24 44 67 63q37 -29 60 -63q-37 -29 -66 -64zM586 237l6 -9q-16 -37 -38 -65q-79 3 -245 -71q-206 -92 -336 -92q-18 0 -18 27q0 31 8.5 44t36.5 13q51 0 109 12t94.5 24.5
t97.5 35.5t80 30q-20 3 -60.5 11.5t-73 13t-64.5 4.5q-68 0 -97 -19l-14 4q37 95 138.5 174t184.5 79q27 0 45 -11q23 -31 43 -94l-10 -10q-36 41 -97 41q-38 0 -87.5 -21t-92.5 -71q58 0 170.5 -26.5t174.5 -26.5q23 0 45 3z" />
    <glyph glyph-name="uniFCD5" unicode="&#xfee7;&#xfee4;" horiz-adv-x="566" arabic-form="initial" 
d="M378 400q-37 30 -61 64q24 44 67 63q37 -29 60 -63q-37 -29 -66 -64zM381 226q-20 0 -41.5 -3t-51 -11t-54 -26.5t-37.5 -45.5q39 16 81 16q92 0 124 -87q0 -45 -14.5 -89.5t-49.5 -79t-83 -34.5q-104 0 -116 170q-86 -36 -166 -36q-18 0 -18 27q0 31 8.5 44t36.5 13
q79 0 145 31q16 52 45 90.5t63.5 58t67.5 28.5t66 9q32 0 57 -8q40 -28 77 -89l-10 -10q-60 32 -130 32zM359 5q-13 66 -90 66q-35 0 -82 -15q10 -106 79 -106q33 0 59 16t34 39z" />
    <glyph glyph-name="uniFCDA" unicode="&#xfbfe;&#xfea0;" horiz-adv-x="621" arabic-form="initial" 
d="M586 237l6 -9q-16 -37 -38 -65q-79 3 -245 -71q-206 -92 -336 -92q-18 0 -18 27q0 31 8.5 44t36.5 13q51 0 109 12t94.5 24.5t97.5 35.5t80 30q-20 3 -60.5 11.5t-73 13t-64.5 4.5q-68 0 -97 -19l-14 4q37 95 138.5 174t184.5 79q27 0 45 -11q23 -31 43 -94l-10 -10
q-36 41 -97 41q-38 0 -87.5 -21t-92.5 -71q58 0 170.5 -26.5t174.5 -26.5q23 0 45 3zM486 -27q37 -29 61 -69q-41 -28 -72 -56q-8 10 -27 31t-27 30q-21 -21 -63 -67q-23 18 -63 62q24 40 68 67q31 -25 51 -50q46 38 72 52zM200 -133q37 -29 60 -63q-37 -29 -66 -64
q-37 30 -61 64q24 44 67 63z" />
    <glyph glyph-name="uniFCDB" unicode="&#xfbfe;&#xfea4;" horiz-adv-x="621" arabic-form="initial" 
d="M586 237l6 -9q-16 -37 -38 -65q-79 3 -245 -71q-206 -92 -336 -92q-18 0 -18 27q0 31 8.5 44t36.5 13q51 0 109 12t94.5 24.5t97.5 35.5t80 30q-20 3 -60.5 11.5t-73 13t-64.5 4.5q-68 0 -97 -19l-14 4q37 95 138.5 174t184.5 79q27 0 45 -11q23 -31 43 -94l-10 -10
q-36 41 -97 41q-38 0 -87.5 -21t-92.5 -71q58 0 170.5 -26.5t174.5 -26.5q23 0 45 3zM486 -27q37 -29 61 -69q-41 -28 -72 -56q-8 10 -27 31t-27 30q-21 -21 -63 -67q-23 18 -63 62q24 40 68 67q31 -25 51 -50q46 38 72 52z" />
    <glyph glyph-name="uniFCDC" unicode="&#xfbfe;&#xfea8;" horiz-adv-x="621" arabic-form="initial" 
d="M200 504q-37 30 -61 64q24 44 67 63q37 -29 60 -63q-37 -29 -66 -64zM586 237l6 -9q-16 -37 -38 -65q-79 3 -245 -71q-206 -92 -336 -92q-18 0 -18 27q0 31 8.5 44t36.5 13q51 0 109 12t94.5 24.5t97.5 35.5t80 30q-20 3 -60.5 11.5t-73 13t-64.5 4.5q-68 0 -97 -19
l-14 4q37 95 138.5 174t184.5 79q27 0 45 -11q23 -31 43 -94l-10 -10q-36 41 -97 41q-38 0 -87.5 -21t-92.5 -71q58 0 170.5 -26.5t174.5 -26.5q23 0 45 3zM486 -27q37 -29 61 -69q-41 -28 -72 -56q-8 10 -27 31t-27 30q-21 -21 -63 -67q-23 18 -63 62q24 40 68 67
q31 -25 51 -50q46 38 72 52z" />
    <glyph glyph-name="uniFCDD" unicode="&#xfbfe;&#xfee4;" horiz-adv-x="566" arabic-form="initial" 
d="M444 293q40 -28 77 -89l-10 -10q-60 32 -130 32q-20 0 -41.5 -3t-51 -11t-54 -26.5t-37.5 -45.5q39 16 81 16q92 0 124 -87q0 -45 -14.5 -89.5t-49.5 -79t-83 -34.5q-104 0 -116 170q-86 -36 -166 -36q-18 0 -18 27q0 31 8.5 44t36.5 13q79 0 145 31q16 52 45 90.5
t63.5 58t67.5 28.5t66 9q32 0 57 -8zM359 5q-13 66 -90 66q-35 0 -82 -15q10 -106 79 -106q33 0 59 16t34 39zM439 -176q37 -29 61 -69q-41 -28 -72 -56q-8 10 -27 31t-27 30q-21 -21 -63 -67q-23 18 -63 62q24 40 68 67q31 -25 51 -50q46 38 72 52z" />
    <glyph glyph-name="uniFCFB" unicode="&#xfeb3;&#xfef0;" horiz-adv-x="1054" arabic-form="isolated" 
d="M994 285q15 -27 15 -90q0 -104 -45 -149.5t-103 -45.5q-46 0 -77 25.5t-31 58.5q-9 -18 -15.5 -29t-19.5 -25.5t-31 -22t-41 -7.5q-99 0 -94 135q-15 12 -53 12q-39 0 -74.5 -17.5t-51.5 -54.5q18 -19 56.5 -35t70 -31t38.5 -36q-22 -103 -100.5 -166.5t-183.5 -63.5
q-40 0 -74.5 10t-64.5 31.5t-47.5 62t-17.5 95.5q0 110 61 194l8 -23q-20 -45 -20 -120q0 -53 14.5 -88.5t41.5 -51t51 -21t56 -5.5q175 0 227 95q-12 20 -77 43.5t-87 52.5q0 92 67 147t147 55q37 0 67 -14q-1 -8 -1 -24q0 -98 63 -98q34 0 62.5 37t43.5 92l30 10
q-1 -32 1.5 -55t11 -43t25.5 -30.5t43 -10.5q46 0 73 23q1 3 1 11q0 56 -22 102q13 37 57 65z" />
    <glyph glyph-name="uniFCFC" unicode="&#xfeb3;&#xfef2;" horiz-adv-x="1054" arabic-form="isolated" 
d="M994 285q15 -27 15 -90q0 -104 -45 -149.5t-103 -45.5q-46 0 -77 25.5t-31 58.5q-9 -18 -15.5 -29t-19.5 -25.5t-31 -22t-41 -7.5q-99 0 -94 135q-15 12 -53 12q-39 0 -74.5 -17.5t-51.5 -54.5q18 -19 56.5 -35t70 -31t38.5 -36q-22 -103 -100.5 -166.5t-183.5 -63.5
q-40 0 -74.5 10t-64.5 31.5t-47.5 62t-17.5 95.5q0 110 61 194l8 -23q-20 -45 -20 -120q0 -53 14.5 -88.5t41.5 -51t51 -21t56 -5.5q175 0 227 95q-12 20 -77 43.5t-87 52.5q0 92 67 147t147 55q37 0 67 -14q-1 -8 -1 -24q0 -98 63 -98q34 0 62.5 37t43.5 92l30 10
q-1 -32 1.5 -55t11 -43t25.5 -30.5t43 -10.5q46 0 73 23q1 3 1 11q0 56 -22 102q13 37 57 65zM322 -343q37 -29 61 -69q-41 -28 -72 -56q-8 10 -27 31t-27 30q-21 -21 -63 -67q-23 18 -63 62q24 40 68 67q31 -25 51 -50q46 38 72 52z" />
    <glyph glyph-name="uniFCFD" unicode="&#xfeb7;&#xfef0;" horiz-adv-x="1054" arabic-form="isolated" 
d="M786 473q-37 30 -61 64q24 44 67 63q37 -29 60 -63q-37 -29 -66 -64zM731 339q-23 18 -63 62q24 40 68 67q31 -25 51 -50q46 38 72 52q37 -29 61 -69q-41 -28 -72 -56q-8 10 -27 31t-27 30q-21 -21 -63 -67zM994 285q15 -27 15 -90q0 -104 -45 -149.5t-103 -45.5
q-46 0 -77 25.5t-31 58.5q-9 -18 -15.5 -29t-19.5 -25.5t-31 -22t-41 -7.5q-99 0 -94 135q-15 12 -53 12q-39 0 -74.5 -17.5t-51.5 -54.5q18 -19 56.5 -35t70 -31t38.5 -36q-22 -103 -100.5 -166.5t-183.5 -63.5q-40 0 -74.5 10t-64.5 31.5t-47.5 62t-17.5 95.5
q0 110 61 194l8 -23q-20 -45 -20 -120q0 -53 14.5 -88.5t41.5 -51t51 -21t56 -5.5q175 0 227 95q-12 20 -77 43.5t-87 52.5q0 92 67 147t147 55q37 0 67 -14q-1 -8 -1 -24q0 -98 63 -98q34 0 62.5 37t43.5 92l30 10q-1 -32 1.5 -55t11 -43t25.5 -30.5t43 -10.5q46 0 73 23
q1 3 1 11q0 56 -22 102q13 37 57 65z" />
    <glyph glyph-name="uniFCFE" unicode="&#xfeb7;&#xfef2;" horiz-adv-x="1054" arabic-form="isolated" 
d="M786 473q-37 30 -61 64q24 44 67 63q37 -29 60 -63q-37 -29 -66 -64zM731 339q-23 18 -63 62q24 40 68 67q31 -25 51 -50q46 38 72 52q37 -29 61 -69q-41 -28 -72 -56q-8 10 -27 31t-27 30q-21 -21 -63 -67zM994 285q15 -27 15 -90q0 -104 -45 -149.5t-103 -45.5
q-46 0 -77 25.5t-31 58.5q-9 -18 -15.5 -29t-19.5 -25.5t-31 -22t-41 -7.5q-99 0 -94 135q-15 12 -53 12q-39 0 -74.5 -17.5t-51.5 -54.5q18 -19 56.5 -35t70 -31t38.5 -36q-22 -103 -100.5 -166.5t-183.5 -63.5q-40 0 -74.5 10t-64.5 31.5t-47.5 62t-17.5 95.5
q0 110 61 194l8 -23q-20 -45 -20 -120q0 -53 14.5 -88.5t41.5 -51t51 -21t56 -5.5q175 0 227 95q-12 20 -77 43.5t-87 52.5q0 92 67 147t147 55q37 0 67 -14q-1 -8 -1 -24q0 -98 63 -98q34 0 62.5 37t43.5 92l30 10q-1 -32 1.5 -55t11 -43t25.5 -30.5t43 -10.5q46 0 73 23
q1 3 1 11q0 56 -22 102q13 37 57 65zM322 -343q37 -29 61 -69q-41 -28 -72 -56q-8 10 -27 31t-27 30q-21 -21 -63 -67q-23 18 -63 62q24 40 68 67q31 -25 51 -50q46 38 72 52z" />
    <glyph glyph-name="uniFD05" unicode="&#xfebb;&#xfef0;" horiz-adv-x="1199" arabic-form="isolated" 
d="M1006 342q62 0 102.5 -30.5t40.5 -83.5q0 -81 -99 -182q-104 -51 -250 -51q-219 0 -248 140q-15 11 -50 12.5t-74 -16.5t-55 -56q18 -19 56.5 -35t70 -31t38.5 -36q-22 -103 -100.5 -166.5t-183.5 -63.5q-40 0 -74.5 10t-64.5 31.5t-47.5 62t-17.5 95.5q0 110 61 194
l8 -23q-20 -45 -20 -120q0 -53 14.5 -88.5t41.5 -51t51 -21t56 -5.5q175 0 227 95q-12 20 -77 43.5t-87 52.5q0 48 20 87.5t52 64t69.5 38t74.5 13t65 -14.5q12 -55 53 -86q62 85 156 153.5t191 68.5zM1099 144q14 49 -20 82t-105 33q-147 0 -279 -158q54 -22 148 -22
q162 0 256 65z" />
    <glyph glyph-name="uniFD06" unicode="&#xfebb;&#xfef2;" horiz-adv-x="1199" arabic-form="isolated" 
d="M1006 342q62 0 102.5 -30.5t40.5 -83.5q0 -81 -99 -182q-104 -51 -250 -51q-219 0 -248 140q-15 11 -50 12.5t-74 -16.5t-55 -56q18 -19 56.5 -35t70 -31t38.5 -36q-22 -103 -100.5 -166.5t-183.5 -63.5q-40 0 -74.5 10t-64.5 31.5t-47.5 62t-17.5 95.5q0 110 61 194
l8 -23q-20 -45 -20 -120q0 -53 14.5 -88.5t41.5 -51t51 -21t56 -5.5q175 0 227 95q-12 20 -77 43.5t-87 52.5q0 48 20 87.5t52 64t69.5 38t74.5 13t65 -14.5q12 -55 53 -86q62 85 156 153.5t191 68.5zM1099 144q14 49 -20 82t-105 33q-147 0 -279 -158q54 -22 148 -22
q162 0 256 65zM322 -343q37 -29 61 -69q-41 -28 -72 -56q-8 10 -27 31t-27 30q-21 -21 -63 -67q-23 18 -63 62q24 40 68 67q31 -25 51 -50q46 38 72 52z" />
    <glyph glyph-name="uniFD07" unicode="&#xfebf;&#xfef0;" horiz-adv-x="1199" arabic-form="isolated" 
d="M933 482q-37 30 -61 64q24 44 67 63q37 -29 60 -63q-37 -29 -66 -64zM1006 342q62 0 102.5 -30.5t40.5 -83.5q0 -81 -99 -182q-104 -51 -250 -51q-219 0 -248 140q-15 11 -50 12.5t-74 -16.5t-55 -56q18 -19 56.5 -35t70 -31t38.5 -36q-22 -103 -100.5 -166.5
t-183.5 -63.5q-40 0 -74.5 10t-64.5 31.5t-47.5 62t-17.5 95.5q0 110 61 194l8 -23q-20 -45 -20 -120q0 -53 14.5 -88.5t41.5 -51t51 -21t56 -5.5q175 0 227 95q-12 20 -77 43.5t-87 52.5q0 48 20 87.5t52 64t69.5 38t74.5 13t65 -14.5q12 -55 53 -86q62 85 156 153.5
t191 68.5zM1099 144q14 49 -20 82t-105 33q-147 0 -279 -158q54 -22 148 -22q162 0 256 65z" />
    <glyph glyph-name="uniFD08" unicode="&#xfebf;&#xfef2;" horiz-adv-x="1199" arabic-form="isolated" 
d="M933 482q-37 30 -61 64q24 44 67 63q37 -29 60 -63q-37 -29 -66 -64zM1006 342q62 0 102.5 -30.5t40.5 -83.5q0 -81 -99 -182q-104 -51 -250 -51q-219 0 -248 140q-15 11 -50 12.5t-74 -16.5t-55 -56q18 -19 56.5 -35t70 -31t38.5 -36q-22 -103 -100.5 -166.5
t-183.5 -63.5q-40 0 -74.5 10t-64.5 31.5t-47.5 62t-17.5 95.5q0 110 61 194l8 -23q-20 -45 -20 -120q0 -53 14.5 -88.5t41.5 -51t51 -21t56 -5.5q175 0 227 95q-12 20 -77 43.5t-87 52.5q0 48 20 87.5t52 64t69.5 38t74.5 13t65 -14.5q12 -55 53 -86q62 85 156 153.5
t191 68.5zM1099 144q14 49 -20 82t-105 33q-147 0 -279 -158q54 -22 148 -22q162 0 256 65zM322 -343q37 -29 61 -69q-41 -28 -72 -56q-8 10 -27 31t-27 30q-21 -21 -63 -67q-23 18 -63 62q24 40 68 67q31 -25 51 -50q46 38 72 52z" />
    <glyph glyph-name="uniFD0D" unicode="&#xfeb7;&#xfeae;" horiz-adv-x="966" arabic-form="isolated" 
d="M699 473q-37 30 -61 64q24 44 67 63q37 -29 60 -63q-37 -29 -66 -64zM644 339q-23 18 -63 62q24 40 68 67q31 -25 51 -50q46 38 72 52q37 -29 61 -69q-41 -28 -72 -56q-8 10 -27 31t-27 30q-21 -21 -63 -67zM906 285q15 -27 15 -90q0 -104 -45 -149.5t-103 -45.5
q-46 0 -77 25.5t-31 58.5q-9 -18 -15.5 -29t-19 -25.5t-29.5 -22t-38 -7.5q-43 0 -73.5 30t-30.5 80q0 28 9 51q-76 -21 -159 -24q30 -47 30 -125q0 -109 -51 -186.5t-151 -101.5q-89 18 -129 48l-3 14q127 -4 214 65t82 171q-24 49 -93 103q14 44 48 79q168 6 274 28
q-18 -48 -18 -80q0 -34 16.5 -51t43.5 -17q39 0 69 36.5t45 92.5l30 10q-1 -32 1.5 -55t11 -43t25.5 -30.5t43 -10.5q46 0 73 23q1 3 1 11q0 56 -22 102q13 37 57 65z" />
    <glyph glyph-name="uniFD0E" unicode="&#xfeb3;&#xfeae;" horiz-adv-x="966" arabic-form="isolated" 
d="M906 285q15 -27 15 -90q0 -104 -45 -149.5t-103 -45.5q-46 0 -77 25.5t-31 58.5q-9 -18 -15.5 -29t-19 -25.5t-29.5 -22t-38 -7.5q-43 0 -73.5 30t-30.5 80q0 28 9 51q-76 -21 -159 -24q30 -47 30 -125q0 -109 -51 -186.5t-151 -101.5q-89 18 -129 48l-3 14
q127 -4 214 65t82 171q-24 49 -93 103q14 44 48 79q168 6 274 28q-18 -48 -18 -80q0 -34 16.5 -51t43.5 -17q39 0 69 36.5t45 92.5l30 10q-1 -32 1.5 -55t11 -43t25.5 -30.5t43 -10.5q46 0 73 23q1 3 1 11q0 56 -22 102q13 37 57 65z" />
    <glyph glyph-name="uniFD0F" unicode="&#xfebb;&#xfeae;" horiz-adv-x="1156" arabic-form="isolated" 
d="M963 342q62 0 102.5 -30.5t40.5 -83.5q0 -81 -99 -182q-104 -51 -250 -51q-103 0 -168 32q-59 -90 -81 -142q-30 -6 -2 64q21 54 52 97q-59 42 -78 119q-81 -25 -171 -28q30 -47 30 -125q0 -109 -51 -186.5t-151 -101.5q-89 18 -129 48l-3 14q127 -4 214 65t82 171
q-24 49 -93 103q14 44 48 79q168 6 274 28q24 -76 81 -112q43 53 91.5 98.5t121 84.5t139.5 39zM1056 144q14 49 -20 82t-105 33q-141 0 -285 -157q58 -23 154 -23q162 0 256 65z" />
    <glyph glyph-name="uniFD10" unicode="&#xfebf;&#xfeae;" horiz-adv-x="1156" arabic-form="isolated" 
d="M889 482q-37 30 -61 64q24 44 67 63q37 -29 60 -63q-37 -29 -66 -64zM963 342q62 0 102.5 -30.5t40.5 -83.5q0 -81 -99 -182q-104 -51 -250 -51q-103 0 -168 32q-59 -90 -81 -142q-30 -6 -2 64q21 54 52 97q-59 42 -78 119q-81 -25 -171 -28q30 -47 30 -125
q0 -109 -51 -186.5t-151 -101.5q-89 18 -129 48l-3 14q127 -4 214 65t82 171q-24 49 -93 103q14 44 48 79q168 6 274 28q24 -76 81 -112q43 53 91.5 98.5t121 84.5t139.5 39zM1056 144q14 49 -20 82t-105 33q-141 0 -285 -157q58 -23 154 -23q162 0 256 65z" />
    <glyph glyph-name="uniFD17" unicode="&#xfeb4;&#xfef0;" horiz-adv-x="1083" arabic-form="final" 
d="M983 181q0 -61 25 -79t75 -18q0 -47 -4.5 -65.5t-22.5 -18.5q-52 0 -80.5 17t-38.5 62q-35 -79 -100 -79q-39 0 -61.5 25t-22.5 59q-41 -84 -111 -84q-42 0 -66.5 30t-24.5 83q0 14 1 22q-15 12 -53 12q-39 0 -74.5 -17.5t-51.5 -54.5q18 -19 56.5 -35t70 -31t38.5 -36
q-22 -103 -100.5 -166.5t-183.5 -63.5q-40 0 -74.5 10t-64.5 31.5t-47.5 62t-17.5 95.5q0 110 61 194l8 -23q-20 -45 -20 -120q0 -53 14.5 -88.5t41.5 -51t51 -21t56 -5.5q175 0 227 95q-12 20 -77 43.5t-87 52.5q0 92 67 147t147 55q37 0 67 -14q-2 -22 -2 -33
q0 -40 15 -64.5t43 -24.5q37 0 67 37t45 92l30 10q-4 -23 -4 -49q0 -90 55 -90q21 0 38.5 15t29.5 43.5t18.5 49t13.5 50.5l35 10q-7 -39 -7 -71z" />
    <glyph glyph-name="uniFD18" unicode="&#xfeb4;&#xfef2;" horiz-adv-x="1083" arabic-form="final" 
d="M983 181q0 -61 25 -79t75 -18q0 -47 -4.5 -65.5t-22.5 -18.5q-52 0 -80.5 17t-38.5 62q-35 -79 -100 -79q-39 0 -61.5 25t-22.5 59q-41 -84 -111 -84q-42 0 -66.5 30t-24.5 83q0 14 1 22q-15 12 -53 12q-39 0 -74.5 -17.5t-51.5 -54.5q18 -19 56.5 -35t70 -31t38.5 -36
q-22 -103 -100.5 -166.5t-183.5 -63.5q-40 0 -74.5 10t-64.5 31.5t-47.5 62t-17.5 95.5q0 110 61 194l8 -23q-20 -45 -20 -120q0 -53 14.5 -88.5t41.5 -51t51 -21t56 -5.5q175 0 227 95q-12 20 -77 43.5t-87 52.5q0 92 67 147t147 55q37 0 67 -14q-2 -22 -2 -33
q0 -40 15 -64.5t43 -24.5q37 0 67 37t45 92l30 10q-4 -23 -4 -49q0 -90 55 -90q21 0 38.5 15t29.5 43.5t18.5 49t13.5 50.5l35 10q-7 -39 -7 -71zM319 -342q37 -29 61 -69q-41 -28 -72 -56q-8 10 -27 31t-27 30q-21 -21 -63 -67q-23 18 -63 62q24 40 68 67q31 -25 51 -50
q46 38 72 52z" />
    <glyph glyph-name="uniFD19" unicode="&#xfeb8;&#xfef0;" horiz-adv-x="1083" arabic-form="final" 
d="M786 473q-37 30 -61 64q24 44 67 63q37 -29 60 -63q-37 -29 -66 -64zM731 339q-23 18 -63 62q24 40 68 67q31 -25 51 -50q46 38 72 52q37 -29 61 -69q-41 -28 -72 -56q-8 10 -27 31t-27 30q-21 -21 -63 -67zM983 181q0 -61 25 -79t75 -18q0 -47 -4.5 -65.5t-22.5 -18.5
q-52 0 -80.5 17t-38.5 62q-35 -79 -100 -79q-39 0 -61.5 25t-22.5 59q-41 -84 -111 -84q-42 0 -66.5 30t-24.5 83q0 14 1 22q-15 12 -53 12q-39 0 -74.5 -17.5t-51.5 -54.5q18 -19 56.5 -35t70 -31t38.5 -36q-22 -103 -100.5 -166.5t-183.5 -63.5q-40 0 -74.5 10t-64.5 31.5
t-47.5 62t-17.5 95.5q0 110 61 194l8 -23q-20 -45 -20 -120q0 -53 14.5 -88.5t41.5 -51t51 -21t56 -5.5q175 0 227 95q-12 20 -77 43.5t-87 52.5q0 92 67 147t147 55q37 0 67 -14q-2 -22 -2 -33q0 -40 15 -64.5t43 -24.5q37 0 67 37t45 92l30 10q-4 -23 -4 -49q0 -90 55 -90
q21 0 38.5 15t29.5 43.5t18.5 49t13.5 50.5l35 10q-7 -39 -7 -71z" />
    <glyph glyph-name="uniFD1A" unicode="&#xfeb8;&#xfef2;" horiz-adv-x="1083" arabic-form="final" 
d="M786 473q-37 30 -61 64q24 44 67 63q37 -29 60 -63q-37 -29 -66 -64zM731 339q-23 18 -63 62q24 40 68 67q31 -25 51 -50q46 38 72 52q37 -29 61 -69q-41 -28 -72 -56q-8 10 -27 31t-27 30q-21 -21 -63 -67zM983 181q0 -61 25 -79t75 -18q0 -47 -4.5 -65.5t-22.5 -18.5
q-52 0 -80.5 17t-38.5 62q-35 -79 -100 -79q-39 0 -61.5 25t-22.5 59q-41 -84 -111 -84q-42 0 -66.5 30t-24.5 83q0 14 1 22q-15 12 -53 12q-39 0 -74.5 -17.5t-51.5 -54.5q18 -19 56.5 -35t70 -31t38.5 -36q-22 -103 -100.5 -166.5t-183.5 -63.5q-40 0 -74.5 10t-64.5 31.5
t-47.5 62t-17.5 95.5q0 110 61 194l8 -23q-20 -45 -20 -120q0 -53 14.5 -88.5t41.5 -51t51 -21t56 -5.5q175 0 227 95q-12 20 -77 43.5t-87 52.5q0 92 67 147t147 55q37 0 67 -14q-2 -22 -2 -33q0 -40 15 -64.5t43 -24.5q37 0 67 37t45 92l30 10q-4 -23 -4 -49q0 -90 55 -90
q21 0 38.5 15t29.5 43.5t18.5 49t13.5 50.5l35 10q-7 -39 -7 -71zM319 -342q37 -29 61 -69q-41 -28 -72 -56q-8 10 -27 31t-27 30q-21 -21 -63 -67q-23 18 -63 62q24 40 68 67q31 -25 51 -50q46 38 72 52z" />
    <glyph glyph-name="uniFD21" unicode="&#xfebc;&#xfef0;" horiz-adv-x="1221" arabic-form="final" 
d="M1094 97q52 -13 127 -13q0 -58 -4 -71t-23 -13q-106 0 -166 36q-105 -41 -228 -41q-219 0 -248 140q-15 11 -50 12.5t-74 -16.5t-55 -56q18 -19 56.5 -35t70 -31t38.5 -36q-22 -103 -100.5 -166.5t-183.5 -63.5q-40 0 -74.5 10t-64.5 31.5t-47.5 62t-17.5 95.5
q0 110 61 194l8 -23q-20 -45 -20 -120q0 -53 14.5 -88.5t41.5 -51t51 -21t56 -5.5q175 0 227 95q-12 20 -77 43.5t-87 52.5q0 48 20 87.5t52 64t69.5 38t74.5 13t65 -14.5q12 -55 53 -86q62 85 156 153.5t191 68.5q62 0 102.5 -30.5t40.5 -83.5q0 -59 -55 -131zM695 101
q54 -22 148 -22q162 0 256 65q14 49 -20 82t-105 33q-147 0 -279 -158z" />
    <glyph glyph-name="uniFD22" unicode="&#xfebc;&#xfef2;" horiz-adv-x="1221" arabic-form="final" 
d="M1094 97q52 -13 127 -13q0 -58 -4 -71t-23 -13q-106 0 -166 36q-105 -41 -228 -41q-219 0 -248 140q-15 11 -50 12.5t-74 -16.5t-55 -56q18 -19 56.5 -35t70 -31t38.5 -36q-22 -103 -100.5 -166.5t-183.5 -63.5q-40 0 -74.5 10t-64.5 31.5t-47.5 62t-17.5 95.5
q0 110 61 194l8 -23q-20 -45 -20 -120q0 -53 14.5 -88.5t41.5 -51t51 -21t56 -5.5q175 0 227 95q-12 20 -77 43.5t-87 52.5q0 48 20 87.5t52 64t69.5 38t74.5 13t65 -14.5q12 -55 53 -86q62 85 156 153.5t191 68.5q62 0 102.5 -30.5t40.5 -83.5q0 -59 -55 -131zM695 101
q54 -22 148 -22q162 0 256 65q14 49 -20 82t-105 33q-147 0 -279 -158zM322 -343q37 -29 61 -69q-41 -28 -72 -56q-8 10 -27 31t-27 30q-21 -21 -63 -67q-23 18 -63 62q24 40 68 67q31 -25 51 -50q46 38 72 52z" />
    <glyph glyph-name="uniFD23" unicode="&#xfec0;&#xfef0;" horiz-adv-x="1221" arabic-form="final" 
d="M933 482q-37 30 -61 64q24 44 67 63q37 -29 60 -63q-37 -29 -66 -64zM1094 97q52 -13 127 -13q0 -58 -4 -71t-23 -13q-106 0 -166 36q-105 -41 -228 -41q-219 0 -248 140q-15 11 -50 12.5t-74 -16.5t-55 -56q18 -19 56.5 -35t70 -31t38.5 -36q-22 -103 -100.5 -166.5
t-183.5 -63.5q-40 0 -74.5 10t-64.5 31.5t-47.5 62t-17.5 95.5q0 110 61 194l8 -23q-20 -45 -20 -120q0 -53 14.5 -88.5t41.5 -51t51 -21t56 -5.5q175 0 227 95q-12 20 -77 43.5t-87 52.5q0 48 20 87.5t52 64t69.5 38t74.5 13t65 -14.5q12 -55 53 -86q62 85 156 153.5
t191 68.5q62 0 102.5 -30.5t40.5 -83.5q0 -59 -55 -131zM695 101q54 -22 148 -22q162 0 256 65q14 49 -20 82t-105 33q-147 0 -279 -158z" />
    <glyph glyph-name="uniFD24" unicode="&#xfec0;&#xfef2;" horiz-adv-x="1221" arabic-form="final" 
d="M933 482q-37 30 -61 64q24 44 67 63q37 -29 60 -63q-37 -29 -66 -64zM1094 97q52 -13 127 -13q0 -58 -4 -71t-23 -13q-106 0 -166 36q-105 -41 -228 -41q-219 0 -248 140q-15 11 -50 12.5t-74 -16.5t-55 -56q18 -19 56.5 -35t70 -31t38.5 -36q-22 -103 -100.5 -166.5
t-183.5 -63.5q-40 0 -74.5 10t-64.5 31.5t-47.5 62t-17.5 95.5q0 110 61 194l8 -23q-20 -45 -20 -120q0 -53 14.5 -88.5t41.5 -51t51 -21t56 -5.5q175 0 227 95q-12 20 -77 43.5t-87 52.5q0 48 20 87.5t52 64t69.5 38t74.5 13t65 -14.5q12 -55 53 -86q62 85 156 153.5
t191 68.5q62 0 102.5 -30.5t40.5 -83.5q0 -59 -55 -131zM695 101q54 -22 148 -22q162 0 256 65q14 49 -20 82t-105 33q-147 0 -279 -158zM322 -343q37 -29 61 -69q-41 -28 -72 -56q-8 10 -27 31t-27 30q-21 -21 -63 -67q-23 18 -63 62q24 40 68 67q31 -25 51 -50
q46 38 72 52z" />
    <glyph glyph-name="uniFD29" unicode="&#xfeb8;&#xfeae;" horiz-adv-x="995" arabic-form="final" 
d="M698 473q-37 30 -61 64q24 44 67 63q37 -29 60 -63q-37 -29 -66 -64zM643 339q-23 18 -63 62q24 40 68 67q31 -25 51 -50q46 38 72 52q37 -29 61 -69q-41 -28 -72 -56q-8 10 -27 31t-27 30q-21 -21 -63 -67zM895 181q0 -61 25 -79t75 -18q0 -47 -4.5 -65.5t-22.5 -18.5
q-52 0 -80.5 17t-38.5 62q-35 -79 -100 -79q-39 0 -61.5 25t-22.5 59q-2 -3 -9 -15.5t-10 -17t-10.5 -15t-14 -15t-16.5 -10.5t-21.5 -8.5t-24.5 -2.5q-42 0 -71 25.5t-29 79.5q0 23 7 56q-71 -21 -157 -24q30 -47 30 -125q0 -109 -51 -186.5t-151 -101.5q-89 18 -129 48
l-3 14q127 -4 214 65t82 171q-24 49 -93 103q14 44 48 79q168 6 274 28q-13 -32 -13 -62q0 -38 17.5 -62t45.5 -24q34 0 62.5 37t43.5 92l30 10q-4 -23 -4 -49q0 -90 55 -90q21 0 38.5 15t29.5 43.5t18.5 49t13.5 50.5l35 10q-7 -39 -7 -71z" />
    <glyph glyph-name="uniFD2A" unicode="&#xfeb4;&#xfeae;" horiz-adv-x="995" arabic-form="final" 
d="M895 181q0 -61 25 -79t75 -18q0 -47 -4.5 -65.5t-22.5 -18.5q-52 0 -80.5 17t-38.5 62q-35 -79 -100 -79q-39 0 -61.5 25t-22.5 59q-2 -3 -9 -15.5t-10 -17t-10.5 -15t-14 -15t-16.5 -10.5t-21.5 -8.5t-24.5 -2.5q-42 0 -71 25.5t-29 79.5q0 23 7 56q-71 -21 -157 -24
q30 -47 30 -125q0 -109 -51 -186.5t-151 -101.5q-89 18 -129 48l-3 14q127 -4 214 65t82 171q-24 49 -93 103q14 44 48 79q168 6 274 28q-13 -32 -13 -62q0 -38 17.5 -62t45.5 -24q34 0 62.5 37t43.5 92l30 10q-4 -23 -4 -49q0 -90 55 -90q21 0 38.5 15t29.5 43.5t18.5 49
t13.5 50.5l35 10q-7 -39 -7 -71z" />
    <glyph glyph-name="uniFD2B" unicode="&#xfebc;&#xfeae;" horiz-adv-x="1178" arabic-form="final" 
d="M1051 97q52 -13 127 -13q0 -58 -4 -71t-23 -13q-106 0 -166 36q-105 -41 -228 -41q-103 0 -168 32q-59 -90 -81 -142q-30 -6 -2 64q21 54 52 97q-59 42 -78 119q-81 -25 -171 -28q30 -47 30 -125q0 -109 -51 -186.5t-151 -101.5q-89 18 -129 48l-3 14q127 -4 214 65
t82 171q-24 49 -93 103q14 44 48 79q168 6 274 28q24 -76 81 -112q43 53 91.5 98.5t121 84.5t139.5 39q62 0 102.5 -30.5t40.5 -83.5q0 -59 -55 -131zM646 102q58 -23 154 -23q162 0 256 65q14 49 -20 82t-105 33q-141 0 -285 -157z" />
    <glyph glyph-name="uniFD2C" unicode="&#xfec0;&#xfeae;" horiz-adv-x="1178" arabic-form="final" 
d="M889 482q-37 30 -61 64q24 44 67 63q37 -29 60 -63q-37 -29 -66 -64zM1051 97q52 -13 127 -13q0 -58 -4 -71t-23 -13q-106 0 -166 36q-105 -41 -228 -41q-103 0 -168 32q-59 -90 -81 -142q-30 -6 -2 64q21 54 52 97q-59 42 -78 119q-81 -25 -171 -28q30 -47 30 -125
q0 -109 -51 -186.5t-151 -101.5q-89 18 -129 48l-3 14q127 -4 214 65t82 171q-24 49 -93 103q14 44 48 79q168 6 274 28q24 -76 81 -112q43 53 91.5 98.5t121 84.5t139.5 39q62 0 102.5 -30.5t40.5 -83.5q0 -59 -55 -131zM646 102q58 -23 154 -23q162 0 256 65q14 49 -20 82
t-105 33q-141 0 -285 -157z" />
    <glyph glyph-name="uniFDF2" unicode="&#x627;&#xfedf;&#xfee0;&#xfeea;" horiz-adv-x="1032" arabic-form="isolated" 
d="M480 793q7 36 7 80q0 73 -19 129q14 20 39 26q16 -52 16 -101t-13 -86.5t-30 -47.5zM421 571q-34 0 -34 68q0 28 7.5 45.5t19.5 13.5q2 -70 27 -70q30 0 39 94l25 15q1 -25 10 -46t22 -21q11 0 19.5 16t8.5 45q0 17 -3 38l26 16q7 -33 7 -62q0 -46 -17 -78t-50 -32
q-34 0 -41 36q-2 -24 -23 -51t-43 -27zM961 726q-2 -369 6 -595q-20 -92 -42 -144l-13 -5q-7 321 -31 683q29 46 80 61zM660 554q24 38 74 57q3 -214 12 -403q-11 -106 -56 -157t-106 -51q-56 0 -84 46q-34 -46 -86 -46q-81 0 -124 111q-65 -45 -135 -45q-86 0 -115 76
q3 58 58.5 113t147.5 89l-3 59q13 24 61 47q0 -66 7 -129t21.5 -117t40.5 -87t59 -33q24 0 46 19q-13 51 -13 138q0 135 -9 219q27 44 79 61q-5 -136 -5 -217q0 -61 4.5 -103.5t11 -65t18.5 -34.5t21 -14.5t23 -2.5q40 0 57 12.5t29 40.5q-13 235 -34 417zM186 150
q38 0 86 17q-12 47 -22 134q-105 -45 -142 -127q33 -24 78 -24z" />
    <glyph glyph-name="uniFEF5" unicode="&#xfedf;&#xfe82;" horiz-adv-x="533" arabic-form="isolated" 
d="M124 709q-54 0 -103 54q-32 -16 -55 -42q-10 3 -10 13q0 19 28 45t57 26q22 0 50 -25t51 -25q20 0 43.5 10t34.5 30h3q7 0 7 -7q0 -20 -31.5 -49.5t-74.5 -29.5zM452 553q-22 -147 -63 -264q47 -100 52 -164q-4 -48 -38 -109q-17 -10 -60 -18t-86 -8q-72 0 -118 22
q6 44 23 88q113 0 180 174q-82 136 -198 208v-27q-76 22 -109 99q2 14 13 33t25 25q172 -65 290 -274q24 84 30.5 178t-4.5 153q24 38 74 57q10 -110 45 -145q-32 -22 -56 -28zM409 94q-6 61 -43 137q-51 -113 -113 -156q10 -1 32 -1q71 0 124 20z" />
    <glyph glyph-name="uniFEF6" unicode="&#xfee0;&#xfe82;" horiz-adv-x="637" arabic-form="final" 
d="M138 679q-54 0 -103 54q-32 -16 -55 -42q-10 3 -10 13q0 19 28 45t57 26q22 0 50 -25t51 -25q20 0 43.5 10t34.5 30h3q7 0 7 -7q0 -20 -31.5 -49.5t-74.5 -29.5zM526 137q32 -53 111 -53q0 -49 -4.5 -66.5t-22.5 -17.5q-76 0 -103 43t-31 149q-45 -177 -233 -230
q-102 3 -159 26l-6 14q212 26 312 143q-18 97 -84.5 189.5t-161.5 148.5v-28q-76 22 -109 99q2 14 13 33t25 25q74 -28 138 -80.5t106 -113t68.5 -120.5t35.5 -112q34 55 52 119q-6 226 -23 360q27 44 79 61q0 -319 -3 -589z" />
    <glyph glyph-name="uniFEF7" unicode="&#xfedf;&#xfe84;" horiz-adv-x="533" arabic-form="isolated" 
d="M190 800q-4 -31 -12 -43q-57 -16 -90.5 -35t-78.5 -61q-11 5 -11 16q0 27 67 67q-63 12 -63 69q0 34 21.5 53t54.5 19q24 0 37 -9q23 -21 27 -45q-30 11 -55 11q-33 0 -58 -20q10 -36 79 -36q35 0 78 13zM452 553q-22 -147 -63 -264q47 -100 52 -164q-4 -48 -38 -109
q-17 -10 -60 -18t-86 -8q-72 0 -118 22q6 44 23 88q113 0 180 174q-82 136 -198 208v-27q-76 22 -109 99q2 14 13 33t25 25q172 -65 290 -274q24 84 30.5 178t-4.5 153q24 38 74 57q10 -110 45 -145q-32 -22 -56 -28zM409 94q-6 61 -43 137q-51 -113 -113 -156q10 -1 32 -1
q71 0 124 20z" />
    <glyph glyph-name="uniFEF8" unicode="&#xfee0;&#xfe84;" horiz-adv-x="637" arabic-form="final" 
d="M204 770q-4 -31 -12 -43q-57 -16 -90.5 -35t-78.5 -61q-11 5 -11 16q0 27 67 67q-63 12 -63 69q0 34 21.5 53t54.5 19q24 0 37 -9q23 -21 27 -45q-30 11 -55 11q-33 0 -58 -20q10 -36 79 -36q35 0 78 13zM526 137q32 -53 111 -53q0 -49 -4.5 -66.5t-22.5 -17.5
q-76 0 -103 43t-31 149q-45 -177 -233 -230q-102 3 -159 26l-6 14q212 26 312 143q-18 97 -84.5 189.5t-161.5 148.5v-28q-76 22 -109 99q2 14 13 33t25 25q74 -28 138 -80.5t106 -113t68.5 -120.5t35.5 -112q34 55 52 119q-6 226 -23 360q27 44 79 61q0 -319 -3 -589z" />
    <glyph glyph-name="uniFEF9" unicode="&#xfedf;&#xfe88;" horiz-adv-x="533" arabic-form="isolated" 
d="M452 553q-22 -147 -63 -264q47 -100 52 -164q-4 -48 -38 -109q-17 -10 -60 -18t-86 -8q-72 0 -118 22q6 44 23 88q113 0 180 174q-82 136 -198 208v-27q-76 22 -109 99q2 14 13 33t25 25q172 -65 290 -274q24 84 30.5 178t-4.5 153q24 38 74 57q10 -110 45 -145
q-32 -22 -56 -28zM409 94q-6 61 -43 137q-51 -113 -113 -156q10 -1 32 -1q71 0 124 20zM155 -152q5 -16 27.5 -27t55.5 -11q38 0 87 15q-2 -28 -12 -46q-61 -17 -96 -36.5t-83 -64.5q-12 6 -12 17q0 30 72 71q-68 12 -68 73q0 36 23 56t58 20q27 0 39 -9q24 -22 28 -48
q-34 12 -58 12q-34 0 -61 -22z" />
    <glyph glyph-name="uniFEFA" unicode="&#xfee0;&#xfe88;" horiz-adv-x="637" arabic-form="final" 
d="M526 137q32 -53 111 -53q0 -49 -4.5 -66.5t-22.5 -17.5q-76 0 -103 43t-31 149q-45 -177 -233 -230q-102 3 -159 26l-6 14q212 26 312 143q-18 97 -84.5 189.5t-161.5 148.5v-28q-76 22 -109 99q2 14 13 33t25 25q74 -28 138 -80.5t106 -113t68.5 -120.5t35.5 -112
q34 55 52 119q-6 226 -23 360q27 44 79 61q0 -319 -3 -589zM134 -178q5 -16 27.5 -27t55.5 -11q37 0 87 15q-2 -28 -12 -46q-61 -17 -96 -36.5t-83 -64.5q-12 6 -12 17q0 30 72 71q-68 12 -68 73q0 36 23 56t58 20q27 0 39 -9q24 -22 28 -48q-35 12 -58 12q-33 0 -61 -22z
" />
    <glyph glyph-name="uniFEFB" unicode="&#xfedf;&#xfe8e;" horiz-adv-x="533" arabic-form="isolated" 
d="M452 553q-22 -147 -63 -264q47 -100 52 -164q-4 -48 -38 -109q-17 -10 -60 -18t-86 -8q-72 0 -118 22q6 44 23 88q113 0 180 174q-82 136 -198 208v-27q-76 22 -109 99q2 14 13 33t25 25q172 -65 290 -274q24 84 30.5 178t-4.5 153q24 38 74 57q10 -110 45 -145
q-32 -22 -56 -28zM409 94q-6 61 -43 137q-51 -113 -113 -156q10 -1 32 -1q71 0 124 20z" />
    <glyph glyph-name="uniFEFC" unicode="&#xfee0;&#xfe8e;" horiz-adv-x="637" arabic-form="final" 
d="M526 137q32 -53 111 -53q0 -49 -4.5 -66.5t-22.5 -17.5q-76 0 -103 43t-31 149q-45 -177 -233 -230q-102 3 -159 26l-6 14q212 26 312 143q-18 97 -84.5 189.5t-161.5 148.5v-28q-76 22 -109 99q2 14 13 33t25 25q74 -28 138 -80.5t106 -113t68.5 -120.5t35.5 -112
q34 55 52 119q-6 226 -23 360q27 44 79 61q0 -319 -3 -589z" />
    <glyph glyph-name="uniFE91FE92FEAE" unicode="&#xfe91;&#xfe92;&#xfeae;" 
d="M835 168q-23 -89 -83.5 -128.5t-128.5 -39.5q-133 0 -133 157q0 9 2 37q-79 -27 -185 -36q32 -51 32 -139q0 -114 -51 -192.5t-151 -102.5q-89 18 -129 48l-3 14q127 -4 214 65t82 171q-24 57 -93 123q14 44 48 79q161 8 293 43q-4 -27 -4 -55q0 -128 109 -128
q96 0 131 48q1 30 -11 78t-33 87q10 33 58 81q36 -89 36 -210zM733 -80q37 -29 60 -63q-37 -29 -66 -64q-37 30 -61 64q24 44 67 63zM486 -141q37 -29 60 -63q-37 -29 -66 -64q-37 30 -61 64q24 44 67 63z" />
    <glyph glyph-name="uniFE91FE92FEB0" unicode="&#xfe91;&#xfe92;&#xfeb0;" 
d="M167 319q-37 30 -61 64q24 44 67 63q37 -29 60 -63q-37 -29 -66 -64zM835 168q-23 -89 -83.5 -128.5t-128.5 -39.5q-133 0 -133 157q0 9 2 37q-79 -27 -185 -36q32 -51 32 -139q0 -114 -51 -192.5t-151 -102.5q-89 18 -129 48l-3 14q127 -4 214 65t82 171q-24 57 -93 123
q14 44 48 79q161 8 293 43q-4 -27 -4 -55q0 -128 109 -128q96 0 131 48q1 30 -11 78t-33 87q10 33 58 81q36 -89 36 -210zM733 -80q37 -29 60 -63q-37 -29 -66 -64q-37 30 -61 64q24 44 67 63zM486 -141q37 -29 60 -63q-37 -29 -66 -64q-37 30 -61 64q24 44 67 63z" />
    <glyph glyph-name="uniFE91FE92FB8D" unicode="&#xfe91;&#xfe92;&#xfb8d;" horiz-adv-x="870" 
d="M25 492q51 -14 102 -17q11 18 22 33q-3 92 -22 165q18 18 43 23q7 -40 7 -141v-14q40 38 74 38q27 0 43 -20.5t16 -51.5q0 -28 -22 -55q-48 -27 -154 -27h-3q-17 -29 -26 -51q-15 -3 -15 13q0 14 11 39q-30 5 -32 6q-25 15 -44 60zM243 528q-43 0 -82 -54h9q78 0 112 16
q1 3 1 9q0 29 -40 29zM835 168q-23 -89 -83.5 -128.5t-128.5 -39.5q-133 0 -133 157q0 9 2 37q-79 -27 -185 -36q32 -51 32 -139q0 -114 -51 -192.5t-151 -102.5q-89 18 -129 48l-3 14q127 -4 214 65t82 171q-24 57 -93 123q14 44 48 79q161 8 293 43q-4 -27 -4 -55
q0 -128 109 -128q96 0 131 48q1 30 -11 78t-33 87q10 33 58 81q36 -89 36 -210zM733 -80q37 -29 60 -63q-37 -29 -66 -64q-37 30 -61 64q24 44 67 63zM486 -141q37 -29 60 -63q-37 -29 -66 -64q-37 30 -61 64q24 44 67 63z" />
    <glyph glyph-name="uniFE91FE92FB8B" unicode="&#xfe91;&#xfe92;&#xfb8b;" 
d="M164 443q-37 30 -61 64q24 44 67 63q37 -29 60 -63q-37 -29 -66 -64zM109 309q-23 18 -63 62q24 40 68 67q31 -25 51 -50q46 38 72 52q37 -29 61 -69q-41 -28 -72 -56q-8 10 -27 31t-27 30q-21 -21 -63 -67zM835 168q-23 -89 -83.5 -128.5t-128.5 -39.5q-133 0 -133 157
q0 9 2 37q-79 -27 -185 -36q32 -51 32 -139q0 -114 -51 -192.5t-151 -102.5q-89 18 -129 48l-3 14q127 -4 214 65t82 171q-24 57 -93 123q14 44 48 79q161 8 293 43q-4 -27 -4 -55q0 -128 109 -128q96 0 131 48q1 30 -11 78t-33 87q10 33 58 81q36 -89 36 -210zM733 -80
q37 -29 60 -63q-37 -29 -66 -64q-37 30 -61 64q24 44 67 63zM486 -141q37 -29 60 -63q-37 -29 -66 -64q-37 30 -61 64q24 44 67 63z" />
    <glyph glyph-name="uniFE91FE92FEE6" unicode="&#xfe91;&#xfe92;&#xfee6;" horiz-adv-x="1089" 
d="M294 255q-37 30 -61 64q24 44 67 63q37 -29 60 -63q-37 -29 -66 -64zM1024 168q-23 -89 -83.5 -128.5t-128.5 -39.5q-148 0 -131 191q-73 -29 -177 -34q26 -75 31 -129q1 -71 -22 -127.5t-62.5 -90t-87 -50.5t-98.5 -17q-35 0 -67.5 10t-63.5 31t-49.5 61t-18.5 94
q0 50 16.5 109.5t42.5 98.5l8 -23q-17 -73 -17 -131q0 -166 163 -166q77 0 134.5 28.5t77.5 82.5q-7 80 -65 207q12 42 48 79q160 8 264 43q-25 -183 105 -183q96 0 131 48q1 30 -11 78t-33 87q10 33 58 81q36 -89 36 -210zM922 -80q37 -29 60 -63q-37 -29 -66 -64
q-37 30 -61 64q24 44 67 63zM675 -141q37 -29 60 -63q-37 -29 -66 -64q-37 30 -61 64q24 44 67 63z" />
    <glyph glyph-name="uniFE91FB59FEAE" unicode="&#xfe91;&#xfb59;&#xfeae;" 
d="M492 194q-79 -27 -185 -36q32 -51 32 -139q0 -114 -51 -192.5t-151 -102.5q-89 18 -129 48l-3 14q127 -4 214 65t82 171q-24 57 -93 123q14 44 48 79q161 8 293 43q-4 -27 -4 -55q0 -128 109 -128q96 0 131 48q1 30 -11 78t-33 87q10 33 58 81q36 -89 36 -210
q-23 -89 -83.5 -128.5t-128.5 -39.5q-133 0 -133 157q0 9 2 37zM733 -80q37 -29 60 -63q-37 -29 -66 -64q-37 30 -61 64q24 44 67 63zM597 -190q37 -29 61 -69q-41 -28 -72 -56q-8 10 -27 31t-27 30q-21 -21 -63 -67q-23 18 -63 62q24 40 68 67q31 -25 51 -50q46 38 72 52z
M533 -323q37 -29 60 -63q-37 -29 -66 -64q-37 30 -61 64q24 44 67 63z" />
    <glyph glyph-name="uniFE91FB59FEB0" unicode="&#xfe91;&#xfb59;&#xfeb0;" 
d="M167 319q-37 30 -61 64q24 44 67 63q37 -29 60 -63q-37 -29 -66 -64zM492 194q-79 -27 -185 -36q32 -51 32 -139q0 -114 -51 -192.5t-151 -102.5q-89 18 -129 48l-3 14q127 -4 214 65t82 171q-24 57 -93 123q14 44 48 79q161 8 293 43q-4 -27 -4 -55q0 -128 109 -128
q96 0 131 48q1 30 -11 78t-33 87q10 33 58 81q36 -89 36 -210q-23 -89 -83.5 -128.5t-128.5 -39.5q-133 0 -133 157q0 9 2 37zM733 -80q37 -29 60 -63q-37 -29 -66 -64q-37 30 -61 64q24 44 67 63zM597 -190q37 -29 61 -69q-41 -28 -72 -56q-8 10 -27 31t-27 30
q-21 -21 -63 -67q-23 18 -63 62q24 40 68 67q31 -25 51 -50q46 38 72 52zM533 -323q37 -29 60 -63q-37 -29 -66 -64q-37 30 -61 64q24 44 67 63z" />
    <glyph glyph-name="uniFE91FB59FB8D" unicode="&#xfe91;&#xfb59;&#xfb8d;" horiz-adv-x="870" 
d="M25 492q51 -14 102 -17q11 18 22 33q-3 92 -22 165q18 18 43 23q7 -40 7 -141v-14q40 38 74 38q27 0 43 -20.5t16 -51.5q0 -28 -22 -55q-48 -27 -154 -27h-3q-17 -29 -26 -51q-15 -3 -15 13q0 14 11 39q-30 5 -32 6q-25 15 -44 60zM243 528q-43 0 -82 -54h9q78 0 112 16
q1 3 1 9q0 29 -40 29zM835 168q-23 -89 -83.5 -128.5t-128.5 -39.5q-133 0 -133 157q0 9 2 37q-79 -27 -185 -36q32 -51 32 -139q0 -114 -51 -192.5t-151 -102.5q-89 18 -129 48l-3 14q127 -4 214 65t82 171q-24 57 -93 123q14 44 48 79q161 8 293 43q-4 -27 -4 -55
q0 -128 109 -128q96 0 131 48q1 30 -11 78t-33 87q10 33 58 81q36 -89 36 -210zM733 -80q37 -29 60 -63q-37 -29 -66 -64q-37 30 -61 64q24 44 67 63zM521 -190q37 -29 61 -69q-41 -28 -72 -56q-8 10 -27 31t-27 30q-21 -21 -63 -67q-23 18 -63 62q24 40 68 67
q31 -25 51 -50q46 38 72 52zM457 -323q37 -29 60 -63q-37 -29 -66 -64q-37 30 -61 64q24 44 67 63z" />
    <glyph glyph-name="uniFE91FB59FB8B" unicode="&#xfe91;&#xfb59;&#xfb8b;" 
d="M164 443q-37 30 -61 64q24 44 67 63q37 -29 60 -63q-37 -29 -66 -64zM109 309q-23 18 -63 62q24 40 68 67q31 -25 51 -50q46 38 72 52q37 -29 61 -69q-41 -28 -72 -56q-8 10 -27 31t-27 30q-21 -21 -63 -67zM492 194q-79 -27 -185 -36q32 -51 32 -139q0 -114 -51 -192.5
t-151 -102.5q-89 18 -129 48l-3 14q127 -4 214 65t82 171q-24 57 -93 123q14 44 48 79q161 8 293 43q-4 -27 -4 -55q0 -128 109 -128q96 0 131 48q1 30 -11 78t-33 87q10 33 58 81q36 -89 36 -210q-23 -89 -83.5 -128.5t-128.5 -39.5q-133 0 -133 157q0 9 2 37zM733 -80
q37 -29 60 -63q-37 -29 -66 -64q-37 30 -61 64q24 44 67 63zM597 -190q37 -29 61 -69q-41 -28 -72 -56q-8 10 -27 31t-27 30q-21 -21 -63 -67q-23 18 -63 62q24 40 68 67q31 -25 51 -50q46 38 72 52zM533 -323q37 -29 60 -63q-37 -29 -66 -64q-37 30 -61 64q24 44 67 63z
" />
    <glyph glyph-name="uniFE91FB59FEE6" unicode="&#xfe91;&#xfb59;&#xfee6;" horiz-adv-x="1089" 
d="M294 255q-37 30 -61 64q24 44 67 63q37 -29 60 -63q-37 -29 -66 -64zM1024 168q-23 -89 -83.5 -128.5t-128.5 -39.5q-148 0 -131 191q-73 -29 -177 -34q26 -75 31 -129q1 -71 -22 -127.5t-62.5 -90t-87 -50.5t-98.5 -17q-35 0 -67.5 10t-63.5 31t-49.5 61t-18.5 94
q0 50 16.5 109.5t42.5 98.5l8 -23q-17 -73 -17 -131q0 -166 163 -166q77 0 134.5 28.5t77.5 82.5q-7 80 -65 207q12 42 48 79q160 8 264 43q-25 -183 105 -183q96 0 131 48q1 30 -11 78t-33 87q10 33 58 81q36 -89 36 -210zM922 -80q37 -29 60 -63q-37 -29 -66 -64
q-37 30 -61 64q24 44 67 63zM745 -135q37 -29 61 -69q-41 -28 -72 -56q-8 10 -27 31t-27 30q-21 -21 -63 -67q-23 18 -63 62q24 40 68 67q31 -25 51 -50q46 38 72 52zM681 -268q37 -29 60 -63q-37 -29 -66 -64q-37 30 -61 64q24 44 67 63z" />
    <glyph glyph-name="uniFE91FE98FEAE" unicode="&#xfe91;&#xfe98;&#xfeae;" 
d="M418 400q-23 18 -63 62q24 40 68 67q31 -25 51 -50q46 38 72 52q37 -29 61 -69q-41 -28 -72 -56q-8 10 -27 31t-27 30q-21 -21 -63 -67zM835 168q-23 -89 -83.5 -128.5t-128.5 -39.5q-133 0 -133 157q0 9 2 37q-79 -27 -185 -36q32 -51 32 -139q0 -114 -51 -192.5
t-151 -102.5q-89 18 -129 48l-3 14q127 -4 214 65t82 171q-24 57 -93 123q14 44 48 79q161 8 293 43q-4 -27 -4 -55q0 -128 109 -128q96 0 131 48q1 30 -11 78t-33 87q10 33 58 81q36 -89 36 -210zM733 -80q37 -29 60 -63q-37 -29 -66 -64q-37 30 -61 64q24 44 67 63z" />
    <glyph glyph-name="uniFE91FE98FEB0" unicode="&#xfe91;&#xfe98;&#xfeb0;" 
d="M418 400q-23 18 -63 62q24 40 68 67q31 -25 51 -50q46 38 72 52q37 -29 61 -69q-41 -28 -72 -56q-8 10 -27 31t-27 30q-21 -21 -63 -67zM167 319q-37 30 -61 64q24 44 67 63q37 -29 60 -63q-37 -29 -66 -64zM835 168q-23 -89 -83.5 -128.5t-128.5 -39.5q-133 0 -133 157
q0 9 2 37q-79 -27 -185 -36q32 -51 32 -139q0 -114 -51 -192.5t-151 -102.5q-89 18 -129 48l-3 14q127 -4 214 65t82 171q-24 57 -93 123q14 44 48 79q161 8 293 43q-4 -27 -4 -55q0 -128 109 -128q96 0 131 48q1 30 -11 78t-33 87q10 33 58 81q36 -89 36 -210zM733 -80
q37 -29 60 -63q-37 -29 -66 -64q-37 30 -61 64q24 44 67 63z" />
    <glyph glyph-name="uniFE91FE98FB8D" unicode="&#xfe91;&#xfe98;&#xfb8d;" horiz-adv-x="870" 
d="M25 492q51 -14 102 -17q11 18 22 33q-3 92 -22 165q18 18 43 23q7 -40 7 -141v-14q40 38 74 38q27 0 43 -20.5t16 -51.5q0 -28 -22 -55q-48 -27 -154 -27h-3q-17 -29 -26 -51q-15 -3 -15 13q0 14 11 39q-30 5 -32 6q-25 15 -44 60zM418 400q-23 18 -63 62q24 40 68 67
q31 -25 51 -50q46 38 72 52q37 -29 61 -69q-41 -28 -72 -56q-8 10 -27 31t-27 30q-21 -21 -63 -67zM243 528q-43 0 -82 -54h9q78 0 112 16q1 3 1 9q0 29 -40 29zM835 168q-23 -89 -83.5 -128.5t-128.5 -39.5q-133 0 -133 157q0 9 2 37q-79 -27 -185 -36q32 -51 32 -139
q0 -114 -51 -192.5t-151 -102.5q-89 18 -129 48l-3 14q127 -4 214 65t82 171q-24 57 -93 123q14 44 48 79q161 8 293 43q-4 -27 -4 -55q0 -128 109 -128q96 0 131 48q1 30 -11 78t-33 87q10 33 58 81q36 -89 36 -210zM733 -80q37 -29 60 -63q-37 -29 -66 -64q-37 30 -61 64
q24 44 67 63z" />
    <glyph glyph-name="uniFE91FE98FB8B" unicode="&#xfe91;&#xfe98;&#xfb8b;" 
d="M164 443q-37 30 -61 64q24 44 67 63q37 -29 60 -63q-37 -29 -66 -64zM418 400q-23 18 -63 62q24 40 68 67q31 -25 51 -50q46 38 72 52q37 -29 61 -69q-41 -28 -72 -56q-8 10 -27 31t-27 30q-21 -21 -63 -67zM109 309q-23 18 -63 62q24 40 68 67q31 -25 51 -50
q46 38 72 52q37 -29 61 -69q-41 -28 -72 -56q-8 10 -27 31t-27 30q-21 -21 -63 -67zM835 168q-23 -89 -83.5 -128.5t-128.5 -39.5q-133 0 -133 157q0 9 2 37q-79 -27 -185 -36q32 -51 32 -139q0 -114 -51 -192.5t-151 -102.5q-89 18 -129 48l-3 14q127 -4 214 65t82 171
q-24 57 -93 123q14 44 48 79q161 8 293 43q-4 -27 -4 -55q0 -128 109 -128q96 0 131 48q1 30 -11 78t-33 87q10 33 58 81q36 -89 36 -210zM733 -80q37 -29 60 -63q-37 -29 -66 -64q-37 30 -61 64q24 44 67 63z" />
    <glyph glyph-name="uniFE91FE98FEE6" unicode="&#xfe91;&#xfe98;&#xfee6;" horiz-adv-x="1089" 
d="M607 400q-23 18 -63 62q24 40 68 67q31 -25 51 -50q46 38 72 52q37 -29 61 -69q-41 -28 -72 -56q-8 10 -27 31t-27 30q-21 -21 -63 -67zM294 255q-37 30 -61 64q24 44 67 63q37 -29 60 -63q-37 -29 -66 -64zM1024 168q-23 -89 -83.5 -128.5t-128.5 -39.5q-148 0 -131 191
q-73 -29 -177 -34q26 -75 31 -129q1 -71 -22 -127.5t-62.5 -90t-87 -50.5t-98.5 -17q-35 0 -67.5 10t-63.5 31t-49.5 61t-18.5 94q0 50 16.5 109.5t42.5 98.5l8 -23q-17 -73 -17 -131q0 -166 163 -166q77 0 134.5 28.5t77.5 82.5q-7 80 -65 207q12 42 48 79q160 8 264 43
q-25 -183 105 -183q96 0 131 48q1 30 -11 78t-33 87q10 33 58 81q36 -89 36 -210zM922 -80q37 -29 60 -63q-37 -29 -66 -64q-37 30 -61 64q24 44 67 63z" />
    <glyph glyph-name="uniFE91FE9CFEAE" unicode="&#xfe91;&#xfe9c;&#xfeae;" 
d="M478 534q-37 30 -61 64q24 44 67 63q37 -29 60 -63q-37 -29 -66 -64zM423 400q-23 18 -63 62q24 40 68 67q31 -25 51 -50q46 38 72 52q37 -29 61 -69q-41 -28 -72 -56q-8 10 -27 31t-27 30q-21 -21 -63 -67zM835 168q-23 -89 -83.5 -128.5t-128.5 -39.5q-133 0 -133 157
q0 9 2 37q-79 -27 -185 -36q32 -51 32 -139q0 -114 -51 -192.5t-151 -102.5q-89 18 -129 48l-3 14q127 -4 214 65t82 171q-24 57 -93 123q14 44 48 79q161 8 293 43q-4 -27 -4 -55q0 -128 109 -128q96 0 131 48q1 30 -11 78t-33 87q10 33 58 81q36 -89 36 -210zM733 -80
q37 -29 60 -63q-37 -29 -66 -64q-37 30 -61 64q24 44 67 63z" />
    <glyph glyph-name="uniFE91FE9CFEB0" unicode="&#xfe91;&#xfe9c;&#xfeb0;" 
d="M478 534q-37 30 -61 64q24 44 67 63q37 -29 60 -63q-37 -29 -66 -64zM423 400q-23 18 -63 62q24 40 68 67q31 -25 51 -50q46 38 72 52q37 -29 61 -69q-41 -28 -72 -56q-8 10 -27 31t-27 30q-21 -21 -63 -67zM167 319q-37 30 -61 64q24 44 67 63q37 -29 60 -63
q-37 -29 -66 -64zM835 168q-23 -89 -83.5 -128.5t-128.5 -39.5q-133 0 -133 157q0 9 2 37q-79 -27 -185 -36q32 -51 32 -139q0 -114 -51 -192.5t-151 -102.5q-89 18 -129 48l-3 14q127 -4 214 65t82 171q-24 57 -93 123q14 44 48 79q161 8 293 43q-4 -27 -4 -55
q0 -128 109 -128q96 0 131 48q1 30 -11 78t-33 87q10 33 58 81q36 -89 36 -210zM733 -80q37 -29 60 -63q-37 -29 -66 -64q-37 30 -61 64q24 44 67 63z" />
    <glyph glyph-name="uniFE91FE9CFB8D" unicode="&#xfe91;&#xfe9c;&#xfb8d;" horiz-adv-x="870" 
d="M25 492q51 -14 102 -17q11 18 22 33q-3 92 -22 165q18 18 43 23q7 -40 7 -141v-14q40 38 74 38q27 0 43 -20.5t16 -51.5q0 -28 -22 -55q-48 -27 -154 -27h-3q-17 -29 -26 -51q-15 -3 -15 13q0 14 11 39q-30 5 -32 6q-25 15 -44 60zM478 534q-37 30 -61 64q24 44 67 63
q37 -29 60 -63q-37 -29 -66 -64zM423 400q-23 18 -63 62q24 40 68 67q31 -25 51 -50q46 38 72 52q37 -29 61 -69q-41 -28 -72 -56q-8 10 -27 31t-27 30q-21 -21 -63 -67zM243 528q-43 0 -82 -54h9q78 0 112 16q1 3 1 9q0 29 -40 29zM835 168q-23 -89 -83.5 -128.5
t-128.5 -39.5q-133 0 -133 157q0 9 2 37q-79 -27 -185 -36q32 -51 32 -139q0 -114 -51 -192.5t-151 -102.5q-89 18 -129 48l-3 14q127 -4 214 65t82 171q-24 57 -93 123q14 44 48 79q161 8 293 43q-4 -27 -4 -55q0 -128 109 -128q96 0 131 48q1 30 -11 78t-33 87
q10 33 58 81q36 -89 36 -210zM733 -80q37 -29 60 -63q-37 -29 -66 -64q-37 30 -61 64q24 44 67 63z" />
    <glyph glyph-name="uniFE91FE9CFB8B" unicode="&#xfe91;&#xfe9c;&#xfb8b;" 
d="M478 534q-37 30 -61 64q24 44 67 63q37 -29 60 -63q-37 -29 -66 -64zM164 443q-37 30 -61 64q24 44 67 63q37 -29 60 -63q-37 -29 -66 -64zM423 400q-23 18 -63 62q24 40 68 67q31 -25 51 -50q46 38 72 52q37 -29 61 -69q-41 -28 -72 -56q-8 10 -27 31t-27 30
q-21 -21 -63 -67zM109 309q-23 18 -63 62q24 40 68 67q31 -25 51 -50q46 38 72 52q37 -29 61 -69q-41 -28 -72 -56q-8 10 -27 31t-27 30q-21 -21 -63 -67zM835 168q-23 -89 -83.5 -128.5t-128.5 -39.5q-133 0 -133 157q0 9 2 37q-79 -27 -185 -36q32 -51 32 -139
q0 -114 -51 -192.5t-151 -102.5q-89 18 -129 48l-3 14q127 -4 214 65t82 171q-24 57 -93 123q14 44 48 79q161 8 293 43q-4 -27 -4 -55q0 -128 109 -128q96 0 131 48q1 30 -11 78t-33 87q10 33 58 81q36 -89 36 -210zM733 -80q37 -29 60 -63q-37 -29 -66 -64q-37 30 -61 64
q24 44 67 63z" />
    <glyph glyph-name="uniFE91FE9CFEE6" unicode="&#xfe91;&#xfe9c;&#xfee6;" horiz-adv-x="1089" 
d="M667 534q-37 30 -61 64q24 44 67 63q37 -29 60 -63q-37 -29 -66 -64zM612 400q-23 18 -63 62q24 40 68 67q31 -25 51 -50q46 38 72 52q37 -29 61 -69q-41 -28 -72 -56q-8 10 -27 31t-27 30q-21 -21 -63 -67zM294 255q-37 30 -61 64q24 44 67 63q37 -29 60 -63
q-37 -29 -66 -64zM1024 168q-23 -89 -83.5 -128.5t-128.5 -39.5q-148 0 -131 191q-73 -29 -177 -34q26 -75 31 -129q1 -71 -22 -127.5t-62.5 -90t-87 -50.5t-98.5 -17q-35 0 -67.5 10t-63.5 31t-49.5 61t-18.5 94q0 50 16.5 109.5t42.5 98.5l8 -23q-17 -73 -17 -131
q0 -166 163 -166q77 0 134.5 28.5t77.5 82.5q-7 80 -65 207q12 42 48 79q160 8 264 43q-25 -183 105 -183q96 0 131 48q1 30 -11 78t-33 87q10 33 58 81q36 -89 36 -210zM922 -80q37 -29 60 -63q-37 -29 -66 -64q-37 30 -61 64q24 44 67 63z" />
    <glyph glyph-name="uniFE91FB69FEAE" unicode="&#xfe91;&#xfb69;&#xfeae;" 
d="M327 498q51 -14 102 -17q11 18 22 33q-3 92 -22 165q18 18 43 23q7 -40 7 -141v-14q40 38 74 38q27 0 43 -20.5t16 -51.5q0 -28 -22 -55q-48 -27 -154 -27h-3q-17 -29 -26 -51q-15 -3 -15 13q0 14 11 39q-30 5 -32 6q-25 15 -44 60zM545 534q-43 0 -82 -54h9q78 0 112 16
q1 3 1 9q0 29 -40 29zM835 168q-23 -89 -83.5 -128.5t-128.5 -39.5q-133 0 -133 157q0 9 2 37q-79 -27 -185 -36q32 -51 32 -139q0 -114 -51 -192.5t-151 -102.5q-89 18 -129 48l-3 14q127 -4 214 65t82 171q-24 57 -93 123q14 44 48 79q161 8 293 43q-4 -27 -4 -55
q0 -128 109 -128q96 0 131 48q1 30 -11 78t-33 87q10 33 58 81q36 -89 36 -210zM733 -80q37 -29 60 -63q-37 -29 -66 -64q-37 30 -61 64q24 44 67 63z" />
    <glyph glyph-name="uniFE91FB69FEB0" unicode="&#xfe91;&#xfb69;&#xfeb0;" 
d="M327 498q51 -14 102 -17q11 18 22 33q-3 92 -22 165q18 18 43 23q7 -40 7 -141v-14q40 38 74 38q27 0 43 -20.5t16 -51.5q0 -28 -22 -55q-48 -27 -154 -27h-3q-17 -29 -26 -51q-15 -3 -15 13q0 14 11 39q-30 5 -32 6q-25 15 -44 60zM545 534q-43 0 -82 -54h9q78 0 112 16
q1 3 1 9q0 29 -40 29zM167 319q-37 30 -61 64q24 44 67 63q37 -29 60 -63q-37 -29 -66 -64zM835 168q-23 -89 -83.5 -128.5t-128.5 -39.5q-133 0 -133 157q0 9 2 37q-79 -27 -185 -36q32 -51 32 -139q0 -114 -51 -192.5t-151 -102.5q-89 18 -129 48l-3 14q127 -4 214 65
t82 171q-24 57 -93 123q14 44 48 79q161 8 293 43q-4 -27 -4 -55q0 -128 109 -128q96 0 131 48q1 30 -11 78t-33 87q10 33 58 81q36 -89 36 -210zM733 -80q37 -29 60 -63q-37 -29 -66 -64q-37 30 -61 64q24 44 67 63z" />
    <glyph glyph-name="uniFE91FB69FB8D" unicode="&#xfe91;&#xfb69;&#xfb8d;" horiz-adv-x="870" 
d="M327 548q51 -14 102 -17q11 18 22 33q-3 92 -22 165q18 18 43 23q7 -40 7 -141v-14q40 38 74 38q27 0 43 -20.5t16 -51.5q0 -28 -22 -55q-48 -27 -154 -27h-3q-17 -29 -26 -51q-15 -3 -15 13q0 14 11 39q-30 5 -32 6q-25 15 -44 60zM25 492q51 -14 102 -17q11 18 22 33
q-3 92 -22 165q18 18 43 23q7 -40 7 -141v-14q40 38 74 38q27 0 43 -20.5t16 -51.5q0 -28 -22 -55q-48 -27 -154 -27h-3q-17 -29 -26 -51q-15 -3 -15 13q0 14 11 39q-30 5 -32 6q-25 15 -44 60zM545 584q-43 0 -82 -54h9q78 0 112 16q1 3 1 9q0 29 -40 29zM243 528
q-43 0 -82 -54h9q78 0 112 16q1 3 1 9q0 29 -40 29zM835 168q-23 -89 -83.5 -128.5t-128.5 -39.5q-133 0 -133 157q0 9 2 37q-79 -27 -185 -36q32 -51 32 -139q0 -114 -51 -192.5t-151 -102.5q-89 18 -129 48l-3 14q127 -4 214 65t82 171q-24 57 -93 123q14 44 48 79
q161 8 293 43q-4 -27 -4 -55q0 -128 109 -128q96 0 131 48q1 30 -11 78t-33 87q10 33 58 81q36 -89 36 -210zM733 -80q37 -29 60 -63q-37 -29 -66 -64q-37 30 -61 64q24 44 67 63z" />
    <glyph glyph-name="uniFE91FB69FB8B" unicode="&#xfe91;&#xfb69;&#xfb8b;" 
d="M327 498q51 -14 102 -17q11 18 22 33q-3 92 -22 165q18 18 43 23q7 -40 7 -141v-14q40 38 74 38q27 0 43 -20.5t16 -51.5q0 -28 -22 -55q-48 -27 -154 -27h-3q-17 -29 -26 -51q-15 -3 -15 13q0 14 11 39q-30 5 -32 6q-25 15 -44 60zM164 443q-37 30 -61 64q24 44 67 63
q37 -29 60 -63q-37 -29 -66 -64zM545 534q-43 0 -82 -54h9q78 0 112 16q1 3 1 9q0 29 -40 29zM109 309q-23 18 -63 62q24 40 68 67q31 -25 51 -50q46 38 72 52q37 -29 61 -69q-41 -28 -72 -56q-8 10 -27 31t-27 30q-21 -21 -63 -67zM835 168q-23 -89 -83.5 -128.5
t-128.5 -39.5q-133 0 -133 157q0 9 2 37q-79 -27 -185 -36q32 -51 32 -139q0 -114 -51 -192.5t-151 -102.5q-89 18 -129 48l-3 14q127 -4 214 65t82 171q-24 57 -93 123q14 44 48 79q161 8 293 43q-4 -27 -4 -55q0 -128 109 -128q96 0 131 48q1 30 -11 78t-33 87
q10 33 58 81q36 -89 36 -210zM733 -80q37 -29 60 -63q-37 -29 -66 -64q-37 30 -61 64q24 44 67 63z" />
    <glyph glyph-name="uniFE91FB69FEE6" unicode="&#xfe91;&#xfb69;&#xfee6;" horiz-adv-x="1089" 
d="M516 498q51 -14 102 -17q11 18 22 33q-3 92 -22 165q18 18 43 23q7 -40 7 -141v-14q40 38 74 38q27 0 43 -20.5t16 -51.5q0 -28 -22 -55q-48 -27 -154 -27h-3q-17 -29 -26 -51q-15 -3 -15 13q0 14 11 39q-30 5 -32 6q-25 15 -44 60zM734 534q-43 0 -82 -54h9q78 0 112 16
q1 3 1 9q0 29 -40 29zM294 255q-37 30 -61 64q24 44 67 63q37 -29 60 -63q-37 -29 -66 -64zM1024 168q-23 -89 -83.5 -128.5t-128.5 -39.5q-148 0 -131 191q-73 -29 -177 -34q26 -75 31 -129q1 -71 -22 -127.5t-62.5 -90t-87 -50.5t-98.5 -17q-35 0 -67.5 10t-63.5 31
t-49.5 61t-18.5 94q0 50 16.5 109.5t42.5 98.5l8 -23q-17 -73 -17 -131q0 -166 163 -166q77 0 134.5 28.5t77.5 82.5q-7 80 -65 207q12 42 48 79q160 8 264 43q-25 -183 105 -183q96 0 131 48q1 30 -11 78t-33 87q10 33 58 81q36 -89 36 -210zM922 -80q37 -29 60 -63
q-37 -29 -66 -64q-37 30 -61 64q24 44 67 63z" />
    <glyph glyph-name="uniFE91FB7D" unicode="&#xfe91;&#xfb7d;" horiz-adv-x="621" 
d="M586 237l6 -9q-16 -37 -38 -65q-79 3 -245 -71q-206 -92 -336 -92q-18 0 -18 27q0 31 8.5 44t36.5 13q51 0 109 12t94.5 24.5t97.5 35.5t80 30q-20 3 -60.5 11.5t-73 13t-64.5 4.5q-68 0 -97 -19l-14 4q37 95 138.5 174t184.5 79q27 0 45 -11q23 -31 43 -94l-10 -10
q-36 41 -97 41q-38 0 -87.5 -21t-92.5 -71q58 0 170.5 -26.5t174.5 -26.5q23 0 45 3zM462 17q37 -29 60 -63q-37 -29 -66 -64q-37 30 -61 64q24 44 67 63zM270 -127q37 -29 61 -69q-41 -28 -72 -56q-8 10 -27 31t-27 30q-21 -21 -63 -67q-23 18 -63 62q24 40 68 67
q31 -25 51 -50q46 38 72 52zM206 -260q37 -29 60 -63q-37 -29 -66 -64q-37 30 -61 64q24 44 67 63z" />
    <glyph glyph-name="uniFE92FB8D" unicode="&#xfe92;&#xfb8d;" horiz-adv-x="651" 
d="M23 397q51 -14 102 -17q11 18 22 33q-3 92 -22 165q18 18 43 23q7 -40 7 -141v-14q40 38 74 38q27 0 43 -20.5t16 -51.5q0 -28 -22 -55q-48 -27 -154 -27h-3q-17 -30 -26 -51q-15 -3 -15 13q0 14 11 39q-30 5 -32 6q-25 15 -44 60zM241 433q-43 0 -82 -54h9q78 0 112 16
q1 3 1 9q0 29 -40 29zM538 178q0 -56 28 -75t85 -19q0 -46 -5 -65t-22 -19q-20 0 -38 3t-45 13.5t-43.5 37t-16.5 66.5q0 30 12 72q-73 -25 -186 -34q32 -51 32 -139q0 -114 -51 -192.5t-151 -102.5q-89 18 -129 48l-3 14q127 -4 214 65t82 171q-24 57 -93 123q14 44 48 79
q181 9 294 43q-12 -54 -12 -89zM511 -91q37 -29 60 -63q-37 -29 -66 -64q-37 30 -61 64q24 44 67 63z" />
    <glyph glyph-name="uniFE92FB8B" unicode="&#xfe92;&#xfb8b;" horiz-adv-x="651" 
d="M174 433q-37 30 -61 64q24 44 67 63q37 -29 60 -63q-37 -29 -66 -64zM119 299q-23 18 -63 62q24 40 68 67q31 -25 51 -50q46 38 72 52q37 -29 61 -69q-41 -28 -72 -56q-8 10 -27 31t-27 30q-21 -21 -63 -67zM538 178q0 -56 28 -75t85 -19q0 -46 -5 -65t-22 -19
q-20 0 -38 3t-45 13.5t-43.5 37t-16.5 66.5q0 30 12 72q-73 -25 -186 -34q32 -51 32 -139q0 -114 -51 -192.5t-151 -102.5q-89 18 -129 48l-3 14q127 -4 214 65t82 171q-24 57 -93 123q14 44 48 79q181 9 294 43q-12 -54 -12 -89zM511 -91q37 -29 60 -63q-37 -29 -66 -64
q-37 30 -61 64q24 44 67 63z" />
    <glyph glyph-name="uniFE91FEE8FEAE" unicode="&#xfe91;&#xfee8;&#xfeae;" 
d="M481 410q-37 30 -61 64q24 44 67 63q37 -29 60 -63q-37 -29 -66 -64zM835 168q-23 -89 -83.5 -128.5t-128.5 -39.5q-133 0 -133 157q0 9 2 37q-79 -27 -185 -36q32 -51 32 -139q0 -114 -51 -192.5t-151 -102.5q-89 18 -129 48l-3 14q127 -4 214 65t82 171q-24 57 -93 123
q14 44 48 79q161 8 293 43q-4 -27 -4 -55q0 -128 109 -128q96 0 131 48q1 30 -11 78t-33 87q10 33 58 81q36 -89 36 -210zM733 -80q37 -29 60 -63q-37 -29 -66 -64q-37 30 -61 64q24 44 67 63z" />
    <glyph glyph-name="uniFE91FEE8FEB0" unicode="&#xfe91;&#xfee8;&#xfeb0;" 
d="M481 410q-37 30 -61 64q24 44 67 63q37 -29 60 -63q-37 -29 -66 -64zM167 319q-37 30 -61 64q24 44 67 63q37 -29 60 -63q-37 -29 -66 -64zM835 168q-23 -89 -83.5 -128.5t-128.5 -39.5q-133 0 -133 157q0 9 2 37q-79 -27 -185 -36q32 -51 32 -139q0 -114 -51 -192.5
t-151 -102.5q-89 18 -129 48l-3 14q127 -4 214 65t82 171q-24 57 -93 123q14 44 48 79q161 8 293 43q-4 -27 -4 -55q0 -128 109 -128q96 0 131 48q1 30 -11 78t-33 87q10 33 58 81q36 -89 36 -210zM733 -80q37 -29 60 -63q-37 -29 -66 -64q-37 30 -61 64q24 44 67 63z" />
    <glyph glyph-name="uniFE91FEE8FB8D" unicode="&#xfe91;&#xfee8;&#xfb8d;" horiz-adv-x="870" 
d="M25 492q51 -14 102 -17q11 18 22 33q-3 92 -22 165q18 18 43 23q7 -40 7 -141v-14q40 38 74 38q27 0 43 -20.5t16 -51.5q0 -28 -22 -55q-48 -27 -154 -27h-3q-17 -29 -26 -51q-15 -3 -15 13q0 14 11 39q-30 5 -32 6q-25 15 -44 60zM481 410q-37 30 -61 64q24 44 67 63
q37 -29 60 -63q-37 -29 -66 -64zM243 528q-43 0 -82 -54h9q78 0 112 16q1 3 1 9q0 29 -40 29zM835 168q-23 -89 -83.5 -128.5t-128.5 -39.5q-133 0 -133 157q0 9 2 37q-79 -27 -185 -36q32 -51 32 -139q0 -114 -51 -192.5t-151 -102.5q-89 18 -129 48l-3 14q127 -4 214 65
t82 171q-24 57 -93 123q14 44 48 79q161 8 293 43q-4 -27 -4 -55q0 -128 109 -128q96 0 131 48q1 30 -11 78t-33 87q10 33 58 81q36 -89 36 -210zM733 -80q37 -29 60 -63q-37 -29 -66 -64q-37 30 -61 64q24 44 67 63z" />
    <glyph glyph-name="uniFE91FEE8FB8B" unicode="&#xfe91;&#xfee8;&#xfb8b;" 
d="M164 443q-37 30 -61 64q24 44 67 63q37 -29 60 -63q-37 -29 -66 -64zM481 410q-37 30 -61 64q24 44 67 63q37 -29 60 -63q-37 -29 -66 -64zM109 309q-23 18 -63 62q24 40 68 67q31 -25 51 -50q46 38 72 52q37 -29 61 -69q-41 -28 -72 -56q-8 10 -27 31t-27 30
q-21 -21 -63 -67zM835 168q-23 -89 -83.5 -128.5t-128.5 -39.5q-133 0 -133 157q0 9 2 37q-79 -27 -185 -36q32 -51 32 -139q0 -114 -51 -192.5t-151 -102.5q-89 18 -129 48l-3 14q127 -4 214 65t82 171q-24 57 -93 123q14 44 48 79q161 8 293 43q-4 -27 -4 -55
q0 -128 109 -128q96 0 131 48q1 30 -11 78t-33 87q10 33 58 81q36 -89 36 -210zM733 -80q37 -29 60 -63q-37 -29 -66 -64q-37 30 -61 64q24 44 67 63z" />
    <glyph glyph-name="uniFE91FEE8FEE6" unicode="&#xfe91;&#xfee8;&#xfee6;" horiz-adv-x="1089" 
d="M670 410q-37 30 -61 64q24 44 67 63q37 -29 60 -63q-37 -29 -66 -64zM294 255q-37 30 -61 64q24 44 67 63q37 -29 60 -63q-37 -29 -66 -64zM1024 168q-23 -89 -83.5 -128.5t-128.5 -39.5q-148 0 -131 191q-73 -29 -177 -34q26 -75 31 -129q1 -71 -22 -127.5t-62.5 -90
t-87 -50.5t-98.5 -17q-35 0 -67.5 10t-63.5 31t-49.5 61t-18.5 94q0 50 16.5 109.5t42.5 98.5l8 -23q-17 -73 -17 -131q0 -166 163 -166q77 0 134.5 28.5t77.5 82.5q-7 80 -65 207q12 42 48 79q160 8 264 43q-25 -183 105 -183q96 0 131 48q1 30 -11 78t-33 87q10 33 58 81
q36 -89 36 -210zM922 -80q37 -29 60 -63q-37 -29 -66 -64q-37 30 -61 64q24 44 67 63z" />
    <glyph glyph-name="uniFE91FEF4FEAE" unicode="&#xfe91;&#xfef4;&#xfeae;" 
d="M835 168q-23 -89 -83.5 -128.5t-128.5 -39.5q-133 0 -133 157q0 9 2 37q-79 -27 -185 -36q32 -51 32 -139q0 -114 -51 -192.5t-151 -102.5q-89 18 -129 48l-3 14q127 -4 214 65t82 171q-24 57 -93 123q14 44 48 79q161 8 293 43q-4 -27 -4 -55q0 -128 109 -128
q96 0 131 48q1 30 -11 78t-33 87q10 33 58 81q36 -89 36 -210zM733 -80q37 -29 60 -63q-37 -29 -66 -64q-37 30 -61 64q24 44 67 63zM555 -135q37 -29 61 -69q-41 -28 -72 -56q-8 10 -27 31t-27 30q-21 -21 -63 -67q-23 18 -63 62q24 40 68 67q31 -25 51 -50q46 38 72 52z
" />
    <glyph glyph-name="uniFE91FEF4FEB0" unicode="&#xfe91;&#xfef4;&#xfeb0;" 
d="M167 319q-37 30 -61 64q24 44 67 63q37 -29 60 -63q-37 -29 -66 -64zM835 168q-23 -89 -83.5 -128.5t-128.5 -39.5q-133 0 -133 157q0 9 2 37q-79 -27 -185 -36q32 -51 32 -139q0 -114 -51 -192.5t-151 -102.5q-89 18 -129 48l-3 14q127 -4 214 65t82 171q-24 57 -93 123
q14 44 48 79q161 8 293 43q-4 -27 -4 -55q0 -128 109 -128q96 0 131 48q1 30 -11 78t-33 87q10 33 58 81q36 -89 36 -210zM733 -80q37 -29 60 -63q-37 -29 -66 -64q-37 30 -61 64q24 44 67 63zM555 -135q37 -29 61 -69q-41 -28 -72 -56q-8 10 -27 31t-27 30q-21 -21 -63 -67
q-23 18 -63 62q24 40 68 67q31 -25 51 -50q46 38 72 52z" />
    <glyph glyph-name="uniFE91FEF4FB8D" unicode="&#xfe91;&#xfef4;&#xfb8d;" horiz-adv-x="870" 
d="M25 492q51 -14 102 -17q11 18 22 33q-3 92 -22 165q18 18 43 23q7 -40 7 -141v-14q40 38 74 38q27 0 43 -20.5t16 -51.5q0 -28 -22 -55q-48 -27 -154 -27h-3q-17 -29 -26 -51q-15 -3 -15 13q0 14 11 39q-30 5 -32 6q-25 15 -44 60zM243 528q-43 0 -82 -54h9q78 0 112 16
q1 3 1 9q0 29 -40 29zM835 168q-23 -89 -83.5 -128.5t-128.5 -39.5q-133 0 -133 157q0 9 2 37q-79 -27 -185 -36q32 -51 32 -139q0 -114 -51 -192.5t-151 -102.5q-89 18 -129 48l-3 14q127 -4 214 65t82 171q-24 57 -93 123q14 44 48 79q161 8 293 43q-4 -27 -4 -55
q0 -128 109 -128q96 0 131 48q1 30 -11 78t-33 87q10 33 58 81q36 -89 36 -210zM733 -80q37 -29 60 -63q-37 -29 -66 -64q-37 30 -61 64q24 44 67 63zM555 -135q37 -29 61 -69q-41 -28 -72 -56q-8 10 -27 31t-27 30q-21 -21 -63 -67q-23 18 -63 62q24 40 68 67
q31 -25 51 -50q46 38 72 52z" />
    <glyph glyph-name="uniFE91FEF4FB8B" unicode="&#xfe91;&#xfef4;&#xfb8b;" 
d="M164 443q-37 30 -61 64q24 44 67 63q37 -29 60 -63q-37 -29 -66 -64zM109 309q-23 18 -63 62q24 40 68 67q31 -25 51 -50q46 38 72 52q37 -29 61 -69q-41 -28 -72 -56q-8 10 -27 31t-27 30q-21 -21 -63 -67zM835 168q-23 -89 -83.5 -128.5t-128.5 -39.5q-133 0 -133 157
q0 9 2 37q-79 -27 -185 -36q32 -51 32 -139q0 -114 -51 -192.5t-151 -102.5q-89 18 -129 48l-3 14q127 -4 214 65t82 171q-24 57 -93 123q14 44 48 79q161 8 293 43q-4 -27 -4 -55q0 -128 109 -128q96 0 131 48q1 30 -11 78t-33 87q10 33 58 81q36 -89 36 -210zM733 -80
q37 -29 60 -63q-37 -29 -66 -64q-37 30 -61 64q24 44 67 63zM555 -135q37 -29 61 -69q-41 -28 -72 -56q-8 10 -27 31t-27 30q-21 -21 -63 -67q-23 18 -63 62q24 40 68 67q31 -25 51 -50q46 38 72 52z" />
    <glyph glyph-name="uniFE91FEF4FEE6" unicode="&#xfe91;&#xfef4;&#xfee6;" horiz-adv-x="1089" 
d="M294 255q-37 30 -61 64q24 44 67 63q37 -29 60 -63q-37 -29 -66 -64zM1024 168q-23 -89 -83.5 -128.5t-128.5 -39.5q-148 0 -131 191q-73 -29 -177 -34q26 -75 31 -129q1 -71 -22 -127.5t-62.5 -90t-87 -50.5t-98.5 -17q-35 0 -67.5 10t-63.5 31t-49.5 61t-18.5 94
q0 50 16.5 109.5t42.5 98.5l8 -23q-17 -73 -17 -131q0 -166 163 -166q77 0 134.5 28.5t77.5 82.5q-7 80 -65 207q12 42 48 79q160 8 264 43q-25 -183 105 -183q96 0 131 48q1 30 -11 78t-33 87q10 33 58 81q36 -89 36 -210zM922 -80q37 -29 60 -63q-37 -29 -66 -64
q-37 30 -61 64q24 44 67 63zM744 -135q37 -29 61 -69q-41 -28 -72 -56q-8 10 -27 31t-27 30q-21 -21 -63 -67q-23 18 -63 62q24 40 68 67q31 -25 51 -50q46 38 72 52z" />
    <glyph glyph-name="uniFE91FE8A" unicode="&#xfe91;&#xfe8a;" horiz-adv-x="710" 
d="M221 257q-57 -16 -90.5 -35t-78.5 -61q-11 5 -11 16q0 27 67 67q-63 12 -63 69q0 34 21.5 53t54.5 19q24 0 37 -9q23 -21 27 -45q-30 11 -55 11q-33 0 -58 -20q10 -36 79 -36q35 0 78 13l4 1q-4 -31 -12 -43zM609 378q36 -89 36 -210q-29 -89 -114 -132q37 -37 37 -87
q0 -81 -83 -143.5t-203 -62.5q-101 0 -166.5 46.5t-65.5 152.5q0 110 61 194l8 -23q-20 -45 -20 -120q0 -166 204 -166q188 0 236 115q-15 31 -68.5 58t-121.5 37q9 37 31 79q35 -22 90 -22q76 0 125 38q1 30 -11 78t-33 87q10 33 58 81zM521 -292q37 -29 60 -63
q-37 -29 -66 -64q-37 30 -61 64q24 44 67 63z" />
    <glyph glyph-name="uniFE92FE8A" unicode="&#xfe92;&#xfe8a;" horiz-adv-x="752" 
d="M221 257q-57 -16 -90.5 -35t-78.5 -61q-11 5 -11 16q0 27 67 67q-63 12 -63 69q0 34 21.5 53t54.5 19q24 0 37 -9q23 -21 27 -45q-30 11 -55 11q-33 0 -58 -20q10 -36 79 -36q35 0 78 13l4 1q-4 -31 -12 -43zM620 191q0 -63 34.5 -85t96.5 -22q0 -46 -5 -65t-22 -19
q-21 0 -41 3t-51 14t-50 39.5t-19 70.5q0 33 11 69q-61 3 -118.5 -29.5t-82.5 -91.5q18 -19 56.5 -35t70 -31t38.5 -36q-22 -103 -100.5 -166.5t-183.5 -63.5q-40 0 -74.5 10t-64.5 31.5t-47.5 62t-17.5 95.5q0 110 61 194l8 -23q-20 -45 -20 -120q0 -53 14.5 -88.5
t41.5 -51t51 -21t56 -5.5q175 0 227 95q-12 20 -77 43.5t-87 52.5q0 106 74 181.5t172 75.5q27 0 59 -8q-10 -43 -10 -76zM617 -171q37 -29 60 -63q-37 -29 -66 -64q-37 30 -61 64q24 44 67 63z" />
    <glyph glyph-name="uniFE91FE8CFEAE" unicode="&#xfe91;&#xfe8c;&#xfeae;" 
d="M384 430q0 27 67 67q-63 12 -63 69q0 34 21.5 53t54.5 19q24 0 37 -9q23 -21 27 -45q-30 11 -55 11q-33 0 -58 -20q10 -36 79 -36q35 0 78 13l4 1q-4 -31 -12 -43q-57 -16 -90.5 -35t-78.5 -61q-11 6 -11 16zM835 168q-23 -89 -83.5 -128.5t-128.5 -39.5q-133 0 -133 157
q0 9 2 37q-79 -27 -185 -36q32 -51 32 -139q0 -114 -51 -192.5t-151 -102.5q-89 18 -129 48l-3 14q127 -4 214 65t82 171q-24 57 -93 123q14 44 48 79q161 8 293 43q-4 -27 -4 -55q0 -128 109 -128q96 0 131 48q1 30 -11 78t-33 87q10 33 58 81q36 -89 36 -210zM733 -80
q37 -29 60 -63q-37 -29 -66 -64q-37 30 -61 64q24 44 67 63z" />
    <glyph glyph-name="uniFE91FE8CFEB0" unicode="&#xfe91;&#xfe8c;&#xfeb0;" 
d="M384 430q0 27 67 67q-63 12 -63 69q0 34 21.5 53t54.5 19q24 0 37 -9q23 -21 27 -45q-30 11 -55 11q-33 0 -58 -20q10 -36 79 -36q35 0 78 13l4 1q-4 -31 -12 -43q-57 -16 -90.5 -35t-78.5 -61q-11 6 -11 16zM167 319q-37 30 -61 64q24 44 67 63q37 -29 60 -63
q-37 -29 -66 -64zM835 168q-23 -89 -83.5 -128.5t-128.5 -39.5q-133 0 -133 157q0 9 2 37q-79 -27 -185 -36q32 -51 32 -139q0 -114 -51 -192.5t-151 -102.5q-89 18 -129 48l-3 14q127 -4 214 65t82 171q-24 57 -93 123q14 44 48 79q161 8 293 43q-4 -27 -4 -55
q0 -128 109 -128q96 0 131 48q1 30 -11 78t-33 87q10 33 58 81q36 -89 36 -210zM733 -80q37 -29 60 -63q-37 -29 -66 -64q-37 30 -61 64q24 44 67 63z" />
    <glyph glyph-name="uniFE91FE8CFB8D" unicode="&#xfe91;&#xfe8c;&#xfb8d;" horiz-adv-x="870" 
d="M25 492q51 -14 102 -17q11 18 22 33q-3 92 -22 165q18 18 43 23q7 -40 7 -141v-14q40 38 74 38q27 0 43 -20.5t16 -51.5q0 -28 -22 -55q-48 -27 -154 -27h-3q-17 -29 -26 -51q-15 -3 -15 13q0 14 11 39q-30 5 -32 6q-25 15 -44 60zM384 430q0 27 67 67q-63 12 -63 69
q0 34 21.5 53t54.5 19q24 0 37 -9q23 -21 27 -45q-30 11 -55 11q-33 0 -58 -20q10 -36 79 -36q35 0 78 13l4 1q-4 -31 -12 -43q-57 -16 -90.5 -35t-78.5 -61q-11 6 -11 16zM243 528q-43 0 -82 -54h9q78 0 112 16q1 3 1 9q0 29 -40 29zM835 168q-23 -89 -83.5 -128.5
t-128.5 -39.5q-133 0 -133 157q0 9 2 37q-79 -27 -185 -36q32 -51 32 -139q0 -114 -51 -192.5t-151 -102.5q-89 18 -129 48l-3 14q127 -4 214 65t82 171q-24 57 -93 123q14 44 48 79q161 8 293 43q-4 -27 -4 -55q0 -128 109 -128q96 0 131 48q1 30 -11 78t-33 87
q10 33 58 81q36 -89 36 -210zM733 -80q37 -29 60 -63q-37 -29 -66 -64q-37 30 -61 64q24 44 67 63z" />
    <glyph glyph-name="uniFE91FE8CFB8B" unicode="&#xfe91;&#xfe8c;&#xfb8b;" 
d="M384 430q0 27 67 67q-63 12 -63 69q0 34 21.5 53t54.5 19q24 0 37 -9q23 -21 27 -45q-30 11 -55 11q-33 0 -58 -20q10 -36 79 -36q35 0 78 13l4 1q-4 -31 -12 -43q-57 -16 -90.5 -35t-78.5 -61q-11 6 -11 16zM164 443q-37 30 -61 64q24 44 67 63q37 -29 60 -63
q-37 -29 -66 -64zM109 309q-23 18 -63 62q24 40 68 67q31 -25 51 -50q46 38 72 52q37 -29 61 -69q-41 -28 -72 -56q-8 10 -27 31t-27 30q-21 -21 -63 -67zM835 168q-23 -89 -83.5 -128.5t-128.5 -39.5q-133 0 -133 157q0 9 2 37q-79 -27 -185 -36q32 -51 32 -139
q0 -114 -51 -192.5t-151 -102.5q-89 18 -129 48l-3 14q127 -4 214 65t82 171q-24 57 -93 123q14 44 48 79q161 8 293 43q-4 -27 -4 -55q0 -128 109 -128q96 0 131 48q1 30 -11 78t-33 87q10 33 58 81q36 -89 36 -210zM733 -80q37 -29 60 -63q-37 -29 -66 -64q-37 30 -61 64
q24 44 67 63z" />
    <glyph glyph-name="uniFE91FE8CFEE6" unicode="&#xfe91;&#xfe8c;&#xfee6;" horiz-adv-x="1089" 
d="M573 430q0 27 67 67q-63 12 -63 69q0 34 21.5 53t54.5 19q24 0 37 -9q23 -21 27 -45q-30 11 -55 11q-33 0 -58 -20q10 -36 79 -36q35 0 78 13l4 1q-4 -31 -12 -43q-57 -16 -90.5 -35t-78.5 -61q-11 6 -11 16zM294 255q-37 30 -61 64q24 44 67 63q37 -29 60 -63
q-37 -29 -66 -64zM1024 168q-23 -89 -83.5 -128.5t-128.5 -39.5q-148 0 -131 191q-73 -29 -177 -34q26 -75 31 -129q1 -71 -22 -127.5t-62.5 -90t-87 -50.5t-98.5 -17q-35 0 -67.5 10t-63.5 31t-49.5 61t-18.5 94q0 50 16.5 109.5t42.5 98.5l8 -23q-17 -73 -17 -131
q0 -166 163 -166q77 0 134.5 28.5t77.5 82.5q-7 80 -65 207q12 42 48 79q160 8 264 43q-25 -183 105 -183q96 0 131 48q1 30 -11 78t-33 87q10 33 58 81q36 -89 36 -210zM922 -80q37 -29 60 -63q-37 -29 -66 -64q-37 30 -61 64q24 44 67 63z" />
    <glyph glyph-name="uniFB58FE92FEAE" unicode="&#xfb58;&#xfe92;&#xfeae;" 
d="M492 194q-79 -27 -185 -36q32 -51 32 -139q0 -114 -51 -192.5t-151 -102.5q-89 18 -129 48l-3 14q127 -4 214 65t82 171q-24 57 -93 123q14 44 48 79q161 8 293 43q-4 -27 -4 -55q0 -128 109 -128q96 0 131 48q1 30 -11 78t-33 87q10 33 58 81q36 -89 36 -210
q-23 -89 -83.5 -128.5t-128.5 -39.5q-133 0 -133 157q0 9 2 37zM738 -138q-21 -21 -63 -67q-23 18 -63 62q24 40 68 67q31 -25 51 -50q46 38 72 52q37 -29 61 -69q-41 -28 -72 -56q-8 10 -27 31t-27 30zM486 -141q37 -29 60 -63q-37 -29 -66 -64q-37 30 -61 64q24 44 67 63z
M739 -207q37 -29 60 -63q-37 -29 -66 -64q-37 30 -61 64q24 44 67 63z" />
    <glyph glyph-name="uniFB58FE92FEB0" unicode="&#xfb58;&#xfe92;&#xfeb0;" 
d="M167 319q-37 30 -61 64q24 44 67 63q37 -29 60 -63q-37 -29 -66 -64zM492 194q-79 -27 -185 -36q32 -51 32 -139q0 -114 -51 -192.5t-151 -102.5q-89 18 -129 48l-3 14q127 -4 214 65t82 171q-24 57 -93 123q14 44 48 79q161 8 293 43q-4 -27 -4 -55q0 -128 109 -128
q96 0 131 48q1 30 -11 78t-33 87q10 33 58 81q36 -89 36 -210q-23 -89 -83.5 -128.5t-128.5 -39.5q-133 0 -133 157q0 9 2 37zM738 -138q-21 -21 -63 -67q-23 18 -63 62q24 40 68 67q31 -25 51 -50q46 38 72 52q37 -29 61 -69q-41 -28 -72 -56q-8 10 -27 31t-27 30z
M486 -141q37 -29 60 -63q-37 -29 -66 -64q-37 30 -61 64q24 44 67 63zM739 -207q37 -29 60 -63q-37 -29 -66 -64q-37 30 -61 64q24 44 67 63z" />
    <glyph glyph-name="uniFB58FE92FB8D" unicode="&#xfb58;&#xfe92;&#xfb8d;" horiz-adv-x="899" 
d="M25 492q51 -14 102 -17q11 18 22 33q-3 92 -22 165q18 18 43 23q7 -40 7 -141v-14q40 38 74 38q27 0 43 -20.5t16 -51.5q0 -28 -22 -55q-48 -27 -154 -27h-3q-17 -29 -26 -51q-15 -3 -15 13q0 14 11 39q-30 5 -32 6q-25 15 -44 60zM243 528q-43 0 -82 -54h9q78 0 112 16
q1 3 1 9q0 29 -40 29zM492 194q-79 -27 -185 -36q32 -51 32 -139q0 -114 -51 -192.5t-151 -102.5q-89 18 -129 48l-3 14q127 -4 214 65t82 171q-24 57 -93 123q14 44 48 79q161 8 293 43q-4 -27 -4 -55q0 -128 109 -128q96 0 131 48q1 30 -11 78t-33 87q10 33 58 81
q36 -89 36 -210q-23 -89 -83.5 -128.5t-128.5 -39.5q-133 0 -133 157q0 9 2 37zM738 -138q-21 -21 -63 -67q-23 18 -63 62q24 40 68 67q31 -25 51 -50q46 38 72 52q37 -29 61 -69q-41 -28 -72 -56q-8 10 -27 31t-27 30zM486 -141q37 -29 60 -63q-37 -29 -66 -64
q-37 30 -61 64q24 44 67 63zM739 -207q37 -29 60 -63q-37 -29 -66 -64q-37 30 -61 64q24 44 67 63z" />
    <glyph glyph-name="uniFB58FE92FB8B" unicode="&#xfb58;&#xfe92;&#xfb8b;" 
d="M164 443q-37 30 -61 64q24 44 67 63q37 -29 60 -63q-37 -29 -66 -64zM109 309q-23 18 -63 62q24 40 68 67q31 -25 51 -50q46 38 72 52q37 -29 61 -69q-41 -28 -72 -56q-8 10 -27 31t-27 30q-21 -21 -63 -67zM492 194q-79 -27 -185 -36q32 -51 32 -139q0 -114 -51 -192.5
t-151 -102.5q-89 18 -129 48l-3 14q127 -4 214 65t82 171q-24 57 -93 123q14 44 48 79q161 8 293 43q-4 -27 -4 -55q0 -128 109 -128q96 0 131 48q1 30 -11 78t-33 87q10 33 58 81q36 -89 36 -210q-23 -89 -83.5 -128.5t-128.5 -39.5q-133 0 -133 157q0 9 2 37zM738 -138
q-21 -21 -63 -67q-23 18 -63 62q24 40 68 67q31 -25 51 -50q46 38 72 52q37 -29 61 -69q-41 -28 -72 -56q-8 10 -27 31t-27 30zM486 -141q37 -29 60 -63q-37 -29 -66 -64q-37 30 -61 64q24 44 67 63zM739 -207q37 -29 60 -63q-37 -29 -66 -64q-37 30 -61 64q24 44 67 63z
" />
    <glyph glyph-name="uniFB58FE92FEE6" unicode="&#xfb58;&#xfe92;&#xfee6;" horiz-adv-x="1089" 
d="M294 255q-37 30 -61 64q24 44 67 63q37 -29 60 -63q-37 -29 -66 -64zM504 157q26 -75 31 -129q1 -71 -22 -127.5t-62.5 -90t-87 -50.5t-98.5 -17q-35 0 -67.5 10t-63.5 31t-49.5 61t-18.5 94q0 50 16.5 109.5t42.5 98.5l8 -23q-17 -73 -17 -131q0 -166 163 -166
q77 0 134.5 28.5t77.5 82.5q-7 80 -65 207q12 42 48 79q160 8 264 43q-25 -183 105 -183q96 0 131 48q1 30 -11 78t-33 87q10 33 58 81q36 -89 36 -210q-23 -89 -83.5 -128.5t-128.5 -39.5q-148 0 -131 191q-73 -29 -177 -34zM927 -138q-21 -21 -63 -67q-23 18 -63 62
q24 40 68 67q31 -25 51 -50q46 38 72 52q37 -29 61 -69q-41 -28 -72 -56q-8 10 -27 31t-27 30zM675 -141q37 -29 60 -63q-37 -29 -66 -64q-37 30 -61 64q24 44 67 63zM928 -207q37 -29 60 -63q-37 -29 -66 -64q-37 30 -61 64q24 44 67 63z" />
    <glyph glyph-name="uniFB58FB59FEAE" unicode="&#xfb58;&#xfb59;&#xfeae;" horiz-adv-x="929" 
d="M307 158q32 -51 32 -139q0 -114 -51 -192.5t-151 -102.5q-89 18 -129 48l-3 14q127 -4 214 65t82 171q-24 57 -93 123q14 44 48 79q161 8 293 43q-4 -27 -4 -55q0 -128 109 -128q96 0 131 48q1 30 -11 78t-33 87q10 33 58 81q36 -89 36 -210q-23 -89 -83.5 -128.5
t-128.5 -39.5q-133 0 -133 157q0 9 2 37q-79 -27 -185 -36zM738 -138q-21 -21 -63 -67q-23 18 -63 62q24 40 68 67q31 -25 51 -50q46 38 72 52q37 -29 61 -69q-41 -28 -72 -56q-8 10 -27 31t-27 30zM521 -190q37 -29 61 -69q-41 -28 -72 -56q-8 10 -27 31t-27 30
q-21 -21 -63 -67q-23 18 -63 62q24 40 68 67q31 -25 51 -50q46 38 72 52zM739 -207q37 -29 60 -63q-37 -29 -66 -64q-37 30 -61 64q24 44 67 63zM457 -323q37 -29 60 -63q-37 -29 -66 -64q-37 30 -61 64q24 44 67 63z" />
    <glyph glyph-name="uniFB58FB59FEB0" unicode="&#xfb58;&#xfb59;&#xfeb0;" horiz-adv-x="929" 
d="M167 319q-37 30 -61 64q24 44 67 63q37 -29 60 -63q-37 -29 -66 -64zM307 158q32 -51 32 -139q0 -114 -51 -192.5t-151 -102.5q-89 18 -129 48l-3 14q127 -4 214 65t82 171q-24 57 -93 123q14 44 48 79q161 8 293 43q-4 -27 -4 -55q0 -128 109 -128q96 0 131 48
q1 30 -11 78t-33 87q10 33 58 81q36 -89 36 -210q-23 -89 -83.5 -128.5t-128.5 -39.5q-133 0 -133 157q0 9 2 37q-79 -27 -185 -36zM738 -138q-21 -21 -63 -67q-23 18 -63 62q24 40 68 67q31 -25 51 -50q46 38 72 52q37 -29 61 -69q-41 -28 -72 -56q-8 10 -27 31t-27 30z
M521 -190q37 -29 61 -69q-41 -28 -72 -56q-8 10 -27 31t-27 30q-21 -21 -63 -67q-23 18 -63 62q24 40 68 67q31 -25 51 -50q46 38 72 52zM739 -207q37 -29 60 -63q-37 -29 -66 -64q-37 30 -61 64q24 44 67 63zM457 -323q37 -29 60 -63q-37 -29 -66 -64q-37 30 -61 64
q24 44 67 63z" />
    <glyph glyph-name="uniFB58FB59FB8D" unicode="&#xfb58;&#xfb59;&#xfb8d;" horiz-adv-x="899" 
d="M25 492q51 -14 102 -17q11 18 22 33q-3 92 -22 165q18 18 43 23q7 -40 7 -141v-14q40 38 74 38q27 0 43 -20.5t16 -51.5q0 -28 -22 -55q-48 -27 -154 -27h-3q-17 -29 -26 -51q-15 -3 -15 13q0 14 11 39q-30 5 -32 6q-25 15 -44 60zM243 528q-43 0 -82 -54h9q78 0 112 16
q1 3 1 9q0 29 -40 29zM307 158q32 -51 32 -139q0 -114 -51 -192.5t-151 -102.5q-89 18 -129 48l-3 14q127 -4 214 65t82 171q-24 57 -93 123q14 44 48 79q161 8 293 43q-4 -27 -4 -55q0 -128 109 -128q96 0 131 48q1 30 -11 78t-33 87q10 33 58 81q36 -89 36 -210
q-23 -89 -83.5 -128.5t-128.5 -39.5q-133 0 -133 157q0 9 2 37q-79 -27 -185 -36zM738 -138q-21 -21 -63 -67q-23 18 -63 62q24 40 68 67q31 -25 51 -50q46 38 72 52q37 -29 61 -69q-41 -28 -72 -56q-8 10 -27 31t-27 30zM521 -190q37 -29 61 -69q-41 -28 -72 -56
q-8 10 -27 31t-27 30q-21 -21 -63 -67q-23 18 -63 62q24 40 68 67q31 -25 51 -50q46 38 72 52zM739 -207q37 -29 60 -63q-37 -29 -66 -64q-37 30 -61 64q24 44 67 63zM457 -323q37 -29 60 -63q-37 -29 -66 -64q-37 30 -61 64q24 44 67 63z" />
    <glyph glyph-name="uniFB58FB59FB8B" unicode="&#xfb58;&#xfb59;&#xfb8b;" horiz-adv-x="929" 
d="M164 443q-37 30 -61 64q24 44 67 63q37 -29 60 -63q-37 -29 -66 -64zM109 309q-23 18 -63 62q24 40 68 67q31 -25 51 -50q46 38 72 52q37 -29 61 -69q-41 -28 -72 -56q-8 10 -27 31t-27 30q-21 -21 -63 -67zM307 158q32 -51 32 -139q0 -114 -51 -192.5t-151 -102.5
q-89 18 -129 48l-3 14q127 -4 214 65t82 171q-24 57 -93 123q14 44 48 79q161 8 293 43q-4 -27 -4 -55q0 -128 109 -128q96 0 131 48q1 30 -11 78t-33 87q10 33 58 81q36 -89 36 -210q-23 -89 -83.5 -128.5t-128.5 -39.5q-133 0 -133 157q0 9 2 37q-79 -27 -185 -36z
M738 -138q-21 -21 -63 -67q-23 18 -63 62q24 40 68 67q31 -25 51 -50q46 38 72 52q37 -29 61 -69q-41 -28 -72 -56q-8 10 -27 31t-27 30zM521 -190q37 -29 61 -69q-41 -28 -72 -56q-8 10 -27 31t-27 30q-21 -21 -63 -67q-23 18 -63 62q24 40 68 67q31 -25 51 -50
q46 38 72 52zM739 -207q37 -29 60 -63q-37 -29 -66 -64q-37 30 -61 64q24 44 67 63zM457 -323q37 -29 60 -63q-37 -29 -66 -64q-37 30 -61 64q24 44 67 63z" />
    <glyph glyph-name="uniFB58FB59FEE6" unicode="&#xfb58;&#xfb59;&#xfee6;" horiz-adv-x="1089" 
d="M294 255q-37 30 -61 64q24 44 67 63q37 -29 60 -63q-37 -29 -66 -64zM504 157q26 -75 31 -129q1 -71 -22 -127.5t-62.5 -90t-87 -50.5t-98.5 -17q-35 0 -67.5 10t-63.5 31t-49.5 61t-18.5 94q0 50 16.5 109.5t42.5 98.5l8 -23q-17 -73 -17 -131q0 -166 163 -166
q77 0 134.5 28.5t77.5 82.5q-7 80 -65 207q12 42 48 79q160 8 264 43q-25 -183 105 -183q96 0 131 48q1 30 -11 78t-33 87q10 33 58 81q36 -89 36 -210q-23 -89 -83.5 -128.5t-128.5 -39.5q-148 0 -131 191q-73 -29 -177 -34zM927 -138q-21 -21 -63 -67q-23 18 -63 62
q24 40 68 67q31 -25 51 -50q46 38 72 52q37 -29 61 -69q-41 -28 -72 -56q-8 10 -27 31t-27 30zM745 -135q37 -29 61 -69q-41 -28 -72 -56q-8 10 -27 31t-27 30q-21 -21 -63 -67q-23 18 -63 62q24 40 68 67q31 -25 51 -50q46 38 72 52zM928 -207q37 -29 60 -63
q-37 -29 -66 -64q-37 30 -61 64q24 44 67 63zM681 -268q37 -29 60 -63q-37 -29 -66 -64q-37 30 -61 64q24 44 67 63z" />
    <glyph glyph-name="uniFB58FE98FEAE" unicode="&#xfb58;&#xfe98;&#xfeae;" 
d="M418 400q-23 18 -63 62q24 40 68 67q31 -25 51 -50q46 38 72 52q37 -29 61 -69q-41 -28 -72 -56q-8 10 -27 31t-27 30q-21 -21 -63 -67zM835 168q-23 -89 -83.5 -128.5t-128.5 -39.5q-133 0 -133 157q0 9 2 37q-79 -27 -185 -36q32 -51 32 -139q0 -114 -51 -192.5
t-151 -102.5q-89 18 -129 48l-3 14q127 -4 214 65t82 171q-24 57 -93 123q14 44 48 79q161 8 293 43q-4 -27 -4 -55q0 -128 109 -128q96 0 131 48q1 30 -11 78t-33 87q10 33 58 81q36 -89 36 -210zM738 -138q-21 -21 -63 -67q-23 18 -63 62q24 40 68 67q31 -25 51 -50
q46 38 72 52q37 -29 61 -69q-41 -28 -72 -56q-8 10 -27 31t-27 30zM739 -207q37 -29 60 -63q-37 -29 -66 -64q-37 30 -61 64q24 44 67 63z" />
    <glyph glyph-name="uniFB58FE98FEB0" unicode="&#xfb58;&#xfe98;&#xfeb0;" 
d="M418 400q-23 18 -63 62q24 40 68 67q31 -25 51 -50q46 38 72 52q37 -29 61 -69q-41 -28 -72 -56q-8 10 -27 31t-27 30q-21 -21 -63 -67zM167 319q-37 30 -61 64q24 44 67 63q37 -29 60 -63q-37 -29 -66 -64zM835 168q-23 -89 -83.5 -128.5t-128.5 -39.5q-133 0 -133 157
q0 9 2 37q-79 -27 -185 -36q32 -51 32 -139q0 -114 -51 -192.5t-151 -102.5q-89 18 -129 48l-3 14q127 -4 214 65t82 171q-24 57 -93 123q14 44 48 79q161 8 293 43q-4 -27 -4 -55q0 -128 109 -128q96 0 131 48q1 30 -11 78t-33 87q10 33 58 81q36 -89 36 -210zM738 -138
q-21 -21 -63 -67q-23 18 -63 62q24 40 68 67q31 -25 51 -50q46 38 72 52q37 -29 61 -69q-41 -28 -72 -56q-8 10 -27 31t-27 30zM739 -207q37 -29 60 -63q-37 -29 -66 -64q-37 30 -61 64q24 44 67 63z" />
    <glyph glyph-name="uniFB58FE98FB8D" unicode="&#xfb58;&#xfe98;&#xfb8d;" horiz-adv-x="899" 
d="M25 492q51 -14 102 -17q11 18 22 33q-3 92 -22 165q18 18 43 23q7 -40 7 -141v-14q40 38 74 38q27 0 43 -20.5t16 -51.5q0 -28 -22 -55q-48 -27 -154 -27h-3q-17 -29 -26 -51q-15 -3 -15 13q0 14 11 39q-30 5 -32 6q-25 15 -44 60zM418 400q-23 18 -63 62q24 40 68 67
q31 -25 51 -50q46 38 72 52q37 -29 61 -69q-41 -28 -72 -56q-8 10 -27 31t-27 30q-21 -21 -63 -67zM243 528q-43 0 -82 -54h9q78 0 112 16q1 3 1 9q0 29 -40 29zM835 168q-23 -89 -83.5 -128.5t-128.5 -39.5q-133 0 -133 157q0 9 2 37q-79 -27 -185 -36q32 -51 32 -139
q0 -114 -51 -192.5t-151 -102.5q-89 18 -129 48l-3 14q127 -4 214 65t82 171q-24 57 -93 123q14 44 48 79q161 8 293 43q-4 -27 -4 -55q0 -128 109 -128q96 0 131 48q1 30 -11 78t-33 87q10 33 58 81q36 -89 36 -210zM738 -138q-21 -21 -63 -67q-23 18 -63 62q24 40 68 67
q31 -25 51 -50q46 38 72 52q37 -29 61 -69q-41 -28 -72 -56q-8 10 -27 31t-27 30zM739 -207q37 -29 60 -63q-37 -29 -66 -64q-37 30 -61 64q24 44 67 63z" />
    <glyph glyph-name="uniFB58FE98FB8B" unicode="&#xfb58;&#xfe98;&#xfb8b;" 
d="M164 443q-37 30 -61 64q24 44 67 63q37 -29 60 -63q-37 -29 -66 -64zM418 400q-23 18 -63 62q24 40 68 67q31 -25 51 -50q46 38 72 52q37 -29 61 -69q-41 -28 -72 -56q-8 10 -27 31t-27 30q-21 -21 -63 -67zM109 309q-23 18 -63 62q24 40 68 67q31 -25 51 -50
q46 38 72 52q37 -29 61 -69q-41 -28 -72 -56q-8 10 -27 31t-27 30q-21 -21 -63 -67zM835 168q-23 -89 -83.5 -128.5t-128.5 -39.5q-133 0 -133 157q0 9 2 37q-79 -27 -185 -36q32 -51 32 -139q0 -114 -51 -192.5t-151 -102.5q-89 18 -129 48l-3 14q127 -4 214 65t82 171
q-24 57 -93 123q14 44 48 79q161 8 293 43q-4 -27 -4 -55q0 -128 109 -128q96 0 131 48q1 30 -11 78t-33 87q10 33 58 81q36 -89 36 -210zM738 -138q-21 -21 -63 -67q-23 18 -63 62q24 40 68 67q31 -25 51 -50q46 38 72 52q37 -29 61 -69q-41 -28 -72 -56q-8 10 -27 31
t-27 30zM739 -207q37 -29 60 -63q-37 -29 -66 -64q-37 30 -61 64q24 44 67 63z" />
    <glyph glyph-name="uniFB58FE98FEE6" unicode="&#xfb58;&#xfe98;&#xfee6;" horiz-adv-x="1089" 
d="M607 400q-23 18 -63 62q24 40 68 67q31 -25 51 -50q46 38 72 52q37 -29 61 -69q-41 -28 -72 -56q-8 10 -27 31t-27 30q-21 -21 -63 -67zM294 255q-37 30 -61 64q24 44 67 63q37 -29 60 -63q-37 -29 -66 -64zM1024 168q-23 -89 -83.5 -128.5t-128.5 -39.5q-148 0 -131 191
q-73 -29 -177 -34q26 -75 31 -129q1 -71 -22 -127.5t-62.5 -90t-87 -50.5t-98.5 -17q-35 0 -67.5 10t-63.5 31t-49.5 61t-18.5 94q0 50 16.5 109.5t42.5 98.5l8 -23q-17 -73 -17 -131q0 -166 163 -166q77 0 134.5 28.5t77.5 82.5q-7 80 -65 207q12 42 48 79q160 8 264 43
q-25 -183 105 -183q96 0 131 48q1 30 -11 78t-33 87q10 33 58 81q36 -89 36 -210zM927 -138q-21 -21 -63 -67q-23 18 -63 62q24 40 68 67q31 -25 51 -50q46 38 72 52q37 -29 61 -69q-41 -28 -72 -56q-8 10 -27 31t-27 30zM928 -207q37 -29 60 -63q-37 -29 -66 -64
q-37 30 -61 64q24 44 67 63z" />
    <glyph glyph-name="uniFB58FE9CFEAE" unicode="&#xfb58;&#xfe9c;&#xfeae;" 
d="M478 534q-37 30 -61 64q24 44 67 63q37 -29 60 -63q-37 -29 -66 -64zM423 400q-23 18 -63 62q24 40 68 67q31 -25 51 -50q46 38 72 52q37 -29 61 -69q-41 -28 -72 -56q-8 10 -27 31t-27 30q-21 -21 -63 -67zM835 168q-23 -89 -83.5 -128.5t-128.5 -39.5q-133 0 -133 157
q0 9 2 37q-79 -27 -185 -36q32 -51 32 -139q0 -114 -51 -192.5t-151 -102.5q-89 18 -129 48l-3 14q127 -4 214 65t82 171q-24 57 -93 123q14 44 48 79q161 8 293 43q-4 -27 -4 -55q0 -128 109 -128q96 0 131 48q1 30 -11 78t-33 87q10 33 58 81q36 -89 36 -210zM738 -138
q-21 -21 -63 -67q-23 18 -63 62q24 40 68 67q31 -25 51 -50q46 38 72 52q37 -29 61 -69q-41 -28 -72 -56q-8 10 -27 31t-27 30zM739 -207q37 -29 60 -63q-37 -29 -66 -64q-37 30 -61 64q24 44 67 63z" />
    <glyph glyph-name="uniFB58FE9CFEB0" unicode="&#xfb58;&#xfe9c;&#xfeb0;" 
d="M478 534q-37 30 -61 64q24 44 67 63q37 -29 60 -63q-37 -29 -66 -64zM423 400q-23 18 -63 62q24 40 68 67q31 -25 51 -50q46 38 72 52q37 -29 61 -69q-41 -28 -72 -56q-8 10 -27 31t-27 30q-21 -21 -63 -67zM167 319q-37 30 -61 64q24 44 67 63q37 -29 60 -63
q-37 -29 -66 -64zM835 168q-23 -89 -83.5 -128.5t-128.5 -39.5q-133 0 -133 157q0 9 2 37q-79 -27 -185 -36q32 -51 32 -139q0 -114 -51 -192.5t-151 -102.5q-89 18 -129 48l-3 14q127 -4 214 65t82 171q-24 57 -93 123q14 44 48 79q161 8 293 43q-4 -27 -4 -55
q0 -128 109 -128q96 0 131 48q1 30 -11 78t-33 87q10 33 58 81q36 -89 36 -210zM738 -138q-21 -21 -63 -67q-23 18 -63 62q24 40 68 67q31 -25 51 -50q46 38 72 52q37 -29 61 -69q-41 -28 -72 -56q-8 10 -27 31t-27 30zM739 -207q37 -29 60 -63q-37 -29 -66 -64
q-37 30 -61 64q24 44 67 63z" />
    <glyph glyph-name="uniFB58FE9CFB8D" unicode="&#xfb58;&#xfe9c;&#xfb8d;" horiz-adv-x="899" 
d="M25 492q51 -14 102 -17q11 18 22 33q-3 92 -22 165q18 18 43 23q7 -40 7 -141v-14q40 38 74 38q27 0 43 -20.5t16 -51.5q0 -28 -22 -55q-48 -27 -154 -27h-3q-17 -29 -26 -51q-15 -3 -15 13q0 14 11 39q-30 5 -32 6q-25 15 -44 60zM478 534q-37 30 -61 64q24 44 67 63
q37 -29 60 -63q-37 -29 -66 -64zM423 400q-23 18 -63 62q24 40 68 67q31 -25 51 -50q46 38 72 52q37 -29 61 -69q-41 -28 -72 -56q-8 10 -27 31t-27 30q-21 -21 -63 -67zM243 528q-43 0 -82 -54h9q78 0 112 16q1 3 1 9q0 29 -40 29zM835 168q-23 -89 -83.5 -128.5
t-128.5 -39.5q-133 0 -133 157q0 9 2 37q-79 -27 -185 -36q32 -51 32 -139q0 -114 -51 -192.5t-151 -102.5q-89 18 -129 48l-3 14q127 -4 214 65t82 171q-24 57 -93 123q14 44 48 79q161 8 293 43q-4 -27 -4 -55q0 -128 109 -128q96 0 131 48q1 30 -11 78t-33 87
q10 33 58 81q36 -89 36 -210zM738 -138q-21 -21 -63 -67q-23 18 -63 62q24 40 68 67q31 -25 51 -50q46 38 72 52q37 -29 61 -69q-41 -28 -72 -56q-8 10 -27 31t-27 30zM739 -207q37 -29 60 -63q-37 -29 -66 -64q-37 30 -61 64q24 44 67 63z" />
    <glyph glyph-name="uniFB58FE9CFB8B" unicode="&#xfb58;&#xfe9c;&#xfb8b;" 
d="M478 534q-37 30 -61 64q24 44 67 63q37 -29 60 -63q-37 -29 -66 -64zM164 443q-37 30 -61 64q24 44 67 63q37 -29 60 -63q-37 -29 -66 -64zM423 400q-23 18 -63 62q24 40 68 67q31 -25 51 -50q46 38 72 52q37 -29 61 -69q-41 -28 -72 -56q-8 10 -27 31t-27 30
q-21 -21 -63 -67zM109 309q-23 18 -63 62q24 40 68 67q31 -25 51 -50q46 38 72 52q37 -29 61 -69q-41 -28 -72 -56q-8 10 -27 31t-27 30q-21 -21 -63 -67zM835 168q-23 -89 -83.5 -128.5t-128.5 -39.5q-133 0 -133 157q0 9 2 37q-79 -27 -185 -36q32 -51 32 -139
q0 -114 -51 -192.5t-151 -102.5q-89 18 -129 48l-3 14q127 -4 214 65t82 171q-24 57 -93 123q14 44 48 79q161 8 293 43q-4 -27 -4 -55q0 -128 109 -128q96 0 131 48q1 30 -11 78t-33 87q10 33 58 81q36 -89 36 -210zM738 -138q-21 -21 -63 -67q-23 18 -63 62q24 40 68 67
q31 -25 51 -50q46 38 72 52q37 -29 61 -69q-41 -28 -72 -56q-8 10 -27 31t-27 30zM739 -207q37 -29 60 -63q-37 -29 -66 -64q-37 30 -61 64q24 44 67 63z" />
    <glyph glyph-name="uniFB58FE9CFEE6" unicode="&#xfb58;&#xfe9c;&#xfee6;" horiz-adv-x="1089" 
d="M667 534q-37 30 -61 64q24 44 67 63q37 -29 60 -63q-37 -29 -66 -64zM612 400q-23 18 -63 62q24 40 68 67q31 -25 51 -50q46 38 72 52q37 -29 61 -69q-41 -28 -72 -56q-8 10 -27 31t-27 30q-21 -21 -63 -67zM294 255q-37 30 -61 64q24 44 67 63q37 -29 60 -63
q-37 -29 -66 -64zM1024 168q-23 -89 -83.5 -128.5t-128.5 -39.5q-148 0 -131 191q-73 -29 -177 -34q26 -75 31 -129q1 -71 -22 -127.5t-62.5 -90t-87 -50.5t-98.5 -17q-35 0 -67.5 10t-63.5 31t-49.5 61t-18.5 94q0 50 16.5 109.5t42.5 98.5l8 -23q-17 -73 -17 -131
q0 -166 163 -166q77 0 134.5 28.5t77.5 82.5q-7 80 -65 207q12 42 48 79q160 8 264 43q-25 -183 105 -183q96 0 131 48q1 30 -11 78t-33 87q10 33 58 81q36 -89 36 -210zM927 -138q-21 -21 -63 -67q-23 18 -63 62q24 40 68 67q31 -25 51 -50q46 38 72 52q37 -29 61 -69
q-41 -28 -72 -56q-8 10 -27 31t-27 30zM928 -207q37 -29 60 -63q-37 -29 -66 -64q-37 30 -61 64q24 44 67 63z" />
    <glyph glyph-name="uniFB58FB69FEAE" unicode="&#xfb58;&#xfb69;&#xfeae;" 
d="M327 498q51 -14 102 -17q11 18 22 33q-3 92 -22 165q18 18 43 23q7 -40 7 -141v-14q40 38 74 38q27 0 43 -20.5t16 -51.5q0 -28 -22 -55q-48 -27 -154 -27h-3q-17 -29 -26 -51q-15 -3 -15 13q0 14 11 39q-30 5 -32 6q-25 15 -44 60zM545 534q-43 0 -82 -54h9q78 0 112 16
q1 3 1 9q0 29 -40 29zM835 168q-23 -89 -83.5 -128.5t-128.5 -39.5q-133 0 -133 157q0 9 2 37q-79 -27 -185 -36q32 -51 32 -139q0 -114 -51 -192.5t-151 -102.5q-89 18 -129 48l-3 14q127 -4 214 65t82 171q-24 57 -93 123q14 44 48 79q161 8 293 43q-4 -27 -4 -55
q0 -128 109 -128q96 0 131 48q1 30 -11 78t-33 87q10 33 58 81q36 -89 36 -210zM738 -138q-21 -21 -63 -67q-23 18 -63 62q24 40 68 67q31 -25 51 -50q46 38 72 52q37 -29 61 -69q-41 -28 -72 -56q-8 10 -27 31t-27 30zM739 -207q37 -29 60 -63q-37 -29 -66 -64
q-37 30 -61 64q24 44 67 63z" />
    <glyph glyph-name="uniFB58FB69FEB0" unicode="&#xfb58;&#xfb69;&#xfeb0;" 
d="M327 498q51 -14 102 -17q11 18 22 33q-3 92 -22 165q18 18 43 23q7 -40 7 -141v-14q40 38 74 38q27 0 43 -20.5t16 -51.5q0 -28 -22 -55q-48 -27 -154 -27h-3q-17 -29 -26 -51q-15 -3 -15 13q0 14 11 39q-30 5 -32 6q-25 15 -44 60zM545 534q-43 0 -82 -54h9q78 0 112 16
q1 3 1 9q0 29 -40 29zM167 319q-37 30 -61 64q24 44 67 63q37 -29 60 -63q-37 -29 -66 -64zM835 168q-23 -89 -83.5 -128.5t-128.5 -39.5q-133 0 -133 157q0 9 2 37q-79 -27 -185 -36q32 -51 32 -139q0 -114 -51 -192.5t-151 -102.5q-89 18 -129 48l-3 14q127 -4 214 65
t82 171q-24 57 -93 123q14 44 48 79q161 8 293 43q-4 -27 -4 -55q0 -128 109 -128q96 0 131 48q1 30 -11 78t-33 87q10 33 58 81q36 -89 36 -210zM738 -138q-21 -21 -63 -67q-23 18 -63 62q24 40 68 67q31 -25 51 -50q46 38 72 52q37 -29 61 -69q-41 -28 -72 -56
q-8 10 -27 31t-27 30zM739 -207q37 -29 60 -63q-37 -29 -66 -64q-37 30 -61 64q24 44 67 63z" />
    <glyph glyph-name="uniFB58FB69FB8D" unicode="&#xfb58;&#xfb69;&#xfb8d;" horiz-adv-x="899" 
d="M327 548q51 -14 102 -17q11 18 22 33q-3 92 -22 165q18 18 43 23q7 -40 7 -141v-14q40 38 74 38q27 0 43 -20.5t16 -51.5q0 -28 -22 -55q-48 -27 -154 -27h-3q-17 -29 -26 -51q-15 -3 -15 13q0 14 11 39q-30 5 -32 6q-25 15 -44 60zM25 492q51 -14 102 -17q11 18 22 33
q-3 92 -22 165q18 18 43 23q7 -40 7 -141v-14q40 38 74 38q27 0 43 -20.5t16 -51.5q0 -28 -22 -55q-48 -27 -154 -27h-3q-17 -29 -26 -51q-15 -3 -15 13q0 14 11 39q-30 5 -32 6q-25 15 -44 60zM545 584q-43 0 -82 -54h9q78 0 112 16q1 3 1 9q0 29 -40 29zM243 528
q-43 0 -82 -54h9q78 0 112 16q1 3 1 9q0 29 -40 29zM835 168q-23 -89 -83.5 -128.5t-128.5 -39.5q-133 0 -133 157q0 9 2 37q-79 -27 -185 -36q32 -51 32 -139q0 -114 -51 -192.5t-151 -102.5q-89 18 -129 48l-3 14q127 -4 214 65t82 171q-24 57 -93 123q14 44 48 79
q161 8 293 43q-4 -27 -4 -55q0 -128 109 -128q96 0 131 48q1 30 -11 78t-33 87q10 33 58 81q36 -89 36 -210zM738 -138q-21 -21 -63 -67q-23 18 -63 62q24 40 68 67q31 -25 51 -50q46 38 72 52q37 -29 61 -69q-41 -28 -72 -56q-8 10 -27 31t-27 30zM739 -207q37 -29 60 -63
q-37 -29 -66 -64q-37 30 -61 64q24 44 67 63z" />
    <glyph glyph-name="uniFB58FB69FB8B" unicode="&#xfb58;&#xfb69;&#xfb8b;" 
d="M327 498q51 -14 102 -17q11 18 22 33q-3 92 -22 165q18 18 43 23q7 -40 7 -141v-14q40 38 74 38q27 0 43 -20.5t16 -51.5q0 -28 -22 -55q-48 -27 -154 -27h-3q-17 -29 -26 -51q-15 -3 -15 13q0 14 11 39q-30 5 -32 6q-25 15 -44 60zM164 443q-37 30 -61 64q24 44 67 63
q37 -29 60 -63q-37 -29 -66 -64zM545 534q-43 0 -82 -54h9q78 0 112 16q1 3 1 9q0 29 -40 29zM109 309q-23 18 -63 62q24 40 68 67q31 -25 51 -50q46 38 72 52q37 -29 61 -69q-41 -28 -72 -56q-8 10 -27 31t-27 30q-21 -21 -63 -67zM835 168q-23 -89 -83.5 -128.5
t-128.5 -39.5q-133 0 -133 157q0 9 2 37q-79 -27 -185 -36q32 -51 32 -139q0 -114 -51 -192.5t-151 -102.5q-89 18 -129 48l-3 14q127 -4 214 65t82 171q-24 57 -93 123q14 44 48 79q161 8 293 43q-4 -27 -4 -55q0 -128 109 -128q96 0 131 48q1 30 -11 78t-33 87
q10 33 58 81q36 -89 36 -210zM738 -138q-21 -21 -63 -67q-23 18 -63 62q24 40 68 67q31 -25 51 -50q46 38 72 52q37 -29 61 -69q-41 -28 -72 -56q-8 10 -27 31t-27 30zM739 -207q37 -29 60 -63q-37 -29 -66 -64q-37 30 -61 64q24 44 67 63z" />
    <glyph glyph-name="uniFB58FB69FEE6" unicode="&#xfb58;&#xfb69;&#xfee6;" horiz-adv-x="1089" 
d="M516 498q51 -14 102 -17q11 18 22 33q-3 92 -22 165q18 18 43 23q7 -40 7 -141v-14q40 38 74 38q27 0 43 -20.5t16 -51.5q0 -28 -22 -55q-48 -27 -154 -27h-3q-17 -29 -26 -51q-15 -3 -15 13q0 14 11 39q-30 5 -32 6q-25 15 -44 60zM734 534q-43 0 -82 -54h9q78 0 112 16
q1 3 1 9q0 29 -40 29zM294 255q-37 30 -61 64q24 44 67 63q37 -29 60 -63q-37 -29 -66 -64zM1024 168q-23 -89 -83.5 -128.5t-128.5 -39.5q-148 0 -131 191q-73 -29 -177 -34q26 -75 31 -129q1 -71 -22 -127.5t-62.5 -90t-87 -50.5t-98.5 -17q-35 0 -67.5 10t-63.5 31
t-49.5 61t-18.5 94q0 50 16.5 109.5t42.5 98.5l8 -23q-17 -73 -17 -131q0 -166 163 -166q77 0 134.5 28.5t77.5 82.5q-7 80 -65 207q12 42 48 79q160 8 264 43q-25 -183 105 -183q96 0 131 48q1 30 -11 78t-33 87q10 33 58 81q36 -89 36 -210zM927 -138q-21 -21 -63 -67
q-23 18 -63 62q24 40 68 67q31 -25 51 -50q46 38 72 52q37 -29 61 -69q-41 -28 -72 -56q-8 10 -27 31t-27 30zM928 -207q37 -29 60 -63q-37 -29 -66 -64q-37 30 -61 64q24 44 67 63z" />
    <glyph glyph-name="uniFB58FEA0" unicode="&#xfb58;&#xfea0;" horiz-adv-x="621" 
d="M586 237l6 -9q-16 -37 -38 -65q-79 3 -245 -71q-206 -92 -336 -92q-18 0 -18 27q0 31 8.5 44t36.5 13q51 0 109 12t94.5 24.5t97.5 35.5t80 30q-20 3 -60.5 11.5t-73 13t-64.5 4.5q-68 0 -97 -19l-14 4q37 95 138.5 174t184.5 79q27 0 45 -11q23 -31 43 -94l-10 -10
q-36 41 -97 41q-38 0 -87.5 -21t-92.5 -71q58 0 170.5 -26.5t174.5 -26.5q23 0 45 3zM487 -27q37 -29 61 -69q-41 -28 -72 -56q-8 10 -27 31t-27 30q-21 -21 -63 -67q-23 18 -63 62q24 40 68 67q31 -25 51 -50q46 38 72 52zM423 -160q37 -29 60 -63q-37 -29 -66 -64
q-37 30 -61 64q24 44 67 63zM244 -163q37 -29 60 -63q-37 -29 -66 -64q-37 30 -61 64q24 44 67 63z" />
    <glyph glyph-name="uniFB58FB7D" unicode="&#xfb58;&#xfb7d;" horiz-adv-x="621" 
d="M554 163q-79 3 -245 -71q-206 -92 -336 -92q-18 0 -18 27q0 31 8.5 44t36.5 13q51 0 109 12t94.5 24.5t97.5 35.5t80 30q-20 3 -60.5 11.5t-73 13t-64.5 4.5q-68 0 -97 -19l-14 4q37 95 138.5 174t184.5 79q27 0 45 -11q23 -31 43 -94l-10 -10q-36 41 -97 41
q-38 0 -87.5 -21t-92.5 -71q58 0 170.5 -26.5t174.5 -26.5q23 0 45 3l6 -9q-16 -37 -38 -65zM517 -18q37 -29 61 -69q-41 -28 -72 -56q-8 10 -27 31t-27 30q-21 -21 -63 -67q-23 18 -63 62q24 40 68 67q31 -25 51 -50q46 38 72 52zM270 -127q37 -29 61 -69q-41 -28 -72 -56
q-8 10 -27 31t-27 30q-21 -21 -63 -67q-23 18 -63 62q24 40 68 67q31 -25 51 -50q46 38 72 52zM453 -151q37 -29 60 -63q-37 -29 -66 -64q-37 30 -61 64q24 44 67 63zM206 -260q37 -29 60 -63q-37 -29 -66 -64q-37 30 -61 64q24 44 67 63z" />
    <glyph glyph-name="uniFB58FEA4" unicode="&#xfb58;&#xfea4;" horiz-adv-x="621" 
d="M586 237l6 -9q-16 -37 -38 -65q-79 3 -245 -71q-206 -92 -336 -92q-18 0 -18 27q0 31 8.5 44t36.5 13q51 0 109 12t94.5 24.5t97.5 35.5t80 30q-20 3 -60.5 11.5t-73 13t-64.5 4.5q-68 0 -97 -19l-14 4q37 95 138.5 174t184.5 79q27 0 45 -11q23 -31 43 -94l-10 -10
q-36 41 -97 41q-38 0 -87.5 -21t-92.5 -71q58 0 170.5 -26.5t174.5 -26.5q23 0 45 3zM452 -37q37 -29 61 -69q-41 -28 -72 -56q-8 10 -27 31t-27 30q-21 -21 -63 -67q-23 18 -63 62q24 40 68 67q31 -25 51 -50q46 38 72 52zM388 -170q37 -29 60 -63q-37 -29 -66 -64
q-37 30 -61 64q24 44 67 63z" />
    <glyph glyph-name="uniFB58FEA8" unicode="&#xfb58;&#xfea8;" horiz-adv-x="621" 
d="M200 504q-37 30 -61 64q24 44 67 63q37 -29 60 -63q-37 -29 -66 -64zM586 237l6 -9q-16 -37 -38 -65q-79 3 -245 -71q-206 -92 -336 -92q-18 0 -18 27q0 31 8.5 44t36.5 13q51 0 109 12t94.5 24.5t97.5 35.5t80 30q-20 3 -60.5 11.5t-73 13t-64.5 4.5q-68 0 -97 -19
l-14 4q37 95 138.5 174t184.5 79q27 0 45 -11q23 -31 43 -94l-10 -10q-36 41 -97 41q-38 0 -87.5 -21t-92.5 -71q58 0 170.5 -26.5t174.5 -26.5q23 0 45 3zM452 -37q37 -29 61 -69q-41 -28 -72 -56q-8 10 -27 31t-27 30q-21 -21 -63 -67q-23 18 -63 62q24 40 68 67
q31 -25 51 -50q46 38 72 52zM388 -170q37 -29 60 -63q-37 -29 -66 -64q-37 30 -61 64q24 44 67 63z" />
    <glyph glyph-name="uniFB59FEAE" unicode="&#xfb59;&#xfeae;" horiz-adv-x="651" 
d="M493 192q-73 -25 -186 -34q32 -51 32 -139q0 -114 -51 -192.5t-151 -102.5q-89 18 -129 48l-3 14q127 -4 214 65t82 171q-24 57 -93 123q14 44 48 79q181 9 294 43q-12 -54 -12 -89q0 -56 28 -75t85 -19q0 -46 -5 -65t-22 -19q-20 0 -38 3t-45 13.5t-43.5 37t-16.5 66.5
q0 30 12 72zM581 -85q37 -29 61 -69q-41 -28 -72 -56q-8 10 -27 31t-27 30q-21 -21 -63 -67q-23 18 -63 62q24 40 68 67q31 -25 51 -50q46 38 72 52zM517 -218q37 -29 60 -63q-37 -29 -66 -64q-37 30 -61 64q24 44 67 63z" />
    <glyph glyph-name="uniFB59FEB0" unicode="&#xfb59;&#xfeb0;" horiz-adv-x="651" 
d="M177 309q-37 30 -61 64q24 44 67 63q37 -29 60 -63q-37 -29 -66 -64zM493 192q-73 -25 -186 -34q32 -51 32 -139q0 -114 -51 -192.5t-151 -102.5q-89 18 -129 48l-3 14q127 -4 214 65t82 171q-24 57 -93 123q14 44 48 79q181 9 294 43q-12 -54 -12 -89q0 -56 28 -75
t85 -19q0 -46 -5 -65t-22 -19q-20 0 -38 3t-45 13.5t-43.5 37t-16.5 66.5q0 30 12 72zM581 -85q37 -29 61 -69q-41 -28 -72 -56q-8 10 -27 31t-27 30q-21 -21 -63 -67q-23 18 -63 62q24 40 68 67q31 -25 51 -50q46 38 72 52zM517 -218q37 -29 60 -63q-37 -29 -66 -64
q-37 30 -61 64q24 44 67 63z" />
    <glyph glyph-name="uniFB59FB8D" unicode="&#xfb59;&#xfb8d;" horiz-adv-x="651" 
d="M23 397q51 -14 102 -17q11 18 22 33q-3 92 -22 165q18 18 43 23q7 -40 7 -141v-14q40 38 74 38q27 0 43 -20.5t16 -51.5q0 -28 -22 -55q-48 -27 -154 -27h-3q-17 -30 -26 -51q-15 -3 -15 13q0 14 11 39q-30 5 -32 6q-25 15 -44 60zM241 433q-43 0 -82 -54h9q78 0 112 16
q1 3 1 9q0 29 -40 29zM493 192q-73 -25 -186 -34q32 -51 32 -139q0 -114 -51 -192.5t-151 -102.5q-89 18 -129 48l-3 14q127 -4 214 65t82 171q-24 57 -93 123q14 44 48 79q181 9 294 43q-12 -54 -12 -89q0 -56 28 -75t85 -19q0 -46 -5 -65t-22 -19q-20 0 -38 3t-45 13.5
t-43.5 37t-16.5 66.5q0 30 12 72zM581 -85q37 -29 61 -69q-41 -28 -72 -56q-8 10 -27 31t-27 30q-21 -21 -63 -67q-23 18 -63 62q24 40 68 67q31 -25 51 -50q46 38 72 52zM517 -218q37 -29 60 -63q-37 -29 -66 -64q-37 30 -61 64q24 44 67 63z" />
    <glyph glyph-name="uniFB59FB8B" unicode="&#xfb59;&#xfb8b;" horiz-adv-x="651" 
d="M174 433q-37 30 -61 64q24 44 67 63q37 -29 60 -63q-37 -29 -66 -64zM119 299q-23 18 -63 62q24 40 68 67q31 -25 51 -50q46 38 72 52q37 -29 61 -69q-41 -28 -72 -56q-8 10 -27 31t-27 30q-21 -21 -63 -67zM493 192q-73 -25 -186 -34q32 -51 32 -139q0 -114 -51 -192.5
t-151 -102.5q-89 18 -129 48l-3 14q127 -4 214 65t82 171q-24 57 -93 123q14 44 48 79q181 9 294 43q-12 -54 -12 -89q0 -56 28 -75t85 -19q0 -46 -5 -65t-22 -19q-20 0 -38 3t-45 13.5t-43.5 37t-16.5 66.5q0 30 12 72zM581 -85q37 -29 61 -69q-41 -28 -72 -56
q-8 10 -27 31t-27 30q-21 -21 -63 -67q-23 18 -63 62q24 40 68 67q31 -25 51 -50q46 38 72 52zM517 -218q37 -29 60 -63q-37 -29 -66 -64q-37 30 -61 64q24 44 67 63z" />
    <glyph glyph-name="uniFB58FEE2" unicode="&#xfb58;&#xfee2;" horiz-adv-x="611" 
d="M489 409q40 -28 77 -89l-10 -10q-60 32 -130 32q-128 0 -175 -70q31 7 57 7q119 0 151 -100q0 -71 -37.5 -132t-109.5 -61q-54 0 -87 41.5t-40 123.5q-60 -48 -76 -115q25 -150 39 -318q-10 -49 -34 -98l-13 -5q-6 111 -23.5 216.5t-17.5 140.5q0 93 36.5 166.5
t99.5 110.5q23 62 66 102t84.5 53t85.5 13q32 0 57 -8zM419 118q-16 41 -48.5 59t-68.5 18t-72 -17q11 -108 96 -108q70 0 93 48zM485 -59q37 -29 61 -69q-41 -28 -72 -56q-8 10 -27 31t-27 30q-21 -21 -63 -67q-23 18 -63 62q24 40 68 67q31 -25 51 -50q46 38 72 52z
M421 -192q37 -29 60 -63q-37 -29 -66 -64q-37 30 -61 64q24 44 67 63z" />
    <glyph glyph-name="uniFB58FEE4" unicode="&#xfb58;&#xfee4;" horiz-adv-x="566" 
d="M444 293q40 -28 77 -89l-10 -10q-60 32 -130 32q-20 0 -41.5 -3t-51 -11t-54 -26.5t-37.5 -45.5q39 16 81 16q92 0 124 -87q0 -45 -14.5 -89.5t-49.5 -79t-83 -34.5q-104 0 -116 170q-86 -36 -166 -36q-18 0 -18 27q0 31 8.5 44t36.5 13q79 0 145 31q16 52 45 90.5
t63.5 58t67.5 28.5t66 9q32 0 57 -8zM359 5q-13 66 -90 66q-35 0 -82 -15q10 -106 79 -106q33 0 59 16t34 39zM440 -176q37 -29 61 -69q-41 -28 -72 -56q-8 10 -27 31t-27 30q-21 -21 -63 -67q-23 18 -63 62q24 40 68 67q31 -25 51 -50q46 38 72 52zM376 -309q37 -29 60 -63
q-37 -29 -66 -64q-37 30 -61 64q24 44 67 63z" />
    <glyph glyph-name="uniFB59FEE6" unicode="&#xfb59;&#xfee6;" horiz-adv-x="839" 
d="M294 255q-37 30 -61 64q24 44 67 63q37 -29 60 -63q-37 -29 -66 -64zM504 157q26 -75 31 -129q1 -71 -22 -127.5t-62.5 -90t-87 -50.5t-98.5 -17q-35 0 -67.5 10t-63.5 31t-49.5 61t-18.5 94q0 50 16.5 109.5t42.5 98.5l8 -23q-17 -73 -17 -131q0 -166 163 -166
q77 0 134.5 28.5t77.5 82.5q-7 80 -65 207q12 42 48 79q160 8 264 43q-11 -47 -12 -80.5t6 -53t23.5 -31t35.5 -15t48 -3.5q0 -46 -5 -65t-22 -19q-12 0 -23 1t-29.5 5t-32.5 11t-28.5 21.5t-22 34t-7 50t10.5 68.5q-72 -29 -176 -34zM770 -85q37 -29 61 -69
q-41 -28 -72 -56q-8 10 -27 31t-27 30q-21 -21 -63 -67q-23 18 -63 62q24 40 68 67q31 -25 51 -50q46 38 72 52zM706 -218q37 -29 60 -63q-37 -29 -66 -64q-37 30 -61 64q24 44 67 63z" />
    <glyph glyph-name="uniFB58FEE8FEAE" unicode="&#xfb58;&#xfee8;&#xfeae;" 
d="M481 410q-37 30 -61 64q24 44 67 63q37 -29 60 -63q-37 -29 -66 -64zM835 168q-23 -89 -83.5 -128.5t-128.5 -39.5q-133 0 -133 157q0 9 2 37q-79 -27 -185 -36q32 -51 32 -139q0 -114 -51 -192.5t-151 -102.5q-89 18 -129 48l-3 14q127 -4 214 65t82 171q-24 57 -93 123
q14 44 48 79q161 8 293 43q-4 -27 -4 -55q0 -128 109 -128q96 0 131 48q1 30 -11 78t-33 87q10 33 58 81q36 -89 36 -210zM738 -138q-21 -21 -63 -67q-23 18 -63 62q24 40 68 67q31 -25 51 -50q46 38 72 52q37 -29 61 -69q-41 -28 -72 -56q-8 10 -27 31t-27 30zM739 -207
q37 -29 60 -63q-37 -29 -66 -64q-37 30 -61 64q24 44 67 63z" />
    <glyph glyph-name="uniFB58FEE8FEB0" unicode="&#xfb58;&#xfee8;&#xfeb0;" 
d="M481 410q-37 30 -61 64q24 44 67 63q37 -29 60 -63q-37 -29 -66 -64zM167 319q-37 30 -61 64q24 44 67 63q37 -29 60 -63q-37 -29 -66 -64zM835 168q-23 -89 -83.5 -128.5t-128.5 -39.5q-133 0 -133 157q0 9 2 37q-79 -27 -185 -36q32 -51 32 -139q0 -114 -51 -192.5
t-151 -102.5q-89 18 -129 48l-3 14q127 -4 214 65t82 171q-24 57 -93 123q14 44 48 79q161 8 293 43q-4 -27 -4 -55q0 -128 109 -128q96 0 131 48q1 30 -11 78t-33 87q10 33 58 81q36 -89 36 -210zM738 -138q-21 -21 -63 -67q-23 18 -63 62q24 40 68 67q31 -25 51 -50
q46 38 72 52q37 -29 61 -69q-41 -28 -72 -56q-8 10 -27 31t-27 30zM739 -207q37 -29 60 -63q-37 -29 -66 -64q-37 30 -61 64q24 44 67 63z" />
    <glyph glyph-name="uniFB58FEE8FB8D" unicode="&#xfb58;&#xfee8;&#xfb8d;" horiz-adv-x="899" 
d="M25 492q51 -14 102 -17q11 18 22 33q-3 92 -22 165q18 18 43 23q7 -40 7 -141v-14q40 38 74 38q27 0 43 -20.5t16 -51.5q0 -28 -22 -55q-48 -27 -154 -27h-3q-17 -29 -26 -51q-15 -3 -15 13q0 14 11 39q-30 5 -32 6q-25 15 -44 60zM481 410q-37 30 -61 64q24 44 67 63
q37 -29 60 -63q-37 -29 -66 -64zM243 528q-43 0 -82 -54h9q78 0 112 16q1 3 1 9q0 29 -40 29zM835 168q-23 -89 -83.5 -128.5t-128.5 -39.5q-133 0 -133 157q0 9 2 37q-79 -27 -185 -36q32 -51 32 -139q0 -114 -51 -192.5t-151 -102.5q-89 18 -129 48l-3 14q127 -4 214 65
t82 171q-24 57 -93 123q14 44 48 79q161 8 293 43q-4 -27 -4 -55q0 -128 109 -128q96 0 131 48q1 30 -11 78t-33 87q10 33 58 81q36 -89 36 -210zM738 -138q-21 -21 -63 -67q-23 18 -63 62q24 40 68 67q31 -25 51 -50q46 38 72 52q37 -29 61 -69q-41 -28 -72 -56
q-8 10 -27 31t-27 30zM739 -207q37 -29 60 -63q-37 -29 -66 -64q-37 30 -61 64q24 44 67 63z" />
    <glyph glyph-name="uniFB58FEE8FB8B" unicode="&#xfb58;&#xfee8;&#xfb8b;" 
d="M164 443q-37 30 -61 64q24 44 67 63q37 -29 60 -63q-37 -29 -66 -64zM481 410q-37 30 -61 64q24 44 67 63q37 -29 60 -63q-37 -29 -66 -64zM109 309q-23 18 -63 62q24 40 68 67q31 -25 51 -50q46 38 72 52q37 -29 61 -69q-41 -28 -72 -56q-8 10 -27 31t-27 30
q-21 -21 -63 -67zM835 168q-23 -89 -83.5 -128.5t-128.5 -39.5q-133 0 -133 157q0 9 2 37q-79 -27 -185 -36q32 -51 32 -139q0 -114 -51 -192.5t-151 -102.5q-89 18 -129 48l-3 14q127 -4 214 65t82 171q-24 57 -93 123q14 44 48 79q161 8 293 43q-4 -27 -4 -55
q0 -128 109 -128q96 0 131 48q1 30 -11 78t-33 87q10 33 58 81q36 -89 36 -210zM738 -138q-21 -21 -63 -67q-23 18 -63 62q24 40 68 67q31 -25 51 -50q46 38 72 52q37 -29 61 -69q-41 -28 -72 -56q-8 10 -27 31t-27 30zM739 -207q37 -29 60 -63q-37 -29 -66 -64
q-37 30 -61 64q24 44 67 63z" />
    <glyph glyph-name="uniFB58FEE8FEE6" unicode="&#xfb58;&#xfee8;&#xfee6;" horiz-adv-x="1089" 
d="M670 410q-37 30 -61 64q24 44 67 63q37 -29 60 -63q-37 -29 -66 -64zM294 255q-37 30 -61 64q24 44 67 63q37 -29 60 -63q-37 -29 -66 -64zM1024 168q-23 -89 -83.5 -128.5t-128.5 -39.5q-148 0 -131 191q-73 -29 -177 -34q26 -75 31 -129q1 -71 -22 -127.5t-62.5 -90
t-87 -50.5t-98.5 -17q-35 0 -67.5 10t-63.5 31t-49.5 61t-18.5 94q0 50 16.5 109.5t42.5 98.5l8 -23q-17 -73 -17 -131q0 -166 163 -166q77 0 134.5 28.5t77.5 82.5q-7 80 -65 207q12 42 48 79q160 8 264 43q-25 -183 105 -183q96 0 131 48q1 30 -11 78t-33 87q10 33 58 81
q36 -89 36 -210zM927 -138q-21 -21 -63 -67q-23 18 -63 62q24 40 68 67q31 -25 51 -50q46 38 72 52q37 -29 61 -69q-41 -28 -72 -56q-8 10 -27 31t-27 30zM928 -207q37 -29 60 -63q-37 -29 -66 -64q-37 30 -61 64q24 44 67 63z" />
    <glyph glyph-name="uniFB58FEF0" unicode="&#xfb58;&#xfef0;" horiz-adv-x="710" 
d="M568 -51q0 -81 -83 -143.5t-203 -62.5q-101 0 -166.5 46.5t-65.5 152.5q0 110 61 194l8 -23q-20 -45 -20 -120q0 -166 204 -166q188 0 236 115q-15 31 -68.5 58t-121.5 37q9 37 31 79q35 -22 90 -22q76 0 125 38q1 30 -11 78t-33 87q10 33 58 81q36 -89 36 -210
q-29 -89 -114 -132q37 -37 37 -87zM526 -350q-21 -21 -63 -67q-23 18 -63 62q24 40 68 67q31 -25 51 -50q46 38 72 52q37 -29 61 -69q-41 -28 -72 -56q-8 10 -27 31t-27 30zM527 -419q37 -29 60 -63q-37 -29 -66 -64q-37 30 -61 64q24 44 67 63z" />
    <glyph glyph-name="uniFB59FEF0" unicode="&#xfb59;&#xfef0;" horiz-adv-x="752" 
d="M373 75q18 -19 56.5 -35t70 -31t38.5 -36q-22 -103 -100.5 -166.5t-183.5 -63.5q-40 0 -74.5 10t-64.5 31.5t-47.5 62t-17.5 95.5q0 110 61 194l8 -23q-20 -45 -20 -120q0 -53 14.5 -88.5t41.5 -51t51 -21t56 -5.5q175 0 227 95q-12 20 -77 43.5t-87 52.5q0 106 74 181.5
t172 75.5q27 0 59 -8q-10 -43 -10 -76q0 -63 34.5 -85t96.5 -22q0 -46 -5 -65t-22 -19q-21 0 -41 3t-51 14t-50 39.5t-19 70.5q0 33 11 69q-61 3 -118.5 -29.5t-82.5 -91.5zM687 -165q37 -29 61 -69q-41 -28 -72 -56q-8 10 -27 31t-27 30q-21 -21 -63 -67q-23 18 -63 62
q24 40 68 67q31 -25 51 -50q46 38 72 52zM623 -298q37 -29 60 -63q-37 -29 -66 -64q-37 30 -61 64q24 44 67 63z" />
    <glyph glyph-name="uniFB58FEF2" unicode="&#xfb58;&#xfef2;" horiz-adv-x="710" 
d="M568 -51q0 -81 -83 -143.5t-203 -62.5q-101 0 -166.5 46.5t-65.5 152.5q0 110 61 194l8 -23q-20 -45 -20 -120q0 -166 204 -166q188 0 236 115q-15 31 -68.5 58t-121.5 37q9 37 31 79q35 -22 90 -22q76 0 125 38q1 30 -11 78t-33 87q10 33 58 81q36 -89 36 -210
q-29 -89 -114 -132q37 -37 37 -87zM536 -320q-21 -21 -63 -67q-23 18 -63 62q24 40 68 67q31 -25 51 -50q46 38 72 52q37 -29 61 -69q-41 -28 -72 -56q-8 10 -27 31t-27 30zM342 -343q37 -29 61 -69q-41 -28 -72 -56q-8 10 -27 31t-27 30q-21 -21 -63 -67q-23 18 -63 62
q24 40 68 67q31 -25 51 -50q46 38 72 52zM537 -389q37 -29 60 -63q-37 -29 -66 -64q-37 30 -61 64q24 44 67 63z" />
    <glyph glyph-name="uniFB59FEF2" unicode="&#xfb59;&#xfef2;" horiz-adv-x="752" 
d="M620 191q0 -63 34.5 -85t96.5 -22q0 -46 -5 -65t-22 -19q-21 0 -41 3t-51 14t-50 39.5t-19 70.5q0 33 11 69q-61 3 -118.5 -29.5t-82.5 -91.5q18 -19 56.5 -35t70 -31t38.5 -36q-22 -103 -100.5 -166.5t-183.5 -63.5q-40 0 -74.5 10t-64.5 31.5t-47.5 62t-17.5 95.5
q0 110 61 194l8 -23q-20 -45 -20 -120q0 -53 14.5 -88.5t41.5 -51t51 -21t56 -5.5q175 0 227 95q-12 20 -77 43.5t-87 52.5q0 106 74 181.5t172 75.5q27 0 59 -8q-10 -43 -10 -76zM601 -256q37 -29 61 -69q-41 -28 -72 -56q-8 10 -27 31t-27 30q-21 -21 -63 -67
q-23 18 -63 62q24 40 68 67q31 -25 51 -50q46 38 72 52zM322 -343q37 -29 61 -69q-41 -28 -72 -56q-8 10 -27 31t-27 30q-21 -21 -63 -67q-23 18 -63 62q24 40 68 67q31 -25 51 -50q46 38 72 52zM537 -389q37 -29 60 -63q-37 -29 -66 -64q-37 30 -61 64q24 44 67 63z" />
    <glyph glyph-name="uniFB58FEF4FEAE" unicode="&#xfb58;&#xfef4;&#xfeae;" horiz-adv-x="929" 
d="M492 194q-79 -27 -185 -36q32 -51 32 -139q0 -114 -51 -192.5t-151 -102.5q-89 18 -129 48l-3 14q127 -4 214 65t82 171q-24 57 -93 123q14 44 48 79q161 8 293 43q-4 -27 -4 -55q0 -128 109 -128q96 0 131 48q1 30 -11 78t-33 87q10 33 58 81q36 -89 36 -210
q-23 -89 -83.5 -128.5t-128.5 -39.5q-133 0 -133 157q0 9 2 37zM738 -138q-21 -21 -63 -67q-23 18 -63 62q24 40 68 67q31 -25 51 -50q46 38 72 52q37 -29 61 -69q-41 -28 -72 -56q-8 10 -27 31t-27 30zM533 -187q37 -29 61 -69q-41 -28 -72 -56q-8 10 -27 31t-27 30
q-21 -21 -63 -67q-23 18 -63 62q24 40 68 67q31 -25 51 -50q46 38 72 52zM739 -207q37 -29 60 -63q-37 -29 -66 -64q-37 30 -61 64q24 44 67 63z" />
    <glyph glyph-name="uniFB58FEF4FEB0" unicode="&#xfb58;&#xfef4;&#xfeb0;" horiz-adv-x="929" 
d="M167 319q-37 30 -61 64q24 44 67 63q37 -29 60 -63q-37 -29 -66 -64zM492 194q-79 -27 -185 -36q32 -51 32 -139q0 -114 -51 -192.5t-151 -102.5q-89 18 -129 48l-3 14q127 -4 214 65t82 171q-24 57 -93 123q14 44 48 79q161 8 293 43q-4 -27 -4 -55q0 -128 109 -128
q96 0 131 48q1 30 -11 78t-33 87q10 33 58 81q36 -89 36 -210q-23 -89 -83.5 -128.5t-128.5 -39.5q-133 0 -133 157q0 9 2 37zM738 -138q-21 -21 -63 -67q-23 18 -63 62q24 40 68 67q31 -25 51 -50q46 38 72 52q37 -29 61 -69q-41 -28 -72 -56q-8 10 -27 31t-27 30z
M533 -187q37 -29 61 -69q-41 -28 -72 -56q-8 10 -27 31t-27 30q-21 -21 -63 -67q-23 18 -63 62q24 40 68 67q31 -25 51 -50q46 38 72 52zM739 -207q37 -29 60 -63q-37 -29 -66 -64q-37 30 -61 64q24 44 67 63z" />
    <glyph glyph-name="uniFB58FEF4FB8D" unicode="&#xfb58;&#xfef4;&#xfb8d;" horiz-adv-x="899" 
d="M25 492q51 -14 102 -17q11 18 22 33q-3 92 -22 165q18 18 43 23q7 -40 7 -141v-14q40 38 74 38q27 0 43 -20.5t16 -51.5q0 -28 -22 -55q-48 -27 -154 -27h-3q-17 -29 -26 -51q-15 -3 -15 13q0 14 11 39q-30 5 -32 6q-25 15 -44 60zM243 528q-43 0 -82 -54h9q78 0 112 16
q1 3 1 9q0 29 -40 29zM492 194q-79 -27 -185 -36q32 -51 32 -139q0 -114 -51 -192.5t-151 -102.5q-89 18 -129 48l-3 14q127 -4 214 65t82 171q-24 57 -93 123q14 44 48 79q161 8 293 43q-4 -27 -4 -55q0 -128 109 -128q96 0 131 48q1 30 -11 78t-33 87q10 33 58 81
q36 -89 36 -210q-23 -89 -83.5 -128.5t-128.5 -39.5q-133 0 -133 157q0 9 2 37zM738 -138q-21 -21 -63 -67q-23 18 -63 62q24 40 68 67q31 -25 51 -50q46 38 72 52q37 -29 61 -69q-41 -28 -72 -56q-8 10 -27 31t-27 30zM533 -187q37 -29 61 -69q-41 -28 -72 -56
q-8 10 -27 31t-27 30q-21 -21 -63 -67q-23 18 -63 62q24 40 68 67q31 -25 51 -50q46 38 72 52zM739 -207q37 -29 60 -63q-37 -29 -66 -64q-37 30 -61 64q24 44 67 63z" />
    <glyph glyph-name="uniFB58FEF4FB8B" unicode="&#xfb58;&#xfef4;&#xfb8b;" horiz-adv-x="929" 
d="M164 443q-37 30 -61 64q24 44 67 63q37 -29 60 -63q-37 -29 -66 -64zM109 309q-23 18 -63 62q24 40 68 67q31 -25 51 -50q46 38 72 52q37 -29 61 -69q-41 -28 -72 -56q-8 10 -27 31t-27 30q-21 -21 -63 -67zM492 194q-79 -27 -185 -36q32 -51 32 -139q0 -114 -51 -192.5
t-151 -102.5q-89 18 -129 48l-3 14q127 -4 214 65t82 171q-24 57 -93 123q14 44 48 79q161 8 293 43q-4 -27 -4 -55q0 -128 109 -128q96 0 131 48q1 30 -11 78t-33 87q10 33 58 81q36 -89 36 -210q-23 -89 -83.5 -128.5t-128.5 -39.5q-133 0 -133 157q0 9 2 37zM738 -138
q-21 -21 -63 -67q-23 18 -63 62q24 40 68 67q31 -25 51 -50q46 38 72 52q37 -29 61 -69q-41 -28 -72 -56q-8 10 -27 31t-27 30zM533 -187q37 -29 61 -69q-41 -28 -72 -56q-8 10 -27 31t-27 30q-21 -21 -63 -67q-23 18 -63 62q24 40 68 67q31 -25 51 -50q46 38 72 52z
M739 -207q37 -29 60 -63q-37 -29 -66 -64q-37 30 -61 64q24 44 67 63z" />
    <glyph glyph-name="uniFB58FEF4FEE6" unicode="&#xfb58;&#xfef4;&#xfee6;" horiz-adv-x="1089" 
d="M294 255q-37 30 -61 64q24 44 67 63q37 -29 60 -63q-37 -29 -66 -64zM504 157q26 -75 31 -129q1 -71 -22 -127.5t-62.5 -90t-87 -50.5t-98.5 -17q-35 0 -67.5 10t-63.5 31t-49.5 61t-18.5 94q0 50 16.5 109.5t42.5 98.5l8 -23q-17 -73 -17 -131q0 -166 163 -166
q77 0 134.5 28.5t77.5 82.5q-7 80 -65 207q12 42 48 79q160 8 264 43q-25 -183 105 -183q96 0 131 48q1 30 -11 78t-33 87q10 33 58 81q36 -89 36 -210q-23 -89 -83.5 -128.5t-128.5 -39.5q-148 0 -131 191q-73 -29 -177 -34zM927 -138q-21 -21 -63 -67q-23 18 -63 62
q24 40 68 67q31 -25 51 -50q46 38 72 52q37 -29 61 -69q-41 -28 -72 -56q-8 10 -27 31t-27 30zM744 -135q37 -29 61 -69q-41 -28 -72 -56q-8 10 -27 31t-27 30q-21 -21 -63 -67q-23 18 -63 62q24 40 68 67q31 -25 51 -50q46 38 72 52zM928 -207q37 -29 60 -63
q-37 -29 -66 -64q-37 30 -61 64q24 44 67 63z" />
    <glyph glyph-name="uniFB58FE8A" unicode="&#xfb58;&#xfe8a;" horiz-adv-x="710" 
d="M221 257q-57 -16 -90.5 -35t-78.5 -61q-11 5 -11 16q0 27 67 67q-63 12 -63 69q0 34 21.5 53t54.5 19q24 0 37 -9q23 -21 27 -45q-30 11 -55 11q-33 0 -58 -20q10 -36 79 -36q35 0 78 13l4 1q-4 -31 -12 -43zM568 -51q0 -81 -83 -143.5t-203 -62.5q-101 0 -166.5 46.5
t-65.5 152.5q0 110 61 194l8 -23q-20 -45 -20 -120q0 -166 204 -166q188 0 236 115q-15 31 -68.5 58t-121.5 37q9 37 31 79q35 -22 90 -22q76 0 125 38q1 30 -11 78t-33 87q10 33 58 81q36 -89 36 -210q-29 -89 -114 -132q37 -37 37 -87zM526 -350q-21 -21 -63 -67
q-23 18 -63 62q24 40 68 67q31 -25 51 -50q46 38 72 52q37 -29 61 -69q-41 -28 -72 -56q-8 10 -27 31t-27 30zM527 -419q37 -29 60 -63q-37 -29 -66 -64q-37 30 -61 64q24 44 67 63z" />
    <glyph glyph-name="uniFB59FE8A" unicode="&#xfb59;&#xfe8a;" horiz-adv-x="752" 
d="M221 257q-57 -16 -90.5 -35t-78.5 -61q-11 5 -11 16q0 27 67 67q-63 12 -63 69q0 34 21.5 53t54.5 19q24 0 37 -9q23 -21 27 -45q-30 11 -55 11q-33 0 -58 -20q10 -36 79 -36q35 0 78 13l4 1q-4 -31 -12 -43zM373 75q18 -19 56.5 -35t70 -31t38.5 -36
q-22 -103 -100.5 -166.5t-183.5 -63.5q-40 0 -74.5 10t-64.5 31.5t-47.5 62t-17.5 95.5q0 110 61 194l8 -23q-20 -45 -20 -120q0 -53 14.5 -88.5t41.5 -51t51 -21t56 -5.5q175 0 227 95q-12 20 -77 43.5t-87 52.5q0 106 74 181.5t172 75.5q27 0 59 -8q-10 -43 -10 -76
q0 -63 34.5 -85t96.5 -22q0 -46 -5 -65t-22 -19q-21 0 -41 3t-51 14t-50 39.5t-19 70.5q0 33 11 69q-61 3 -118.5 -29.5t-82.5 -91.5zM687 -165q37 -29 61 -69q-41 -28 -72 -56q-8 10 -27 31t-27 30q-21 -21 -63 -67q-23 18 -63 62q24 40 68 67q31 -25 51 -50q46 38 72 52z
M623 -298q37 -29 60 -63q-37 -29 -66 -64q-37 30 -61 64q24 44 67 63z" />
    <glyph glyph-name="uniFB58FE8CFEAE" unicode="&#xfb58;&#xfe8c;&#xfeae;" 
d="M384 430q0 27 67 67q-63 12 -63 69q0 34 21.5 53t54.5 19q24 0 37 -9q23 -21 27 -45q-30 11 -55 11q-33 0 -58 -20q10 -36 79 -36q35 0 78 13l4 1q-4 -31 -12 -43q-57 -16 -90.5 -35t-78.5 -61q-11 6 -11 16zM835 168q-23 -89 -83.5 -128.5t-128.5 -39.5q-133 0 -133 157
q0 9 2 37q-79 -27 -185 -36q32 -51 32 -139q0 -114 -51 -192.5t-151 -102.5q-89 18 -129 48l-3 14q127 -4 214 65t82 171q-24 57 -93 123q14 44 48 79q161 8 293 43q-4 -27 -4 -55q0 -128 109 -128q96 0 131 48q1 30 -11 78t-33 87q10 33 58 81q36 -89 36 -210zM738 -138
q-21 -21 -63 -67q-23 18 -63 62q24 40 68 67q31 -25 51 -50q46 38 72 52q37 -29 61 -69q-41 -28 -72 -56q-8 10 -27 31t-27 30zM739 -207q37 -29 60 -63q-37 -29 -66 -64q-37 30 -61 64q24 44 67 63z" />
    <glyph glyph-name="uniFB58FE8CFEB0" unicode="&#xfb58;&#xfe8c;&#xfeb0;" 
d="M384 430q0 27 67 67q-63 12 -63 69q0 34 21.5 53t54.5 19q24 0 37 -9q23 -21 27 -45q-30 11 -55 11q-33 0 -58 -20q10 -36 79 -36q35 0 78 13l4 1q-4 -31 -12 -43q-57 -16 -90.5 -35t-78.5 -61q-11 6 -11 16zM167 319q-37 30 -61 64q24 44 67 63q37 -29 60 -63
q-37 -29 -66 -64zM835 168q-23 -89 -83.5 -128.5t-128.5 -39.5q-133 0 -133 157q0 9 2 37q-79 -27 -185 -36q32 -51 32 -139q0 -114 -51 -192.5t-151 -102.5q-89 18 -129 48l-3 14q127 -4 214 65t82 171q-24 57 -93 123q14 44 48 79q161 8 293 43q-4 -27 -4 -55
q0 -128 109 -128q96 0 131 48q1 30 -11 78t-33 87q10 33 58 81q36 -89 36 -210zM738 -138q-21 -21 -63 -67q-23 18 -63 62q24 40 68 67q31 -25 51 -50q46 38 72 52q37 -29 61 -69q-41 -28 -72 -56q-8 10 -27 31t-27 30zM739 -207q37 -29 60 -63q-37 -29 -66 -64
q-37 30 -61 64q24 44 67 63z" />
    <glyph glyph-name="uniFB58FE8CFB8D" unicode="&#xfb58;&#xfe8c;&#xfb8d;" horiz-adv-x="899" 
d="M25 492q51 -14 102 -17q11 18 22 33q-3 92 -22 165q18 18 43 23q7 -40 7 -141v-14q40 38 74 38q27 0 43 -20.5t16 -51.5q0 -28 -22 -55q-48 -27 -154 -27h-3q-17 -29 -26 -51q-15 -3 -15 13q0 14 11 39q-30 5 -32 6q-25 15 -44 60zM384 430q0 27 67 67q-63 12 -63 69
q0 34 21.5 53t54.5 19q24 0 37 -9q23 -21 27 -45q-30 11 -55 11q-33 0 -58 -20q10 -36 79 -36q35 0 78 13l4 1q-4 -31 -12 -43q-57 -16 -90.5 -35t-78.5 -61q-11 6 -11 16zM243 528q-43 0 -82 -54h9q78 0 112 16q1 3 1 9q0 29 -40 29zM835 168q-23 -89 -83.5 -128.5
t-128.5 -39.5q-133 0 -133 157q0 9 2 37q-79 -27 -185 -36q32 -51 32 -139q0 -114 -51 -192.5t-151 -102.5q-89 18 -129 48l-3 14q127 -4 214 65t82 171q-24 57 -93 123q14 44 48 79q161 8 293 43q-4 -27 -4 -55q0 -128 109 -128q96 0 131 48q1 30 -11 78t-33 87
q10 33 58 81q36 -89 36 -210zM738 -138q-21 -21 -63 -67q-23 18 -63 62q24 40 68 67q31 -25 51 -50q46 38 72 52q37 -29 61 -69q-41 -28 -72 -56q-8 10 -27 31t-27 30zM739 -207q37 -29 60 -63q-37 -29 -66 -64q-37 30 -61 64q24 44 67 63z" />
    <glyph glyph-name="uniFB58FE8CFB8B" unicode="&#xfb58;&#xfe8c;&#xfb8b;" 
d="M384 430q0 27 67 67q-63 12 -63 69q0 34 21.5 53t54.5 19q24 0 37 -9q23 -21 27 -45q-30 11 -55 11q-33 0 -58 -20q10 -36 79 -36q35 0 78 13l4 1q-4 -31 -12 -43q-57 -16 -90.5 -35t-78.5 -61q-11 6 -11 16zM164 443q-37 30 -61 64q24 44 67 63q37 -29 60 -63
q-37 -29 -66 -64zM109 309q-23 18 -63 62q24 40 68 67q31 -25 51 -50q46 38 72 52q37 -29 61 -69q-41 -28 -72 -56q-8 10 -27 31t-27 30q-21 -21 -63 -67zM835 168q-23 -89 -83.5 -128.5t-128.5 -39.5q-133 0 -133 157q0 9 2 37q-79 -27 -185 -36q32 -51 32 -139
q0 -114 -51 -192.5t-151 -102.5q-89 18 -129 48l-3 14q127 -4 214 65t82 171q-24 57 -93 123q14 44 48 79q161 8 293 43q-4 -27 -4 -55q0 -128 109 -128q96 0 131 48q1 30 -11 78t-33 87q10 33 58 81q36 -89 36 -210zM738 -138q-21 -21 -63 -67q-23 18 -63 62q24 40 68 67
q31 -25 51 -50q46 38 72 52q37 -29 61 -69q-41 -28 -72 -56q-8 10 -27 31t-27 30zM739 -207q37 -29 60 -63q-37 -29 -66 -64q-37 30 -61 64q24 44 67 63z" />
    <glyph glyph-name="uniFB58FE8CFEE6" unicode="&#xfb58;&#xfe8c;&#xfee6;" horiz-adv-x="1089" 
d="M573 430q0 27 67 67q-63 12 -63 69q0 34 21.5 53t54.5 19q24 0 37 -9q23 -21 27 -45q-30 11 -55 11q-33 0 -58 -20q10 -36 79 -36q35 0 78 13l4 1q-4 -31 -12 -43q-57 -16 -90.5 -35t-78.5 -61q-11 6 -11 16zM294 255q-37 30 -61 64q24 44 67 63q37 -29 60 -63
q-37 -29 -66 -64zM1024 168q-23 -89 -83.5 -128.5t-128.5 -39.5q-148 0 -131 191q-73 -29 -177 -34q26 -75 31 -129q1 -71 -22 -127.5t-62.5 -90t-87 -50.5t-98.5 -17q-35 0 -67.5 10t-63.5 31t-49.5 61t-18.5 94q0 50 16.5 109.5t42.5 98.5l8 -23q-17 -73 -17 -131
q0 -166 163 -166q77 0 134.5 28.5t77.5 82.5q-7 80 -65 207q12 42 48 79q160 8 264 43q-25 -183 105 -183q96 0 131 48q1 30 -11 78t-33 87q10 33 58 81q36 -89 36 -210zM927 -138q-21 -21 -63 -67q-23 18 -63 62q24 40 68 67q31 -25 51 -50q46 38 72 52q37 -29 61 -69
q-41 -28 -72 -56q-8 10 -27 31t-27 30zM928 -207q37 -29 60 -63q-37 -29 -66 -64q-37 30 -61 64q24 44 67 63z" />
    <glyph glyph-name="uniFE97FE92FEAE" unicode="&#xfe97;&#xfe92;&#xfeae;" 
d="M711 480q-23 18 -63 62q24 40 68 67q31 -25 51 -50q46 38 72 52q37 -29 61 -69q-41 -28 -72 -56q-8 10 -27 31t-27 30q-21 -21 -63 -67zM741 297q10 33 58 81q36 -89 36 -210q-23 -89 -83.5 -128.5t-128.5 -39.5q-133 0 -133 157q0 9 2 37q-79 -27 -185 -36
q32 -51 32 -139q0 -114 -51 -192.5t-151 -102.5q-89 18 -129 48l-3 14q127 -4 214 65t82 171q-24 57 -93 123q14 44 48 79q161 8 293 43q-4 -27 -4 -55q0 -128 109 -128q96 0 131 48q1 30 -11 78t-33 87zM486 -141q37 -29 60 -63q-37 -29 -66 -64q-37 30 -61 64q24 44 67 63
z" />
    <glyph glyph-name="uniFE97FE92FEB0" unicode="&#xfe97;&#xfe92;&#xfeb0;" 
d="M711 480q-23 18 -63 62q24 40 68 67q31 -25 51 -50q46 38 72 52q37 -29 61 -69q-41 -28 -72 -56q-8 10 -27 31t-27 30q-21 -21 -63 -67zM167 319q-37 30 -61 64q24 44 67 63q37 -29 60 -63q-37 -29 -66 -64zM741 297q10 33 58 81q36 -89 36 -210q-23 -89 -83.5 -128.5
t-128.5 -39.5q-133 0 -133 157q0 9 2 37q-79 -27 -185 -36q32 -51 32 -139q0 -114 -51 -192.5t-151 -102.5q-89 18 -129 48l-3 14q127 -4 214 65t82 171q-24 57 -93 123q14 44 48 79q161 8 293 43q-4 -27 -4 -55q0 -128 109 -128q96 0 131 48q1 30 -11 78t-33 87zM486 -141
q37 -29 60 -63q-37 -29 -66 -64q-37 30 -61 64q24 44 67 63z" />
    <glyph glyph-name="uniFE97FE92FB8D" unicode="&#xfe97;&#xfe92;&#xfb8d;" horiz-adv-x="935" 
d="M25 492q51 -14 102 -17q11 18 22 33q-3 92 -22 165q18 18 43 23q7 -40 7 -141v-14q40 38 74 38q27 0 43 -20.5t16 -51.5q0 -28 -22 -55q-48 -27 -154 -27h-3q-17 -29 -26 -51q-15 -3 -15 13q0 14 11 39q-30 5 -32 6q-25 15 -44 60zM711 480q-23 18 -63 62q24 40 68 67
q31 -25 51 -50q46 38 72 52q37 -29 61 -69q-41 -28 -72 -56q-8 10 -27 31t-27 30q-21 -21 -63 -67zM243 528q-43 0 -82 -54h9q78 0 112 16q1 3 1 9q0 29 -40 29zM741 297q10 33 58 81q36 -89 36 -210q-23 -89 -83.5 -128.5t-128.5 -39.5q-133 0 -133 157q0 9 2 37
q-79 -27 -185 -36q32 -51 32 -139q0 -114 -51 -192.5t-151 -102.5q-89 18 -129 48l-3 14q127 -4 214 65t82 171q-24 57 -93 123q14 44 48 79q161 8 293 43q-4 -27 -4 -55q0 -128 109 -128q96 0 131 48q1 30 -11 78t-33 87zM486 -141q37 -29 60 -63q-37 -29 -66 -64
q-37 30 -61 64q24 44 67 63z" />
    <glyph glyph-name="uniFE97FE92FB8B" unicode="&#xfe97;&#xfe92;&#xfb8b;" 
d="M711 480q-23 18 -63 62q24 40 68 67q31 -25 51 -50q46 38 72 52q37 -29 61 -69q-41 -28 -72 -56q-8 10 -27 31t-27 30q-21 -21 -63 -67zM164 443q-37 30 -61 64q24 44 67 63q37 -29 60 -63q-37 -29 -66 -64zM109 309q-23 18 -63 62q24 40 68 67q31 -25 51 -50
q46 38 72 52q37 -29 61 -69q-41 -28 -72 -56q-8 10 -27 31t-27 30q-21 -21 -63 -67zM741 297q10 33 58 81q36 -89 36 -210q-23 -89 -83.5 -128.5t-128.5 -39.5q-133 0 -133 157q0 9 2 37q-79 -27 -185 -36q32 -51 32 -139q0 -114 -51 -192.5t-151 -102.5q-89 18 -129 48
l-3 14q127 -4 214 65t82 171q-24 57 -93 123q14 44 48 79q161 8 293 43q-4 -27 -4 -55q0 -128 109 -128q96 0 131 48q1 30 -11 78t-33 87zM486 -141q37 -29 60 -63q-37 -29 -66 -64q-37 30 -61 64q24 44 67 63z" />
    <glyph glyph-name="uniFE97FE92FEE6" unicode="&#xfe97;&#xfe92;&#xfee6;" horiz-adv-x="1089" 
d="M900 480q-23 18 -63 62q24 40 68 67q31 -25 51 -50q46 38 72 52q37 -29 61 -69q-41 -28 -72 -56q-8 10 -27 31t-27 30q-21 -21 -63 -67zM294 255q-37 30 -61 64q24 44 67 63q37 -29 60 -63q-37 -29 -66 -64zM930 297q10 33 58 81q36 -89 36 -210q-23 -89 -83.5 -128.5
t-128.5 -39.5q-148 0 -131 191q-73 -29 -177 -34q26 -75 31 -129q1 -71 -22 -127.5t-62.5 -90t-87 -50.5t-98.5 -17q-35 0 -67.5 10t-63.5 31t-49.5 61t-18.5 94q0 50 16.5 109.5t42.5 98.5l8 -23q-17 -73 -17 -131q0 -166 163 -166q77 0 134.5 28.5t77.5 82.5
q-7 80 -65 207q12 42 48 79q160 8 264 43q-25 -183 105 -183q96 0 131 48q1 30 -11 78t-33 87zM675 -141q37 -29 60 -63q-37 -29 -66 -64q-37 30 -61 64q24 44 67 63z" />
    <glyph glyph-name="uniFE97FB59FEAE" unicode="&#xfe97;&#xfb59;&#xfeae;" horiz-adv-x="965" 
d="M711 480q-23 18 -63 62q24 40 68 67q31 -25 51 -50q46 38 72 52q37 -29 61 -69q-41 -28 -72 -56q-8 10 -27 31t-27 30q-21 -21 -63 -67zM741 297q10 33 58 81q36 -89 36 -210q-23 -89 -83.5 -128.5t-128.5 -39.5q-133 0 -133 157q0 9 2 37q-79 -27 -185 -36
q32 -51 32 -139q0 -114 -51 -192.5t-151 -102.5q-89 18 -129 48l-3 14q127 -4 214 65t82 171q-24 57 -93 123q14 44 48 79q161 8 293 43q-4 -27 -4 -55q0 -128 109 -128q96 0 131 48q1 30 -11 78t-33 87zM521 -190q37 -29 61 -69q-41 -28 -72 -56q-8 10 -27 31t-27 30
q-21 -21 -63 -67q-23 18 -63 62q24 40 68 67q31 -25 51 -50q46 38 72 52zM457 -323q37 -29 60 -63q-37 -29 -66 -64q-37 30 -61 64q24 44 67 63z" />
    <glyph glyph-name="uniFE97FB59FEB0" unicode="&#xfe97;&#xfb59;&#xfeb0;" horiz-adv-x="965" 
d="M711 480q-23 18 -63 62q24 40 68 67q31 -25 51 -50q46 38 72 52q37 -29 61 -69q-41 -28 -72 -56q-8 10 -27 31t-27 30q-21 -21 -63 -67zM167 319q-37 30 -61 64q24 44 67 63q37 -29 60 -63q-37 -29 -66 -64zM741 297q10 33 58 81q36 -89 36 -210q-23 -89 -83.5 -128.5
t-128.5 -39.5q-133 0 -133 157q0 9 2 37q-79 -27 -185 -36q32 -51 32 -139q0 -114 -51 -192.5t-151 -102.5q-89 18 -129 48l-3 14q127 -4 214 65t82 171q-24 57 -93 123q14 44 48 79q161 8 293 43q-4 -27 -4 -55q0 -128 109 -128q96 0 131 48q1 30 -11 78t-33 87zM521 -190
q37 -29 61 -69q-41 -28 -72 -56q-8 10 -27 31t-27 30q-21 -21 -63 -67q-23 18 -63 62q24 40 68 67q31 -25 51 -50q46 38 72 52zM457 -323q37 -29 60 -63q-37 -29 -66 -64q-37 30 -61 64q24 44 67 63z" />
    <glyph glyph-name="uniFE97FB59FB8D" unicode="&#xfe97;&#xfb59;&#xfb8d;" horiz-adv-x="935" 
d="M25 492q51 -14 102 -17q11 18 22 33q-3 92 -22 165q18 18 43 23q7 -40 7 -141v-14q40 38 74 38q27 0 43 -20.5t16 -51.5q0 -28 -22 -55q-48 -27 -154 -27h-3q-17 -29 -26 -51q-15 -3 -15 13q0 14 11 39q-30 5 -32 6q-25 15 -44 60zM711 480q-23 18 -63 62q24 40 68 67
q31 -25 51 -50q46 38 72 52q37 -29 61 -69q-41 -28 -72 -56q-8 10 -27 31t-27 30q-21 -21 -63 -67zM243 528q-43 0 -82 -54h9q78 0 112 16q1 3 1 9q0 29 -40 29zM741 297q10 33 58 81q36 -89 36 -210q-23 -89 -83.5 -128.5t-128.5 -39.5q-133 0 -133 157q0 9 2 37
q-79 -27 -185 -36q32 -51 32 -139q0 -114 -51 -192.5t-151 -102.5q-89 18 -129 48l-3 14q127 -4 214 65t82 171q-24 57 -93 123q14 44 48 79q161 8 293 43q-4 -27 -4 -55q0 -128 109 -128q96 0 131 48q1 30 -11 78t-33 87zM521 -190q37 -29 61 -69q-41 -28 -72 -56
q-8 10 -27 31t-27 30q-21 -21 -63 -67q-23 18 -63 62q24 40 68 67q31 -25 51 -50q46 38 72 52zM457 -323q37 -29 60 -63q-37 -29 -66 -64q-37 30 -61 64q24 44 67 63z" />
    <glyph glyph-name="uniFE97FB59FB8B" unicode="&#xfe97;&#xfb59;&#xfb8b;" horiz-adv-x="965" 
d="M711 480q-23 18 -63 62q24 40 68 67q31 -25 51 -50q46 38 72 52q37 -29 61 -69q-41 -28 -72 -56q-8 10 -27 31t-27 30q-21 -21 -63 -67zM164 443q-37 30 -61 64q24 44 67 63q37 -29 60 -63q-37 -29 -66 -64zM109 309q-23 18 -63 62q24 40 68 67q31 -25 51 -50
q46 38 72 52q37 -29 61 -69q-41 -28 -72 -56q-8 10 -27 31t-27 30q-21 -21 -63 -67zM741 297q10 33 58 81q36 -89 36 -210q-23 -89 -83.5 -128.5t-128.5 -39.5q-133 0 -133 157q0 9 2 37q-79 -27 -185 -36q32 -51 32 -139q0 -114 -51 -192.5t-151 -102.5q-89 18 -129 48
l-3 14q127 -4 214 65t82 171q-24 57 -93 123q14 44 48 79q161 8 293 43q-4 -27 -4 -55q0 -128 109 -128q96 0 131 48q1 30 -11 78t-33 87zM521 -190q37 -29 61 -69q-41 -28 -72 -56q-8 10 -27 31t-27 30q-21 -21 -63 -67q-23 18 -63 62q24 40 68 67q31 -25 51 -50
q46 38 72 52zM457 -323q37 -29 60 -63q-37 -29 -66 -64q-37 30 -61 64q24 44 67 63z" />
    <glyph glyph-name="uniFE97FB59FEE6" unicode="&#xfe97;&#xfb59;&#xfee6;" horiz-adv-x="1089" 
d="M900 480q-23 18 -63 62q24 40 68 67q31 -25 51 -50q46 38 72 52q37 -29 61 -69q-41 -28 -72 -56q-8 10 -27 31t-27 30q-21 -21 -63 -67zM294 255q-37 30 -61 64q24 44 67 63q37 -29 60 -63q-37 -29 -66 -64zM930 297q10 33 58 81q36 -89 36 -210q-23 -89 -83.5 -128.5
t-128.5 -39.5q-148 0 -131 191q-73 -29 -177 -34q26 -75 31 -129q1 -71 -22 -127.5t-62.5 -90t-87 -50.5t-98.5 -17q-35 0 -67.5 10t-63.5 31t-49.5 61t-18.5 94q0 50 16.5 109.5t42.5 98.5l8 -23q-17 -73 -17 -131q0 -166 163 -166q77 0 134.5 28.5t77.5 82.5
q-7 80 -65 207q12 42 48 79q160 8 264 43q-25 -183 105 -183q96 0 131 48q1 30 -11 78t-33 87zM745 -135q37 -29 61 -69q-41 -28 -72 -56q-8 10 -27 31t-27 30q-21 -21 -63 -67q-23 18 -63 62q24 40 68 67q31 -25 51 -50q46 38 72 52zM681 -268q37 -29 60 -63
q-37 -29 -66 -64q-37 30 -61 64q24 44 67 63z" />
    <glyph glyph-name="uniFE97FE98FEAE" unicode="&#xfe97;&#xfe98;&#xfeae;" 
d="M711 480q-23 18 -63 62q24 40 68 67q31 -25 51 -50q46 38 72 52q37 -29 61 -69q-41 -28 -72 -56q-8 10 -27 31t-27 30q-21 -21 -63 -67zM418 400q-23 18 -63 62q24 40 68 67q31 -25 51 -50q46 38 72 52q37 -29 61 -69q-41 -28 -72 -56q-8 10 -27 31t-27 30
q-21 -21 -63 -67zM741 297q10 33 58 81q36 -89 36 -210q-23 -89 -83.5 -128.5t-128.5 -39.5q-133 0 -133 157q0 9 2 37q-79 -27 -185 -36q32 -51 32 -139q0 -114 -51 -192.5t-151 -102.5q-89 18 -129 48l-3 14q127 -4 214 65t82 171q-24 57 -93 123q14 44 48 79
q161 8 293 43q-4 -27 -4 -55q0 -128 109 -128q96 0 131 48q1 30 -11 78t-33 87z" />
    <glyph glyph-name="uniFE97FE98FEB0" unicode="&#xfe97;&#xfe98;&#xfeb0;" 
d="M711 480q-23 18 -63 62q24 40 68 67q31 -25 51 -50q46 38 72 52q37 -29 61 -69q-41 -28 -72 -56q-8 10 -27 31t-27 30q-21 -21 -63 -67zM418 400q-23 18 -63 62q24 40 68 67q31 -25 51 -50q46 38 72 52q37 -29 61 -69q-41 -28 -72 -56q-8 10 -27 31t-27 30
q-21 -21 -63 -67zM167 319q-37 30 -61 64q24 44 67 63q37 -29 60 -63q-37 -29 -66 -64zM741 297q10 33 58 81q36 -89 36 -210q-23 -89 -83.5 -128.5t-128.5 -39.5q-133 0 -133 157q0 9 2 37q-79 -27 -185 -36q32 -51 32 -139q0 -114 -51 -192.5t-151 -102.5q-89 18 -129 48
l-3 14q127 -4 214 65t82 171q-24 57 -93 123q14 44 48 79q161 8 293 43q-4 -27 -4 -55q0 -128 109 -128q96 0 131 48q1 30 -11 78t-33 87z" />
    <glyph glyph-name="uniFE97FE98FB8D" unicode="&#xfe97;&#xfe98;&#xfb8d;" horiz-adv-x="935" 
d="M25 492q51 -14 102 -17q11 18 22 33q-3 92 -22 165q18 18 43 23q7 -40 7 -141v-14q40 38 74 38q27 0 43 -20.5t16 -51.5q0 -28 -22 -55q-48 -27 -154 -27h-3q-17 -29 -26 -51q-15 -3 -15 13q0 14 11 39q-30 5 -32 6q-25 15 -44 60zM711 480q-23 18 -63 62q24 40 68 67
q31 -25 51 -50q46 38 72 52q37 -29 61 -69q-41 -28 -72 -56q-8 10 -27 31t-27 30q-21 -21 -63 -67zM418 400q-23 18 -63 62q24 40 68 67q31 -25 51 -50q46 38 72 52q37 -29 61 -69q-41 -28 -72 -56q-8 10 -27 31t-27 30q-21 -21 -63 -67zM243 528q-43 0 -82 -54h9
q78 0 112 16q1 3 1 9q0 29 -40 29zM741 297q10 33 58 81q36 -89 36 -210q-23 -89 -83.5 -128.5t-128.5 -39.5q-133 0 -133 157q0 9 2 37q-79 -27 -185 -36q32 -51 32 -139q0 -114 -51 -192.5t-151 -102.5q-89 18 -129 48l-3 14q127 -4 214 65t82 171q-24 57 -93 123
q14 44 48 79q161 8 293 43q-4 -27 -4 -55q0 -128 109 -128q96 0 131 48q1 30 -11 78t-33 87z" />
    <glyph glyph-name="uniFE97FE98FB8B" unicode="&#xfe97;&#xfe98;&#xfb8b;" 
d="M711 480q-23 18 -63 62q24 40 68 67q31 -25 51 -50q46 38 72 52q37 -29 61 -69q-41 -28 -72 -56q-8 10 -27 31t-27 30q-21 -21 -63 -67zM164 443q-37 30 -61 64q24 44 67 63q37 -29 60 -63q-37 -29 -66 -64zM418 400q-23 18 -63 62q24 40 68 67q31 -25 51 -50
q46 38 72 52q37 -29 61 -69q-41 -28 -72 -56q-8 10 -27 31t-27 30q-21 -21 -63 -67zM109 309q-23 18 -63 62q24 40 68 67q31 -25 51 -50q46 38 72 52q37 -29 61 -69q-41 -28 -72 -56q-8 10 -27 31t-27 30q-21 -21 -63 -67zM741 297q10 33 58 81q36 -89 36 -210
q-23 -89 -83.5 -128.5t-128.5 -39.5q-133 0 -133 157q0 9 2 37q-79 -27 -185 -36q32 -51 32 -139q0 -114 -51 -192.5t-151 -102.5q-89 18 -129 48l-3 14q127 -4 214 65t82 171q-24 57 -93 123q14 44 48 79q161 8 293 43q-4 -27 -4 -55q0 -128 109 -128q96 0 131 48
q1 30 -11 78t-33 87z" />
    <glyph glyph-name="uniFE97FE98FEE6" unicode="&#xfe97;&#xfe98;&#xfee6;" horiz-adv-x="1089" 
d="M900 480q-23 18 -63 62q24 40 68 67q31 -25 51 -50q46 38 72 52q37 -29 61 -69q-41 -28 -72 -56q-8 10 -27 31t-27 30q-21 -21 -63 -67zM607 400q-23 18 -63 62q24 40 68 67q31 -25 51 -50q46 38 72 52q37 -29 61 -69q-41 -28 -72 -56q-8 10 -27 31t-27 30
q-21 -21 -63 -67zM294 255q-37 30 -61 64q24 44 67 63q37 -29 60 -63q-37 -29 -66 -64zM930 297q10 33 58 81q36 -89 36 -210q-23 -89 -83.5 -128.5t-128.5 -39.5q-148 0 -131 191q-73 -29 -177 -34q26 -75 31 -129q1 -71 -22 -127.5t-62.5 -90t-87 -50.5t-98.5 -17
q-35 0 -67.5 10t-63.5 31t-49.5 61t-18.5 94q0 50 16.5 109.5t42.5 98.5l8 -23q-17 -73 -17 -131q0 -166 163 -166q77 0 134.5 28.5t77.5 82.5q-7 80 -65 207q12 42 48 79q160 8 264 43q-25 -183 105 -183q96 0 131 48q1 30 -11 78t-33 87z" />
    <glyph glyph-name="uniFE97FE9CFEAE" unicode="&#xfe97;&#xfe9c;&#xfeae;" 
d="M478 534q-37 30 -61 64q24 44 67 63q37 -29 60 -63q-37 -29 -66 -64zM711 480q-23 18 -63 62q24 40 68 67q31 -25 51 -50q46 38 72 52q37 -29 61 -69q-41 -28 -72 -56q-8 10 -27 31t-27 30q-21 -21 -63 -67zM423 400q-23 18 -63 62q24 40 68 67q31 -25 51 -50
q46 38 72 52q37 -29 61 -69q-41 -28 -72 -56q-8 10 -27 31t-27 30q-21 -21 -63 -67zM741 297q10 33 58 81q36 -89 36 -210q-23 -89 -83.5 -128.5t-128.5 -39.5q-133 0 -133 157q0 9 2 37q-79 -27 -185 -36q32 -51 32 -139q0 -114 -51 -192.5t-151 -102.5q-89 18 -129 48
l-3 14q127 -4 214 65t82 171q-24 57 -93 123q14 44 48 79q161 8 293 43q-4 -27 -4 -55q0 -128 109 -128q96 0 131 48q1 30 -11 78t-33 87z" />
    <glyph glyph-name="uniFE97FE9CFEB0" unicode="&#xfe97;&#xfe9c;&#xfeb0;" 
d="M478 534q-37 30 -61 64q24 44 67 63q37 -29 60 -63q-37 -29 -66 -64zM711 480q-23 18 -63 62q24 40 68 67q31 -25 51 -50q46 38 72 52q37 -29 61 -69q-41 -28 -72 -56q-8 10 -27 31t-27 30q-21 -21 -63 -67zM423 400q-23 18 -63 62q24 40 68 67q31 -25 51 -50
q46 38 72 52q37 -29 61 -69q-41 -28 -72 -56q-8 10 -27 31t-27 30q-21 -21 -63 -67zM167 319q-37 30 -61 64q24 44 67 63q37 -29 60 -63q-37 -29 -66 -64zM741 297q10 33 58 81q36 -89 36 -210q-23 -89 -83.5 -128.5t-128.5 -39.5q-133 0 -133 157q0 9 2 37
q-79 -27 -185 -36q32 -51 32 -139q0 -114 -51 -192.5t-151 -102.5q-89 18 -129 48l-3 14q127 -4 214 65t82 171q-24 57 -93 123q14 44 48 79q161 8 293 43q-4 -27 -4 -55q0 -128 109 -128q96 0 131 48q1 30 -11 78t-33 87z" />
    <glyph glyph-name="uniFE97FE9CFB8D" unicode="&#xfe97;&#xfe9c;&#xfb8d;" horiz-adv-x="935" 
d="M25 492q51 -14 102 -17q11 18 22 33q-3 92 -22 165q18 18 43 23q7 -40 7 -141v-14q40 38 74 38q27 0 43 -20.5t16 -51.5q0 -28 -22 -55q-48 -27 -154 -27h-3q-17 -29 -26 -51q-15 -3 -15 13q0 14 11 39q-30 5 -32 6q-25 15 -44 60zM478 534q-37 30 -61 64q24 44 67 63
q37 -29 60 -63q-37 -29 -66 -64zM711 480q-23 18 -63 62q24 40 68 67q31 -25 51 -50q46 38 72 52q37 -29 61 -69q-41 -28 -72 -56q-8 10 -27 31t-27 30q-21 -21 -63 -67zM423 400q-23 18 -63 62q24 40 68 67q31 -25 51 -50q46 38 72 52q37 -29 61 -69q-41 -28 -72 -56
q-8 10 -27 31t-27 30q-21 -21 -63 -67zM243 528q-43 0 -82 -54h9q78 0 112 16q1 3 1 9q0 29 -40 29zM741 297q10 33 58 81q36 -89 36 -210q-23 -89 -83.5 -128.5t-128.5 -39.5q-133 0 -133 157q0 9 2 37q-79 -27 -185 -36q32 -51 32 -139q0 -114 -51 -192.5t-151 -102.5
q-89 18 -129 48l-3 14q127 -4 214 65t82 171q-24 57 -93 123q14 44 48 79q161 8 293 43q-4 -27 -4 -55q0 -128 109 -128q96 0 131 48q1 30 -11 78t-33 87z" />
    <glyph glyph-name="uniFE97FE9CFB8B" unicode="&#xfe97;&#xfe9c;&#xfb8b;" 
d="M478 534q-37 30 -61 64q24 44 67 63q37 -29 60 -63q-37 -29 -66 -64zM711 480q-23 18 -63 62q24 40 68 67q31 -25 51 -50q46 38 72 52q37 -29 61 -69q-41 -28 -72 -56q-8 10 -27 31t-27 30q-21 -21 -63 -67zM164 443q-37 30 -61 64q24 44 67 63q37 -29 60 -63
q-37 -29 -66 -64zM423 400q-23 18 -63 62q24 40 68 67q31 -25 51 -50q46 38 72 52q37 -29 61 -69q-41 -28 -72 -56q-8 10 -27 31t-27 30q-21 -21 -63 -67zM109 309q-23 18 -63 62q24 40 68 67q31 -25 51 -50q46 38 72 52q37 -29 61 -69q-41 -28 -72 -56q-8 10 -27 31t-27 30
q-21 -21 -63 -67zM741 297q10 33 58 81q36 -89 36 -210q-23 -89 -83.5 -128.5t-128.5 -39.5q-133 0 -133 157q0 9 2 37q-79 -27 -185 -36q32 -51 32 -139q0 -114 -51 -192.5t-151 -102.5q-89 18 -129 48l-3 14q127 -4 214 65t82 171q-24 57 -93 123q14 44 48 79
q161 8 293 43q-4 -27 -4 -55q0 -128 109 -128q96 0 131 48q1 30 -11 78t-33 87z" />
    <glyph glyph-name="uniFE97FE9CFEE6" unicode="&#xfe97;&#xfe9c;&#xfee6;" horiz-adv-x="1089" 
d="M667 534q-37 30 -61 64q24 44 67 63q37 -29 60 -63q-37 -29 -66 -64zM900 480q-23 18 -63 62q24 40 68 67q31 -25 51 -50q46 38 72 52q37 -29 61 -69q-41 -28 -72 -56q-8 10 -27 31t-27 30q-21 -21 -63 -67zM612 400q-23 18 -63 62q24 40 68 67q31 -25 51 -50
q46 38 72 52q37 -29 61 -69q-41 -28 -72 -56q-8 10 -27 31t-27 30q-21 -21 -63 -67zM294 255q-37 30 -61 64q24 44 67 63q37 -29 60 -63q-37 -29 -66 -64zM930 297q10 33 58 81q36 -89 36 -210q-23 -89 -83.5 -128.5t-128.5 -39.5q-148 0 -131 191q-73 -29 -177 -34
q26 -75 31 -129q1 -71 -22 -127.5t-62.5 -90t-87 -50.5t-98.5 -17q-35 0 -67.5 10t-63.5 31t-49.5 61t-18.5 94q0 50 16.5 109.5t42.5 98.5l8 -23q-17 -73 -17 -131q0 -166 163 -166q77 0 134.5 28.5t77.5 82.5q-7 80 -65 207q12 42 48 79q160 8 264 43q-25 -183 105 -183
q96 0 131 48q1 30 -11 78t-33 87z" />
    <glyph glyph-name="uniFE97FB69FEAE" unicode="&#xfe97;&#xfb69;&#xfeae;" 
d="M327 498q51 -14 102 -17q11 18 22 33q-3 92 -22 165q18 18 43 23q7 -40 7 -141v-14q40 38 74 38q27 0 43 -20.5t16 -51.5q0 -28 -22 -55q-48 -27 -154 -27h-3q-17 -29 -26 -51q-15 -3 -15 13q0 14 11 39q-30 5 -32 6q-25 15 -44 60zM711 480q-23 18 -63 62q24 40 68 67
q31 -25 51 -50q46 38 72 52q37 -29 61 -69q-41 -28 -72 -56q-8 10 -27 31t-27 30q-21 -21 -63 -67zM545 534q-43 0 -82 -54h9q78 0 112 16q1 3 1 9q0 29 -40 29zM741 297q10 33 58 81q36 -89 36 -210q-23 -89 -83.5 -128.5t-128.5 -39.5q-133 0 -133 157q0 9 2 37
q-79 -27 -185 -36q32 -51 32 -139q0 -114 -51 -192.5t-151 -102.5q-89 18 -129 48l-3 14q127 -4 214 65t82 171q-24 57 -93 123q14 44 48 79q161 8 293 43q-4 -27 -4 -55q0 -128 109 -128q96 0 131 48q1 30 -11 78t-33 87z" />
    <glyph glyph-name="uniFE97FB69FEB0" unicode="&#xfe97;&#xfb69;&#xfeb0;" 
d="M327 498q51 -14 102 -17q11 18 22 33q-3 92 -22 165q18 18 43 23q7 -40 7 -141v-14q40 38 74 38q27 0 43 -20.5t16 -51.5q0 -28 -22 -55q-48 -27 -154 -27h-3q-17 -29 -26 -51q-15 -3 -15 13q0 14 11 39q-30 5 -32 6q-25 15 -44 60zM711 480q-23 18 -63 62q24 40 68 67
q31 -25 51 -50q46 38 72 52q37 -29 61 -69q-41 -28 -72 -56q-8 10 -27 31t-27 30q-21 -21 -63 -67zM545 534q-43 0 -82 -54h9q78 0 112 16q1 3 1 9q0 29 -40 29zM167 319q-37 30 -61 64q24 44 67 63q37 -29 60 -63q-37 -29 -66 -64zM741 297q10 33 58 81q36 -89 36 -210
q-23 -89 -83.5 -128.5t-128.5 -39.5q-133 0 -133 157q0 9 2 37q-79 -27 -185 -36q32 -51 32 -139q0 -114 -51 -192.5t-151 -102.5q-89 18 -129 48l-3 14q127 -4 214 65t82 171q-24 57 -93 123q14 44 48 79q161 8 293 43q-4 -27 -4 -55q0 -128 109 -128q96 0 131 48
q1 30 -11 78t-33 87z" />
    <glyph glyph-name="uniFE97FB69FB8D" unicode="&#xfe97;&#xfb69;&#xfb8d;" horiz-adv-x="935" 
d="M327 548q51 -14 102 -17q11 18 22 33q-3 92 -22 165q18 18 43 23q7 -40 7 -141v-14q40 38 74 38q27 0 43 -20.5t16 -51.5q0 -28 -22 -55q-48 -27 -154 -27h-3q-17 -29 -26 -51q-15 -3 -15 13q0 14 11 39q-30 5 -32 6q-25 15 -44 60zM25 492q51 -14 102 -17q11 18 22 33
q-3 92 -22 165q18 18 43 23q7 -40 7 -141v-14q40 38 74 38q27 0 43 -20.5t16 -51.5q0 -28 -22 -55q-48 -27 -154 -27h-3q-17 -29 -26 -51q-15 -3 -15 13q0 14 11 39q-30 5 -32 6q-25 15 -44 60zM711 480q-23 18 -63 62q24 40 68 67q31 -25 51 -50q46 38 72 52q37 -29 61 -69
q-41 -28 -72 -56q-8 10 -27 31t-27 30q-21 -21 -63 -67zM545 584q-43 0 -82 -54h9q78 0 112 16q1 3 1 9q0 29 -40 29zM243 528q-43 0 -82 -54h9q78 0 112 16q1 3 1 9q0 29 -40 29zM741 297q10 33 58 81q36 -89 36 -210q-23 -89 -83.5 -128.5t-128.5 -39.5q-133 0 -133 157
q0 9 2 37q-79 -27 -185 -36q32 -51 32 -139q0 -114 -51 -192.5t-151 -102.5q-89 18 -129 48l-3 14q127 -4 214 65t82 171q-24 57 -93 123q14 44 48 79q161 8 293 43q-4 -27 -4 -55q0 -128 109 -128q96 0 131 48q1 30 -11 78t-33 87z" />
    <glyph glyph-name="uniFE97FB69FB8B" unicode="&#xfe97;&#xfb69;&#xfb8b;" 
d="M327 498q51 -14 102 -17q11 18 22 33q-3 92 -22 165q18 18 43 23q7 -40 7 -141v-14q40 38 74 38q27 0 43 -20.5t16 -51.5q0 -28 -22 -55q-48 -27 -154 -27h-3q-17 -29 -26 -51q-15 -3 -15 13q0 14 11 39q-30 5 -32 6q-25 15 -44 60zM711 480q-23 18 -63 62q24 40 68 67
q31 -25 51 -50q46 38 72 52q37 -29 61 -69q-41 -28 -72 -56q-8 10 -27 31t-27 30q-21 -21 -63 -67zM164 443q-37 30 -61 64q24 44 67 63q37 -29 60 -63q-37 -29 -66 -64zM545 534q-43 0 -82 -54h9q78 0 112 16q1 3 1 9q0 29 -40 29zM109 309q-23 18 -63 62q24 40 68 67
q31 -25 51 -50q46 38 72 52q37 -29 61 -69q-41 -28 -72 -56q-8 10 -27 31t-27 30q-21 -21 -63 -67zM741 297q10 33 58 81q36 -89 36 -210q-23 -89 -83.5 -128.5t-128.5 -39.5q-133 0 -133 157q0 9 2 37q-79 -27 -185 -36q32 -51 32 -139q0 -114 -51 -192.5t-151 -102.5
q-89 18 -129 48l-3 14q127 -4 214 65t82 171q-24 57 -93 123q14 44 48 79q161 8 293 43q-4 -27 -4 -55q0 -128 109 -128q96 0 131 48q1 30 -11 78t-33 87z" />
    <glyph glyph-name="uniFE97FB69FEE6" unicode="&#xfe97;&#xfb69;&#xfee6;" horiz-adv-x="1089" 
d="M516 498q51 -14 102 -17q11 18 22 33q-3 92 -22 165q18 18 43 23q7 -40 7 -141v-14q40 38 74 38q27 0 43 -20.5t16 -51.5q0 -28 -22 -55q-48 -27 -154 -27h-3q-17 -29 -26 -51q-15 -3 -15 13q0 14 11 39q-30 5 -32 6q-25 15 -44 60zM900 480q-23 18 -63 62q24 40 68 67
q31 -25 51 -50q46 38 72 52q37 -29 61 -69q-41 -28 -72 -56q-8 10 -27 31t-27 30q-21 -21 -63 -67zM734 534q-43 0 -82 -54h9q78 0 112 16q1 3 1 9q0 29 -40 29zM294 255q-37 30 -61 64q24 44 67 63q37 -29 60 -63q-37 -29 -66 -64zM930 297q10 33 58 81q36 -89 36 -210
q-23 -89 -83.5 -128.5t-128.5 -39.5q-148 0 -131 191q-73 -29 -177 -34q26 -75 31 -129q1 -71 -22 -127.5t-62.5 -90t-87 -50.5t-98.5 -17q-35 0 -67.5 10t-63.5 31t-49.5 61t-18.5 94q0 50 16.5 109.5t42.5 98.5l8 -23q-17 -73 -17 -131q0 -166 163 -166q77 0 134.5 28.5
t77.5 82.5q-7 80 -65 207q12 42 48 79q160 8 264 43q-25 -183 105 -183q96 0 131 48q1 30 -11 78t-33 87z" />
    <glyph glyph-name="uniFE97FB7D" unicode="&#xfe97;&#xfb7d;" horiz-adv-x="621" 
d="M329 562q-23 18 -63 62q24 40 68 67q31 -25 51 -50q46 38 72 52q37 -29 61 -69q-41 -28 -72 -56q-8 10 -27 31t-27 30q-21 -21 -63 -67zM586 237l6 -9q-16 -37 -38 -65q-79 3 -245 -71q-206 -92 -336 -92q-18 0 -18 27q0 31 8.5 44t36.5 13q51 0 109 12t94.5 24.5
t97.5 35.5t80 30q-20 3 -60.5 11.5t-73 13t-64.5 4.5q-68 0 -97 -19l-14 4q37 95 138.5 174t184.5 79q27 0 45 -11q23 -31 43 -94l-10 -10q-36 41 -97 41q-38 0 -87.5 -21t-92.5 -71q58 0 170.5 -26.5t174.5 -26.5q23 0 45 3zM270 -127q37 -29 61 -69q-41 -28 -72 -56
q-8 10 -27 31t-27 30q-21 -21 -63 -67q-23 18 -63 62q24 40 68 67q31 -25 51 -50q46 38 72 52zM206 -260q37 -29 60 -63q-37 -29 -66 -64q-37 30 -61 64q24 44 67 63z" />
    <glyph glyph-name="uniFE98FB8D" unicode="&#xfe98;&#xfb8d;" horiz-adv-x="651" 
d="M23 397q51 -14 102 -17q11 18 22 33q-3 92 -22 165q18 18 43 23q7 -40 7 -141v-14q40 38 74 38q27 0 43 -20.5t16 -51.5q0 -28 -22 -55q-48 -27 -154 -27h-3q-17 -30 -26 -51q-15 -3 -15 13q0 14 11 39q-30 5 -32 6q-25 15 -44 60zM453 400q-23 18 -63 62q24 40 68 67
q31 -25 51 -50q46 38 72 52q37 -29 61 -69q-41 -28 -72 -56q-8 10 -27 31t-27 30q-21 -21 -63 -67zM241 433q-43 0 -82 -54h9q78 0 112 16q1 3 1 9q0 29 -40 29zM538 178q0 -56 28 -75t85 -19q0 -46 -5 -65t-22 -19q-20 0 -38 3t-45 13.5t-43.5 37t-16.5 66.5q0 30 12 72
q-73 -25 -186 -34q32 -51 32 -139q0 -114 -51 -192.5t-151 -102.5q-89 18 -129 48l-3 14q127 -4 214 65t82 171q-24 57 -93 123q14 44 48 79q181 9 294 43q-12 -54 -12 -89z" />
    <glyph glyph-name="uniFE98FB8B" unicode="&#xfe98;&#xfb8b;" horiz-adv-x="651" 
d="M174 433q-37 30 -61 64q24 44 67 63q37 -29 60 -63q-37 -29 -66 -64zM453 400q-23 18 -63 62q24 40 68 67q31 -25 51 -50q46 38 72 52q37 -29 61 -69q-41 -28 -72 -56q-8 10 -27 31t-27 30q-21 -21 -63 -67zM119 299q-23 18 -63 62q24 40 68 67q31 -25 51 -50
q46 38 72 52q37 -29 61 -69q-41 -28 -72 -56q-8 10 -27 31t-27 30q-21 -21 -63 -67zM538 178q0 -56 28 -75t85 -19q0 -46 -5 -65t-22 -19q-20 0 -38 3t-45 13.5t-43.5 37t-16.5 66.5q0 30 12 72q-73 -25 -186 -34q32 -51 32 -139q0 -114 -51 -192.5t-151 -102.5
q-89 18 -129 48l-3 14q127 -4 214 65t82 171q-24 57 -93 123q14 44 48 79q181 9 294 43q-12 -54 -12 -89z" />
    <glyph glyph-name="uniFE97FEE8FEAE" unicode="&#xfe97;&#xfee8;&#xfeae;" 
d="M711 480q-23 18 -63 62q24 40 68 67q31 -25 51 -50q46 38 72 52q37 -29 61 -69q-41 -28 -72 -56q-8 10 -27 31t-27 30q-21 -21 -63 -67zM481 410q-37 30 -61 64q24 44 67 63q37 -29 60 -63q-37 -29 -66 -64zM741 297q10 33 58 81q36 -89 36 -210q-23 -89 -83.5 -128.5
t-128.5 -39.5q-133 0 -133 157q0 9 2 37q-79 -27 -185 -36q32 -51 32 -139q0 -114 -51 -192.5t-151 -102.5q-89 18 -129 48l-3 14q127 -4 214 65t82 171q-24 57 -93 123q14 44 48 79q161 8 293 43q-4 -27 -4 -55q0 -128 109 -128q96 0 131 48q1 30 -11 78t-33 87z" />
    <glyph glyph-name="uniFE97FEE8FEB0" unicode="&#xfe97;&#xfee8;&#xfeb0;" 
d="M711 480q-23 18 -63 62q24 40 68 67q31 -25 51 -50q46 38 72 52q37 -29 61 -69q-41 -28 -72 -56q-8 10 -27 31t-27 30q-21 -21 -63 -67zM481 410q-37 30 -61 64q24 44 67 63q37 -29 60 -63q-37 -29 -66 -64zM167 319q-37 30 -61 64q24 44 67 63q37 -29 60 -63
q-37 -29 -66 -64zM741 297q10 33 58 81q36 -89 36 -210q-23 -89 -83.5 -128.5t-128.5 -39.5q-133 0 -133 157q0 9 2 37q-79 -27 -185 -36q32 -51 32 -139q0 -114 -51 -192.5t-151 -102.5q-89 18 -129 48l-3 14q127 -4 214 65t82 171q-24 57 -93 123q14 44 48 79
q161 8 293 43q-4 -27 -4 -55q0 -128 109 -128q96 0 131 48q1 30 -11 78t-33 87z" />
    <glyph glyph-name="uniFE97FEE8FB8D" unicode="&#xfe97;&#xfee8;&#xfb8d;" horiz-adv-x="935" 
d="M25 492q51 -14 102 -17q11 18 22 33q-3 92 -22 165q18 18 43 23q7 -40 7 -141v-14q40 38 74 38q27 0 43 -20.5t16 -51.5q0 -28 -22 -55q-48 -27 -154 -27h-3q-17 -29 -26 -51q-15 -3 -15 13q0 14 11 39q-30 5 -32 6q-25 15 -44 60zM711 480q-23 18 -63 62q24 40 68 67
q31 -25 51 -50q46 38 72 52q37 -29 61 -69q-41 -28 -72 -56q-8 10 -27 31t-27 30q-21 -21 -63 -67zM481 410q-37 30 -61 64q24 44 67 63q37 -29 60 -63q-37 -29 -66 -64zM243 528q-43 0 -82 -54h9q78 0 112 16q1 3 1 9q0 29 -40 29zM741 297q10 33 58 81q36 -89 36 -210
q-23 -89 -83.5 -128.5t-128.5 -39.5q-133 0 -133 157q0 9 2 37q-79 -27 -185 -36q32 -51 32 -139q0 -114 -51 -192.5t-151 -102.5q-89 18 -129 48l-3 14q127 -4 214 65t82 171q-24 57 -93 123q14 44 48 79q161 8 293 43q-4 -27 -4 -55q0 -128 109 -128q96 0 131 48
q1 30 -11 78t-33 87z" />
    <glyph glyph-name="uniFE97FEE8FB8B" unicode="&#xfe97;&#xfee8;&#xfb8b;" 
d="M711 480q-23 18 -63 62q24 40 68 67q31 -25 51 -50q46 38 72 52q37 -29 61 -69q-41 -28 -72 -56q-8 10 -27 31t-27 30q-21 -21 -63 -67zM164 443q-37 30 -61 64q24 44 67 63q37 -29 60 -63q-37 -29 -66 -64zM481 410q-37 30 -61 64q24 44 67 63q37 -29 60 -63
q-37 -29 -66 -64zM109 309q-23 18 -63 62q24 40 68 67q31 -25 51 -50q46 38 72 52q37 -29 61 -69q-41 -28 -72 -56q-8 10 -27 31t-27 30q-21 -21 -63 -67zM741 297q10 33 58 81q36 -89 36 -210q-23 -89 -83.5 -128.5t-128.5 -39.5q-133 0 -133 157q0 9 2 37
q-79 -27 -185 -36q32 -51 32 -139q0 -114 -51 -192.5t-151 -102.5q-89 18 -129 48l-3 14q127 -4 214 65t82 171q-24 57 -93 123q14 44 48 79q161 8 293 43q-4 -27 -4 -55q0 -128 109 -128q96 0 131 48q1 30 -11 78t-33 87z" />
    <glyph glyph-name="uniFE97FEE8FEE6" unicode="&#xfe97;&#xfee8;&#xfee6;" horiz-adv-x="1089" 
d="M900 480q-23 18 -63 62q24 40 68 67q31 -25 51 -50q46 38 72 52q37 -29 61 -69q-41 -28 -72 -56q-8 10 -27 31t-27 30q-21 -21 -63 -67zM670 410q-37 30 -61 64q24 44 67 63q37 -29 60 -63q-37 -29 -66 -64zM294 255q-37 30 -61 64q24 44 67 63q37 -29 60 -63
q-37 -29 -66 -64zM930 297q10 33 58 81q36 -89 36 -210q-23 -89 -83.5 -128.5t-128.5 -39.5q-148 0 -131 191q-73 -29 -177 -34q26 -75 31 -129q1 -71 -22 -127.5t-62.5 -90t-87 -50.5t-98.5 -17q-35 0 -67.5 10t-63.5 31t-49.5 61t-18.5 94q0 50 16.5 109.5t42.5 98.5
l8 -23q-17 -73 -17 -131q0 -166 163 -166q77 0 134.5 28.5t77.5 82.5q-7 80 -65 207q12 42 48 79q160 8 264 43q-25 -183 105 -183q96 0 131 48q1 30 -11 78t-33 87z" />
    <glyph glyph-name="uniFE97FEF4FEAE" unicode="&#xfe97;&#xfef4;&#xfeae;" 
d="M711 480q-23 18 -63 62q24 40 68 67q31 -25 51 -50q46 38 72 52q37 -29 61 -69q-41 -28 -72 -56q-8 10 -27 31t-27 30q-21 -21 -63 -67zM741 297q10 33 58 81q36 -89 36 -210q-23 -89 -83.5 -128.5t-128.5 -39.5q-133 0 -133 157q0 9 2 37q-79 -27 -185 -36
q32 -51 32 -139q0 -114 -51 -192.5t-151 -102.5q-89 18 -129 48l-3 14q127 -4 214 65t82 171q-24 57 -93 123q14 44 48 79q161 8 293 43q-4 -27 -4 -55q0 -128 109 -128q96 0 131 48q1 30 -11 78t-33 87zM555 -135q37 -29 61 -69q-41 -28 -72 -56q-8 10 -27 31t-27 30
q-21 -21 -63 -67q-23 18 -63 62q24 40 68 67q31 -25 51 -50q46 38 72 52z" />
    <glyph glyph-name="uniFE97FEF4FEB0" unicode="&#xfe97;&#xfef4;&#xfeb0;" 
d="M711 480q-23 18 -63 62q24 40 68 67q31 -25 51 -50q46 38 72 52q37 -29 61 -69q-41 -28 -72 -56q-8 10 -27 31t-27 30q-21 -21 -63 -67zM167 319q-37 30 -61 64q24 44 67 63q37 -29 60 -63q-37 -29 -66 -64zM741 297q10 33 58 81q36 -89 36 -210q-23 -89 -83.5 -128.5
t-128.5 -39.5q-133 0 -133 157q0 9 2 37q-79 -27 -185 -36q32 -51 32 -139q0 -114 -51 -192.5t-151 -102.5q-89 18 -129 48l-3 14q127 -4 214 65t82 171q-24 57 -93 123q14 44 48 79q161 8 293 43q-4 -27 -4 -55q0 -128 109 -128q96 0 131 48q1 30 -11 78t-33 87zM555 -135
q37 -29 61 -69q-41 -28 -72 -56q-8 10 -27 31t-27 30q-21 -21 -63 -67q-23 18 -63 62q24 40 68 67q31 -25 51 -50q46 38 72 52z" />
    <glyph glyph-name="uniFE97FEF4FB8D" unicode="&#xfe97;&#xfef4;&#xfb8d;" horiz-adv-x="935" 
d="M25 492q51 -14 102 -17q11 18 22 33q-3 92 -22 165q18 18 43 23q7 -40 7 -141v-14q40 38 74 38q27 0 43 -20.5t16 -51.5q0 -28 -22 -55q-48 -27 -154 -27h-3q-17 -29 -26 -51q-15 -3 -15 13q0 14 11 39q-30 5 -32 6q-25 15 -44 60zM711 480q-23 18 -63 62q24 40 68 67
q31 -25 51 -50q46 38 72 52q37 -29 61 -69q-41 -28 -72 -56q-8 10 -27 31t-27 30q-21 -21 -63 -67zM243 528q-43 0 -82 -54h9q78 0 112 16q1 3 1 9q0 29 -40 29zM741 297q10 33 58 81q36 -89 36 -210q-23 -89 -83.5 -128.5t-128.5 -39.5q-133 0 -133 157q0 9 2 37
q-79 -27 -185 -36q32 -51 32 -139q0 -114 -51 -192.5t-151 -102.5q-89 18 -129 48l-3 14q127 -4 214 65t82 171q-24 57 -93 123q14 44 48 79q161 8 293 43q-4 -27 -4 -55q0 -128 109 -128q96 0 131 48q1 30 -11 78t-33 87zM555 -135q37 -29 61 -69q-41 -28 -72 -56
q-8 10 -27 31t-27 30q-21 -21 -63 -67q-23 18 -63 62q24 40 68 67q31 -25 51 -50q46 38 72 52z" />
    <glyph glyph-name="uniFE97FEF4FB8B" unicode="&#xfe97;&#xfef4;&#xfb8b;" 
d="M711 480q-23 18 -63 62q24 40 68 67q31 -25 51 -50q46 38 72 52q37 -29 61 -69q-41 -28 -72 -56q-8 10 -27 31t-27 30q-21 -21 -63 -67zM164 443q-37 30 -61 64q24 44 67 63q37 -29 60 -63q-37 -29 -66 -64zM109 309q-23 18 -63 62q24 40 68 67q31 -25 51 -50
q46 38 72 52q37 -29 61 -69q-41 -28 -72 -56q-8 10 -27 31t-27 30q-21 -21 -63 -67zM741 297q10 33 58 81q36 -89 36 -210q-23 -89 -83.5 -128.5t-128.5 -39.5q-133 0 -133 157q0 9 2 37q-79 -27 -185 -36q32 -51 32 -139q0 -114 -51 -192.5t-151 -102.5q-89 18 -129 48
l-3 14q127 -4 214 65t82 171q-24 57 -93 123q14 44 48 79q161 8 293 43q-4 -27 -4 -55q0 -128 109 -128q96 0 131 48q1 30 -11 78t-33 87zM555 -135q37 -29 61 -69q-41 -28 -72 -56q-8 10 -27 31t-27 30q-21 -21 -63 -67q-23 18 -63 62q24 40 68 67q31 -25 51 -50
q46 38 72 52z" />
    <glyph glyph-name="uniFE97FEF4FEE6" unicode="&#xfe97;&#xfef4;&#xfee6;" horiz-adv-x="1089" 
d="M900 480q-23 18 -63 62q24 40 68 67q31 -25 51 -50q46 38 72 52q37 -29 61 -69q-41 -28 -72 -56q-8 10 -27 31t-27 30q-21 -21 -63 -67zM294 255q-37 30 -61 64q24 44 67 63q37 -29 60 -63q-37 -29 -66 -64zM930 297q10 33 58 81q36 -89 36 -210q-23 -89 -83.5 -128.5
t-128.5 -39.5q-148 0 -131 191q-73 -29 -177 -34q26 -75 31 -129q1 -71 -22 -127.5t-62.5 -90t-87 -50.5t-98.5 -17q-35 0 -67.5 10t-63.5 31t-49.5 61t-18.5 94q0 50 16.5 109.5t42.5 98.5l8 -23q-17 -73 -17 -131q0 -166 163 -166q77 0 134.5 28.5t77.5 82.5
q-7 80 -65 207q12 42 48 79q160 8 264 43q-25 -183 105 -183q96 0 131 48q1 30 -11 78t-33 87zM744 -135q37 -29 61 -69q-41 -28 -72 -56q-8 10 -27 31t-27 30q-21 -21 -63 -67q-23 18 -63 62q24 40 68 67q31 -25 51 -50q46 38 72 52z" />
    <glyph glyph-name="uniFE97FE8A" unicode="&#xfe97;&#xfe8a;" horiz-adv-x="710" 
d="M515 490q-23 18 -63 62q24 40 68 67q31 -25 51 -50q46 38 72 52q37 -29 61 -69q-41 -28 -72 -56q-8 10 -27 31t-27 30q-21 -21 -63 -67zM221 257q-57 -16 -90.5 -35t-78.5 -61q-11 5 -11 16q0 27 67 67q-63 12 -63 69q0 34 21.5 53t54.5 19q24 0 37 -9q23 -21 27 -45
q-30 11 -55 11q-33 0 -58 -20q10 -36 79 -36q35 0 78 13l4 1q-4 -31 -12 -43zM551 297q10 33 58 81q36 -89 36 -210q-29 -89 -114 -132q37 -37 37 -87q0 -81 -83 -143.5t-203 -62.5q-101 0 -166.5 46.5t-65.5 152.5q0 110 61 194l8 -23q-20 -45 -20 -120q0 -166 204 -166
q188 0 236 115q-15 31 -68.5 58t-121.5 37q9 37 31 79q35 -22 90 -22q76 0 125 38q1 30 -11 78t-33 87z" />
    <glyph glyph-name="uniFE98FE8A" unicode="&#xfe98;&#xfe8a;" horiz-adv-x="752" 
d="M532 400q-23 18 -63 62q24 40 68 67q31 -25 51 -50q46 38 72 52q37 -29 61 -69q-41 -28 -72 -56q-8 10 -27 31t-27 30q-21 -21 -63 -67zM221 257q-57 -16 -90.5 -35t-78.5 -61q-11 5 -11 16q0 27 67 67q-63 12 -63 69q0 34 21.5 53t54.5 19q24 0 37 -9q23 -21 27 -45
q-30 11 -55 11q-33 0 -58 -20q10 -36 79 -36q35 0 78 13l4 1q-4 -31 -12 -43zM620 191q0 -63 34.5 -85t96.5 -22q0 -46 -5 -65t-22 -19q-21 0 -41 3t-51 14t-50 39.5t-19 70.5q0 33 11 69q-61 3 -118.5 -29.5t-82.5 -91.5q18 -19 56.5 -35t70 -31t38.5 -36
q-22 -103 -100.5 -166.5t-183.5 -63.5q-40 0 -74.5 10t-64.5 31.5t-47.5 62t-17.5 95.5q0 110 61 194l8 -23q-20 -45 -20 -120q0 -53 14.5 -88.5t41.5 -51t51 -21t56 -5.5q175 0 227 95q-12 20 -77 43.5t-87 52.5q0 106 74 181.5t172 75.5q27 0 59 -8q-10 -43 -10 -76z" />
    <glyph glyph-name="uniFE97FE8CFEAE" unicode="&#xfe97;&#xfe8c;&#xfeae;" 
d="M384 430q0 27 67 67q-63 12 -63 69q0 34 21.5 53t54.5 19q24 0 37 -9q23 -21 27 -45q-30 11 -55 11q-33 0 -58 -20q10 -36 79 -36q35 0 78 13l4 1q-4 -31 -12 -43q-57 -16 -90.5 -35t-78.5 -61q-11 6 -11 16zM711 480q-23 18 -63 62q24 40 68 67q31 -25 51 -50
q46 38 72 52q37 -29 61 -69q-41 -28 -72 -56q-8 10 -27 31t-27 30q-21 -21 -63 -67zM741 297q10 33 58 81q36 -89 36 -210q-23 -89 -83.5 -128.5t-128.5 -39.5q-133 0 -133 157q0 9 2 37q-79 -27 -185 -36q32 -51 32 -139q0 -114 -51 -192.5t-151 -102.5q-89 18 -129 48
l-3 14q127 -4 214 65t82 171q-24 57 -93 123q14 44 48 79q161 8 293 43q-4 -27 -4 -55q0 -128 109 -128q96 0 131 48q1 30 -11 78t-33 87z" />
    <glyph glyph-name="uniFE97FE8CFEB0" unicode="&#xfe97;&#xfe8c;&#xfeb0;" 
d="M384 430q0 27 67 67q-63 12 -63 69q0 34 21.5 53t54.5 19q24 0 37 -9q23 -21 27 -45q-30 11 -55 11q-33 0 -58 -20q10 -36 79 -36q35 0 78 13l4 1q-4 -31 -12 -43q-57 -16 -90.5 -35t-78.5 -61q-11 6 -11 16zM711 480q-23 18 -63 62q24 40 68 67q31 -25 51 -50
q46 38 72 52q37 -29 61 -69q-41 -28 -72 -56q-8 10 -27 31t-27 30q-21 -21 -63 -67zM167 319q-37 30 -61 64q24 44 67 63q37 -29 60 -63q-37 -29 -66 -64zM741 297q10 33 58 81q36 -89 36 -210q-23 -89 -83.5 -128.5t-128.5 -39.5q-133 0 -133 157q0 9 2 37
q-79 -27 -185 -36q32 -51 32 -139q0 -114 -51 -192.5t-151 -102.5q-89 18 -129 48l-3 14q127 -4 214 65t82 171q-24 57 -93 123q14 44 48 79q161 8 293 43q-4 -27 -4 -55q0 -128 109 -128q96 0 131 48q1 30 -11 78t-33 87z" />
    <glyph glyph-name="uniFE97FE8CFB8D" unicode="&#xfe97;&#xfe8c;&#xfb8d;" horiz-adv-x="935" 
d="M25 492q51 -14 102 -17q11 18 22 33q-3 92 -22 165q18 18 43 23q7 -40 7 -141v-14q40 38 74 38q27 0 43 -20.5t16 -51.5q0 -28 -22 -55q-48 -27 -154 -27h-3q-17 -29 -26 -51q-15 -3 -15 13q0 14 11 39q-30 5 -32 6q-25 15 -44 60zM384 430q0 27 67 67q-63 12 -63 69
q0 34 21.5 53t54.5 19q24 0 37 -9q23 -21 27 -45q-30 11 -55 11q-33 0 -58 -20q10 -36 79 -36q35 0 78 13l4 1q-4 -31 -12 -43q-57 -16 -90.5 -35t-78.5 -61q-11 6 -11 16zM711 480q-23 18 -63 62q24 40 68 67q31 -25 51 -50q46 38 72 52q37 -29 61 -69q-41 -28 -72 -56
q-8 10 -27 31t-27 30q-21 -21 -63 -67zM243 528q-43 0 -82 -54h9q78 0 112 16q1 3 1 9q0 29 -40 29zM741 297q10 33 58 81q36 -89 36 -210q-23 -89 -83.5 -128.5t-128.5 -39.5q-133 0 -133 157q0 9 2 37q-79 -27 -185 -36q32 -51 32 -139q0 -114 -51 -192.5t-151 -102.5
q-89 18 -129 48l-3 14q127 -4 214 65t82 171q-24 57 -93 123q14 44 48 79q161 8 293 43q-4 -27 -4 -55q0 -128 109 -128q96 0 131 48q1 30 -11 78t-33 87z" />
    <glyph glyph-name="uniFE97FE8CFB8B" unicode="&#xfe97;&#xfe8c;&#xfb8b;" 
d="M384 430q0 27 67 67q-63 12 -63 69q0 34 21.5 53t54.5 19q24 0 37 -9q23 -21 27 -45q-30 11 -55 11q-33 0 -58 -20q10 -36 79 -36q35 0 78 13l4 1q-4 -31 -12 -43q-57 -16 -90.5 -35t-78.5 -61q-11 6 -11 16zM711 480q-23 18 -63 62q24 40 68 67q31 -25 51 -50
q46 38 72 52q37 -29 61 -69q-41 -28 -72 -56q-8 10 -27 31t-27 30q-21 -21 -63 -67zM164 443q-37 30 -61 64q24 44 67 63q37 -29 60 -63q-37 -29 -66 -64zM109 309q-23 18 -63 62q24 40 68 67q31 -25 51 -50q46 38 72 52q37 -29 61 -69q-41 -28 -72 -56q-8 10 -27 31t-27 30
q-21 -21 -63 -67zM741 297q10 33 58 81q36 -89 36 -210q-23 -89 -83.5 -128.5t-128.5 -39.5q-133 0 -133 157q0 9 2 37q-79 -27 -185 -36q32 -51 32 -139q0 -114 -51 -192.5t-151 -102.5q-89 18 -129 48l-3 14q127 -4 214 65t82 171q-24 57 -93 123q14 44 48 79
q161 8 293 43q-4 -27 -4 -55q0 -128 109 -128q96 0 131 48q1 30 -11 78t-33 87z" />
    <glyph glyph-name="uniFE97FE8CFEE6" unicode="&#xfe97;&#xfe8c;&#xfee6;" horiz-adv-x="1089" 
d="M573 430q0 27 67 67q-63 12 -63 69q0 34 21.5 53t54.5 19q24 0 37 -9q23 -21 27 -45q-30 11 -55 11q-33 0 -58 -20q10 -36 79 -36q35 0 78 13l4 1q-4 -31 -12 -43q-57 -16 -90.5 -35t-78.5 -61q-11 6 -11 16zM900 480q-23 18 -63 62q24 40 68 67q31 -25 51 -50
q46 38 72 52q37 -29 61 -69q-41 -28 -72 -56q-8 10 -27 31t-27 30q-21 -21 -63 -67zM294 255q-37 30 -61 64q24 44 67 63q37 -29 60 -63q-37 -29 -66 -64zM930 297q10 33 58 81q36 -89 36 -210q-23 -89 -83.5 -128.5t-128.5 -39.5q-148 0 -131 191q-73 -29 -177 -34
q26 -75 31 -129q1 -71 -22 -127.5t-62.5 -90t-87 -50.5t-98.5 -17q-35 0 -67.5 10t-63.5 31t-49.5 61t-18.5 94q0 50 16.5 109.5t42.5 98.5l8 -23q-17 -73 -17 -131q0 -166 163 -166q77 0 134.5 28.5t77.5 82.5q-7 80 -65 207q12 42 48 79q160 8 264 43q-25 -183 105 -183
q96 0 131 48q1 30 -11 78t-33 87z" />
    <glyph glyph-name="uniFE9BFE92FEAE" unicode="&#xfe9b;&#xfe92;&#xfeae;" 
d="M771 614q-37 30 -61 64q24 44 67 63q37 -29 60 -63q-37 -29 -66 -64zM716 480q-23 18 -63 62q24 40 68 67q31 -25 51 -50q46 38 72 52q37 -29 61 -69q-41 -28 -72 -56q-8 10 -27 31t-27 30q-21 -21 -63 -67zM741 297q10 33 58 81q36 -89 36 -210q-23 -89 -83.5 -128.5
t-128.5 -39.5q-133 0 -133 157q0 9 2 37q-79 -27 -185 -36q32 -51 32 -139q0 -114 -51 -192.5t-151 -102.5q-89 18 -129 48l-3 14q127 -4 214 65t82 171q-24 57 -93 123q14 44 48 79q161 8 293 43q-4 -27 -4 -55q0 -128 109 -128q96 0 131 48q1 30 -11 78t-33 87zM486 -141
q37 -29 60 -63q-37 -29 -66 -64q-37 30 -61 64q24 44 67 63z" />
    <glyph glyph-name="uniFE9BFE92FEB0" unicode="&#xfe9b;&#xfe92;&#xfeb0;" 
d="M771 614q-37 30 -61 64q24 44 67 63q37 -29 60 -63q-37 -29 -66 -64zM716 480q-23 18 -63 62q24 40 68 67q31 -25 51 -50q46 38 72 52q37 -29 61 -69q-41 -28 -72 -56q-8 10 -27 31t-27 30q-21 -21 -63 -67zM167 319q-37 30 -61 64q24 44 67 63q37 -29 60 -63
q-37 -29 -66 -64zM741 297q10 33 58 81q36 -89 36 -210q-23 -89 -83.5 -128.5t-128.5 -39.5q-133 0 -133 157q0 9 2 37q-79 -27 -185 -36q32 -51 32 -139q0 -114 -51 -192.5t-151 -102.5q-89 18 -129 48l-3 14q127 -4 214 65t82 171q-24 57 -93 123q14 44 48 79
q161 8 293 43q-4 -27 -4 -55q0 -128 109 -128q96 0 131 48q1 30 -11 78t-33 87zM486 -141q37 -29 60 -63q-37 -29 -66 -64q-37 30 -61 64q24 44 67 63z" />
    <glyph glyph-name="uniFE9BFE92FB8D" unicode="&#xfe9b;&#xfe92;&#xfb8d;" horiz-adv-x="940" 
d="M771 614q-37 30 -61 64q24 44 67 63q37 -29 60 -63q-37 -29 -66 -64zM25 492q51 -14 102 -17q11 18 22 33q-3 92 -22 165q18 18 43 23q7 -40 7 -141v-14q40 38 74 38q27 0 43 -20.5t16 -51.5q0 -28 -22 -55q-48 -27 -154 -27h-3q-17 -29 -26 -51q-15 -3 -15 13
q0 14 11 39q-30 5 -32 6q-25 15 -44 60zM716 480q-23 18 -63 62q24 40 68 67q31 -25 51 -50q46 38 72 52q37 -29 61 -69q-41 -28 -72 -56q-8 10 -27 31t-27 30q-21 -21 -63 -67zM243 528q-43 0 -82 -54h9q78 0 112 16q1 3 1 9q0 29 -40 29zM741 297q10 33 58 81
q36 -89 36 -210q-23 -89 -83.5 -128.5t-128.5 -39.5q-133 0 -133 157q0 9 2 37q-79 -27 -185 -36q32 -51 32 -139q0 -114 -51 -192.5t-151 -102.5q-89 18 -129 48l-3 14q127 -4 214 65t82 171q-24 57 -93 123q14 44 48 79q161 8 293 43q-4 -27 -4 -55q0 -128 109 -128
q96 0 131 48q1 30 -11 78t-33 87zM486 -141q37 -29 60 -63q-37 -29 -66 -64q-37 30 -61 64q24 44 67 63z" />
    <glyph glyph-name="uniFE9BFE92FB8B" unicode="&#xfe9b;&#xfe92;&#xfb8b;" 
d="M771 614q-37 30 -61 64q24 44 67 63q37 -29 60 -63q-37 -29 -66 -64zM716 480q-23 18 -63 62q24 40 68 67q31 -25 51 -50q46 38 72 52q37 -29 61 -69q-41 -28 -72 -56q-8 10 -27 31t-27 30q-21 -21 -63 -67zM164 443q-37 30 -61 64q24 44 67 63q37 -29 60 -63
q-37 -29 -66 -64zM109 309q-23 18 -63 62q24 40 68 67q31 -25 51 -50q46 38 72 52q37 -29 61 -69q-41 -28 -72 -56q-8 10 -27 31t-27 30q-21 -21 -63 -67zM741 297q10 33 58 81q36 -89 36 -210q-23 -89 -83.5 -128.5t-128.5 -39.5q-133 0 -133 157q0 9 2 37
q-79 -27 -185 -36q32 -51 32 -139q0 -114 -51 -192.5t-151 -102.5q-89 18 -129 48l-3 14q127 -4 214 65t82 171q-24 57 -93 123q14 44 48 79q161 8 293 43q-4 -27 -4 -55q0 -128 109 -128q96 0 131 48q1 30 -11 78t-33 87zM486 -141q37 -29 60 -63q-37 -29 -66 -64
q-37 30 -61 64q24 44 67 63z" />
    <glyph glyph-name="uniFE9BFE92FEE6" unicode="&#xfe9b;&#xfe92;&#xfee6;" horiz-adv-x="1089" 
d="M960 614q-37 30 -61 64q24 44 67 63q37 -29 60 -63q-37 -29 -66 -64zM905 480q-23 18 -63 62q24 40 68 67q31 -25 51 -50q46 38 72 52q37 -29 61 -69q-41 -28 -72 -56q-8 10 -27 31t-27 30q-21 -21 -63 -67zM294 255q-37 30 -61 64q24 44 67 63q37 -29 60 -63
q-37 -29 -66 -64zM930 297q10 33 58 81q36 -89 36 -210q-23 -89 -83.5 -128.5t-128.5 -39.5q-148 0 -131 191q-73 -29 -177 -34q26 -75 31 -129q1 -71 -22 -127.5t-62.5 -90t-87 -50.5t-98.5 -17q-35 0 -67.5 10t-63.5 31t-49.5 61t-18.5 94q0 50 16.5 109.5t42.5 98.5
l8 -23q-17 -73 -17 -131q0 -166 163 -166q77 0 134.5 28.5t77.5 82.5q-7 80 -65 207q12 42 48 79q160 8 264 43q-25 -183 105 -183q96 0 131 48q1 30 -11 78t-33 87zM675 -141q37 -29 60 -63q-37 -29 -66 -64q-37 30 -61 64q24 44 67 63z" />
    <glyph glyph-name="uniFE9BFB59FEAE" unicode="&#xfe9b;&#xfb59;&#xfeae;" horiz-adv-x="970" 
d="M771 614q-37 30 -61 64q24 44 67 63q37 -29 60 -63q-37 -29 -66 -64zM716 480q-23 18 -63 62q24 40 68 67q31 -25 51 -50q46 38 72 52q37 -29 61 -69q-41 -28 -72 -56q-8 10 -27 31t-27 30q-21 -21 -63 -67zM741 297q10 33 58 81q36 -89 36 -210q-23 -89 -83.5 -128.5
t-128.5 -39.5q-133 0 -133 157q0 9 2 37q-79 -27 -185 -36q32 -51 32 -139q0 -114 -51 -192.5t-151 -102.5q-89 18 -129 48l-3 14q127 -4 214 65t82 171q-24 57 -93 123q14 44 48 79q161 8 293 43q-4 -27 -4 -55q0 -128 109 -128q96 0 131 48q1 30 -11 78t-33 87zM551 -90
q37 -29 61 -69q-41 -28 -72 -56q-8 10 -27 31t-27 30q-21 -21 -63 -67q-23 18 -63 62q24 40 68 67q31 -25 51 -50q46 38 72 52zM487 -223q37 -29 60 -63q-37 -29 -66 -64q-37 30 -61 64q24 44 67 63z" />
    <glyph glyph-name="uniFE9BFB59FEB0" unicode="&#xfe9b;&#xfb59;&#xfeb0;" horiz-adv-x="970" 
d="M771 614q-37 30 -61 64q24 44 67 63q37 -29 60 -63q-37 -29 -66 -64zM716 480q-23 18 -63 62q24 40 68 67q31 -25 51 -50q46 38 72 52q37 -29 61 -69q-41 -28 -72 -56q-8 10 -27 31t-27 30q-21 -21 -63 -67zM167 319q-37 30 -61 64q24 44 67 63q37 -29 60 -63
q-37 -29 -66 -64zM741 297q10 33 58 81q36 -89 36 -210q-23 -89 -83.5 -128.5t-128.5 -39.5q-133 0 -133 157q0 9 2 37q-79 -27 -185 -36q32 -51 32 -139q0 -114 -51 -192.5t-151 -102.5q-89 18 -129 48l-3 14q127 -4 214 65t82 171q-24 57 -93 123q14 44 48 79
q161 8 293 43q-4 -27 -4 -55q0 -128 109 -128q96 0 131 48q1 30 -11 78t-33 87zM551 -90q37 -29 61 -69q-41 -28 -72 -56q-8 10 -27 31t-27 30q-21 -21 -63 -67q-23 18 -63 62q24 40 68 67q31 -25 51 -50q46 38 72 52zM487 -223q37 -29 60 -63q-37 -29 -66 -64
q-37 30 -61 64q24 44 67 63z" />
    <glyph glyph-name="uniFE9BFB59FB8D" unicode="&#xfe9b;&#xfb59;&#xfb8d;" horiz-adv-x="940" 
d="M771 614q-37 30 -61 64q24 44 67 63q37 -29 60 -63q-37 -29 -66 -64zM25 492q51 -14 102 -17q11 18 22 33q-3 92 -22 165q18 18 43 23q7 -40 7 -141v-14q40 38 74 38q27 0 43 -20.5t16 -51.5q0 -28 -22 -55q-48 -27 -154 -27h-3q-17 -29 -26 -51q-15 -3 -15 13
q0 14 11 39q-30 5 -32 6q-25 15 -44 60zM716 480q-23 18 -63 62q24 40 68 67q31 -25 51 -50q46 38 72 52q37 -29 61 -69q-41 -28 -72 -56q-8 10 -27 31t-27 30q-21 -21 -63 -67zM243 528q-43 0 -82 -54h9q78 0 112 16q1 3 1 9q0 29 -40 29zM741 297q10 33 58 81
q36 -89 36 -210q-23 -89 -83.5 -128.5t-128.5 -39.5q-133 0 -133 157q0 9 2 37q-79 -27 -185 -36q32 -51 32 -139q0 -114 -51 -192.5t-151 -102.5q-89 18 -129 48l-3 14q127 -4 214 65t82 171q-24 57 -93 123q14 44 48 79q161 8 293 43q-4 -27 -4 -55q0 -128 109 -128
q96 0 131 48q1 30 -11 78t-33 87zM551 -90q37 -29 61 -69q-41 -28 -72 -56q-8 10 -27 31t-27 30q-21 -21 -63 -67q-23 18 -63 62q24 40 68 67q31 -25 51 -50q46 38 72 52zM487 -223q37 -29 60 -63q-37 -29 -66 -64q-37 30 -61 64q24 44 67 63z" />
    </font>
</defs>
</svg>
