<svg width="34" height="34" viewBox="0 0 34 34" fill="none" xmlns="http://www.w3.org/2000/svg">
<g clip-path="url(#clip0_8_23)">
<path d="M25.9102 9.87831C25.9033 9.86937 25.8947 9.85804 25.8865 9.84731C23.9842 7.35639 21.2512 5.87353 18.3719 5.49045L20.4403 3.91087C20.8515 3.59678 20.9304 3.00807 20.6163 2.59679C20.3022 2.18551 19.7135 2.10663 19.3022 2.42073L15.0875 5.63951C15.0596 5.6684 15.0362 5.69471 15.0149 5.72235L15.0187 5.71751C14.9656 5.76658 14.922 5.81691 14.8846 5.87184L14.8891 5.86655C14.823 5.97273 14.7786 6.08022 14.7514 6.19161L14.7522 6.18905C14.7396 6.25156 14.7344 6.31401 14.7351 6.37671L14.7353 6.37941C14.7301 6.41455 14.7269 6.44998 14.7254 6.4851L14.7251 6.4872C14.728 6.50952 14.7412 6.52681 14.7447 6.54868C14.7554 6.60469 14.7745 6.66558 14.8004 6.72415L14.8029 6.72983C14.8207 6.78038 14.8471 6.83475 14.8791 6.88772L14.8814 6.8907C14.8947 6.91069 14.8975 6.93406 14.9121 6.95314L18.1308 11.1679C18.4449 11.5791 19.0336 11.658 19.4449 11.3439C19.8562 11.0298 19.9351 10.4411 19.621 10.0298L17.5357 7.2993C20.1646 7.48566 22.6904 8.75026 24.4069 10.998C24.412 11.0045 24.4165 11.0105 24.4215 11.0171L24.4206 11.0159C27.6241 15.213 26.8203 21.2126 22.6234 24.4177C18.426 27.6233 12.4253 26.8194 9.21976 22.6219C6.91777 19.6076 6.68376 15.6633 8.28895 12.4925L8.31923 12.4382C8.47819 12.1224 8.45428 11.7377 8.22896 11.4427C7.91486 11.0314 7.32615 10.9525 6.91487 11.2666C6.79924 11.3549 6.70959 11.4649 6.6478 11.5866L6.6512 11.5812C4.69544 15.4397 4.97564 20.1575 7.72874 23.7625C11.563 28.7831 18.741 29.7448 23.7616 25.9106C28.7822 22.0764 29.7439 14.8983 25.9102 9.87831Z" fill="white"/>
<path d="M12.341 15.067L14.244 14H15.344V21.48H14.046V15.452L12.924 16.068L12.341 15.067ZM17.1145 17.619L17.3345 14H21.1625V15.243H18.5005L18.4015 16.893C18.6582 16.827 18.9332 16.794 19.2265 16.794C19.9525 16.794 20.5208 16.9847 20.9315 17.366C21.3422 17.74 21.5475 18.2937 21.5475 19.027V19.324C21.5475 19.7347 21.4632 20.1124 21.2945 20.457C21.1258 20.8017 20.8545 21.0767 20.4805 21.282C20.1138 21.4874 19.6262 21.59 19.0175 21.59C18.6802 21.59 18.3282 21.5497 17.9615 21.469C17.6022 21.3884 17.2062 21.2527 16.7735 21.062L17.1805 19.929C17.5692 20.083 17.8955 20.1967 18.1595 20.27C18.4308 20.336 18.7022 20.369 18.9735 20.369C19.3842 20.369 19.6922 20.2847 19.8975 20.116C20.1102 19.9474 20.2165 19.6834 20.2165 19.324V19.027C20.2165 18.7044 20.1212 18.4477 19.9305 18.257C19.7472 18.0664 19.4502 17.971 19.0395 17.971C18.8562 17.971 18.6655 17.9967 18.4675 18.048C18.2695 18.092 18.0568 18.158 17.8295 18.246L17.1145 17.619Z" fill="white"/>
</g>
<defs>
<clipPath id="clip0_8_23">
<rect width="24" height="24" fill="white" transform="translate(19.0739) rotate(52.6311)"/>
</clipPath>
</defs>
</svg>
