<svg width="34" height="34" viewBox="0 0 34 34" fill="none" xmlns="http://www.w3.org/2000/svg">
<g clip-path="url(#clip0_8_25)">
<path d="M7.7306 9.87817C7.73742 9.86923 7.74607 9.85791 7.75427 9.84718C9.65664 7.35629 12.3896 5.8735 15.2689 5.49048L13.2006 3.91086C12.7893 3.59676 12.7105 3.00804 13.0246 2.59677C13.3387 2.1855 13.9274 2.10664 14.3387 2.42074L18.5533 5.63961C18.5813 5.66851 18.6046 5.69481 18.6259 5.72245L18.6221 5.71762C18.6752 5.76668 18.7189 5.81701 18.7562 5.87194L18.7517 5.86665C18.8179 5.97283 18.8622 6.08033 18.8895 6.19172L18.8886 6.18916C18.9012 6.25167 18.9064 6.31412 18.9057 6.37682L18.9055 6.37952C18.9108 6.41466 18.9139 6.45009 18.9154 6.48521L18.9157 6.48731C18.9128 6.50963 18.8996 6.52692 18.8961 6.54879C18.8854 6.6048 18.8663 6.66568 18.8404 6.72426L18.838 6.72994C18.8201 6.78049 18.7937 6.83486 18.7617 6.88783L18.7595 6.89081C18.7461 6.91079 18.7433 6.93417 18.7288 6.95324L15.5099 11.1679C15.1958 11.5792 14.6071 11.658 14.1958 11.3439C13.7845 11.0298 13.7057 10.4411 14.0198 10.0298L16.1051 7.29935C13.4762 7.48565 10.9504 8.75019 9.23378 10.9979C9.22877 11.0044 9.22422 11.0104 9.21921 11.017L9.22012 11.0158C6.01655 15.2129 6.82024 21.2125 11.017 24.4177C15.2144 27.6233 21.215 26.8195 24.4207 22.6221C26.7228 19.6079 26.9569 15.6636 25.3517 12.4927L25.3215 12.4385C25.1625 12.1227 25.1864 11.738 25.4118 11.4429C25.7259 11.0316 26.3146 10.9528 26.7258 11.2669C26.8415 11.3552 26.9311 11.4652 26.9929 11.5869L26.9895 11.5815C28.9452 15.4401 28.6649 20.1579 25.9117 23.7628C22.0774 28.7833 14.8993 29.7448 9.87879 25.9105C4.85828 22.0762 3.89672 14.8981 7.7306 9.87817Z" fill="white"/>
<path d="M12.315 14.9458L14.218 13.8788H15.318V21.3588H14.02V15.3308L12.898 15.9468L12.315 14.9458ZM17.0884 17.4978L17.3084 13.8788H21.1364V15.1218H18.4744L18.3754 16.7718C18.6321 16.7058 18.9071 16.6728 19.2004 16.6728C19.9264 16.6728 20.4948 16.8634 20.9054 17.2448C21.3161 17.6188 21.5214 18.1724 21.5214 18.9058V19.2028C21.5214 19.6134 21.4371 19.9911 21.2684 20.3358C21.0998 20.6804 20.8284 20.9554 20.4544 21.1608C20.0878 21.3661 19.6001 21.4688 18.9914 21.4688C18.6541 21.4688 18.3021 21.4284 17.9354 21.3478C17.5761 21.2671 17.1801 21.1314 16.7474 20.9408L17.1544 19.8078C17.5431 19.9618 17.8694 20.0754 18.1334 20.1488C18.4048 20.2148 18.6761 20.2478 18.9474 20.2478C19.3581 20.2478 19.6661 20.1634 19.8714 19.9948C20.0841 19.8261 20.1904 19.5621 20.1904 19.2028V18.9058C20.1904 18.5831 20.0951 18.3264 19.9044 18.1358C19.7211 17.9451 19.4241 17.8498 19.0134 17.8498C18.8301 17.8498 18.6394 17.8754 18.4414 17.9268C18.2434 17.9708 18.0308 18.0368 17.8034 18.1248L17.0884 17.4978Z" fill="white"/>
</g>
<defs>
<clipPath id="clip0_8_25">
<rect width="24" height="24" fill="white" transform="matrix(-0.606963 0.79473 0.79473 0.606963 14.5671 0)"/>
</clipPath>
</defs>
</svg>
