<svg width="20" height="20" viewBox="0 0 20 20" fill="none" xmlns="http://www.w3.org/2000/svg">
<path d="M14.5151 3.67617H4.49008L6.05676 2.10951C6.29843 1.86784 6.29843 1.46784 6.05676 1.22617C5.81509 0.984505 5.41509 0.984505 5.17343 1.22617L2.54009 3.8595C2.48176 3.91784 2.44009 3.9845 2.40676 4.0595C2.37343 4.1345 2.35675 4.21784 2.35675 4.30117C2.35675 4.3845 2.37343 4.46784 2.40676 4.54284C2.44009 4.61784 2.48176 4.6845 2.54009 4.74284L5.17343 7.37617C5.29843 7.50117 5.45675 7.5595 5.61508 7.5595C5.77342 7.5595 5.93175 7.50117 6.05676 7.37617C6.29843 7.1345 6.29843 6.7345 6.05676 6.49284L4.49008 4.92617H14.5151C15.5484 4.92617 16.3901 5.76784 16.3901 6.80117V9.56783C16.3901 9.9095 16.6734 10.1928 17.0151 10.1928C17.3567 10.1928 17.6401 9.9095 17.6401 9.56783V6.80117C17.6401 5.07617 16.2401 3.67617 14.5151 3.67617Z" fill="#BABABA"/>
<path d="M17.6401 15.6996C17.6401 15.6163 17.6234 15.5329 17.5901 15.4579C17.5567 15.3829 17.5151 15.3163 17.4567 15.2579L14.8234 12.6246C14.5817 12.3829 14.1817 12.3829 13.9401 12.6246C13.6984 12.8663 13.6984 13.2663 13.9401 13.5079L15.5067 15.0746H5.48175C4.44842 15.0746 3.60675 14.2329 3.60675 13.1996V10.4329C3.60675 10.0913 3.32342 9.80792 2.98175 9.80792C2.64009 9.80792 2.35675 10.0913 2.35675 10.4329V13.1996C2.35675 14.9246 3.75676 16.3246 5.48175 16.3246H15.5067L13.9401 17.8913C13.6984 18.1329 13.6984 18.5329 13.9401 18.7746C14.0651 18.8996 14.2234 18.9579 14.3817 18.9579C14.5401 18.9579 14.6984 18.8996 14.8234 18.7746L17.4567 16.1413C17.5151 16.0829 17.5567 16.0163 17.5901 15.9413C17.6234 15.8663 17.6401 15.7829 17.6401 15.6996Z" fill="#BABABA"/>
</svg>
