<svg width="20" height="20" viewBox="0 0 20 20" fill="none" xmlns="http://www.w3.org/2000/svg">
<g clip-path="url(#clip0_8_17)">
<path d="M10 0C4.47691 0 0 4.47691 0 10C0 15.5231 4.47691 20 10 20C15.5231 20 20 15.5231 20 10C20 4.47691 15.5231 0 10 0ZM10 18.4375C5.33996 18.4375 1.5625 14.66 1.5625 10C1.5625 5.33996 5.33996 1.5625 10 1.5625C14.66 1.5625 18.4375 5.33996 18.4375 10C18.4375 14.66 14.66 18.4375 10 18.4375Z" fill="#BABABA"/>
<path d="M13.7476 8.75C13.0573 8.75 12.5 9.30848 12.5 9.99879C12.5 10.6891 13.0573 11.25 13.7476 11.25C14.4403 11.25 15 10.6891 15 9.99879C15 9.30848 14.4403 8.75 13.7476 8.75Z" fill="#BABABA"/>
<path d="M9.99758 8.75C9.30727 8.75 8.75 9.30848 8.75 9.99879C8.75 10.6891 9.30727 11.25 9.99758 11.25C10.6903 11.25 11.25 10.6891 11.25 9.99879C11.25 9.30848 10.6903 8.75 9.99758 8.75Z" fill="#BABABA"/>
<path d="M6.25 8.75C5.55906 8.75 5 9.30848 5 9.99879C5 10.6891 5.55906 11.25 6.25 11.25C6.93969 11.25 7.5 10.6891 7.5 9.99879C7.5 9.30848 6.93969 8.75 6.25 8.75Z" fill="#BABABA"/>
</g>
<defs>
<clipPath id="clip0_8_17">
<rect width="20" height="20" fill="white"/>
</clipPath>
</defs>
</svg>
